<?xml version="1.0" encoding="utf-8"?>
<svg version="1.1" xmlns="http://www.w3.org/2000/svg" xmlns:xlink="http://www.w3.org/1999/xlink" x="0px"
	 y="0px" viewBox="0 0 1000 1000" style="enable-background:new 0 0 1000 1000;" xml:space="preserve">
<style type="text/css">
	.st0{fill-rule:evenodd;clip-rule:evenodd;}
</style>
<g id="1">
	<g>
		<path class="st0" d="M221.4,228.8c-15.8,15.3-23.7,45.8-23.7,91.7v74.8c0,30.9-5,52.4-15,64.3c-10,11.9-28.3,17.9-55.1,17.9h-17.1
			v44.5h17.1c26.6,0,44.9,6,55,18.1c10.1,12,15.1,33.8,15.1,65.1v74.5c0,45.9,7.9,76.5,23.7,91.9c15.8,15.4,46.9,23.1,93.5,23.1
			h17.4v-44.9h-19c-26.4,0-43.6-4.6-51.6-13.7c-8-9.1-12-28.3-12-57.6v-77.3c0-32.4-4.2-56-12.6-70.7c-8.4-14.7-23-24.9-43.8-30.5
			c20.6-5.2,35.1-15.2,43.6-29.9c8.5-14.7,12.8-38.4,12.8-71v-77.3c0-29.3,4-48.5,12-57.6c8-9.1,25.2-13.7,51.6-13.7h19V206h-17.4
			C268.3,206,237.2,213.6,221.4,228.8z M871.4,477.6c-26.4,0-44.6-6-54.7-17.9c-10.1-11.9-15.1-33.4-15.1-64.3v-74.8
			c0-45.9-7.8-76.5-23.5-91.7c-15.7-15.3-46.8-22.9-93.3-22.9H667v44.5h19.6c26.2,0,43.2,4.5,51.2,13.6c8,9,12,28.3,12,57.8v77.3
			c0,32.6,4.2,56.3,12.6,71c8.4,14.7,23,24.7,43.8,29.9c-20.8,5.6-35.4,15.8-43.8,30.5c-8.4,14.7-12.6,38.3-12.6,70.7v77.3
			c0,29.7-4,49-12,57.9c-8,8.9-25.1,13.4-51.2,13.4H667v44.9h17.8c46.5,0,77.6-7.7,93.3-23.1c15.7-15.4,23.5-46,23.5-91.9v-74.5
			c0-31.4,5-53.1,15.1-65.1c10.1-12,28.3-18.1,54.7-18.1h17.4v-44.5H871.4z"/>
	</g>
</g>
</svg>
