<?xml version="1.0" encoding="UTF-8" standalone="no"?>
<svg width="174.625mm" height="174.625mm"
 viewBox="0 0 495 495"
 xmlns="http://www.w3.org/2000/svg" xmlns:xlink="http://www.w3.org/1999/xlink"  version="1.2" baseProfile="tiny">
<title>Qt Svg Document</title>
<desc>Generated with Qt</desc>
<defs>
</defs>
<g fill="none" stroke="black" stroke-width="1" fill-rule="evenodd" stroke-linecap="square" stroke-linejoin="bevel" >

<g fill="none" stroke="#000000" stroke-opacity="1" stroke-width="1" stroke-linecap="square" stroke-linejoin="bevel" transform="matrix(0.375569,0,0,0.375569,0,0)"
font-family="Comic Sans MS" font-size="10" font-weight="400" font-style="normal" 
>
</g>

<g fill="#808080" fill-opacity="1" stroke="none" transform="matrix(0.375569,0,0,0.375569,0,0)"
font-family="Comic Sans MS" font-size="10" font-weight="400" font-style="normal" 
>
</g>

<g fill="#808080" fill-opacity="1" stroke="none" transform="matrix(0.375569,0,0,0.375569,0,0)"
font-family="Comic Sans MS" font-size="10" font-weight="400" font-style="normal" 
>
</g>

<g fill="#ffffff" fill-opacity="1" stroke="#000000" stroke-opacity="1" stroke-width="1" stroke-linecap="square" stroke-linejoin="bevel" transform="matrix(0.375569,0,0,0.375569,0,0)"
font-family="Comic Sans MS" font-size="10" font-weight="400" font-style="normal" 
>
<path vector-effect="non-scaling-stroke" fill-rule="evenodd" d="M0,0 L1500,0 L1500,1500 L0,1500 L0,0"/>
</g>

<g fill="none" stroke="#000000" stroke-opacity="1" stroke-width="1" stroke-linecap="square" stroke-linejoin="bevel" transform="matrix(0.375569,0,0,0.375569,0,0)"
font-family="Comic Sans MS" font-size="10" font-weight="400" font-style="normal" 
>
</g>

<g fill="none" stroke="#000000" stroke-opacity="1" stroke-width="1" stroke-linecap="square" stroke-linejoin="bevel" transform="matrix(1,0,0,1,0,0)"
font-family="Comic Sans MS" font-size="10" font-weight="400" font-style="normal" 
>
</g>

<g fill="none" stroke="#000000" stroke-opacity="1" stroke-width="1" stroke-linecap="square" stroke-linejoin="bevel" transform="matrix(1,0,0,1,0,0)"
font-family="Comic Sans MS" font-size="10" font-weight="400" font-style="normal" 
>
</g>

<g fill="none" stroke="#000000" stroke-opacity="1" stroke-width="1" stroke-linecap="square" stroke-linejoin="bevel" transform="matrix(0.375569,0,0,0.375569,247.5,247.5)"
font-family="Comic Sans MS" font-size="10" font-weight="400" font-style="normal" 
>
</g>

<g fill="none" stroke="#000000" stroke-opacity="1" stroke-width="1" stroke-linecap="square" stroke-linejoin="bevel" transform="matrix(0.375569,0,0,0.375569,247.5,247.5)"
font-family="Comic Sans MS" font-size="10" font-weight="400" font-style="normal" 
>
</g>

<g fill="none" stroke="#000000" stroke-opacity="1" stroke-width="1" stroke-linecap="square" stroke-linejoin="bevel" transform="matrix(0.375569,0,0,0.375569,247.5,247.5)"
font-family="Comic Sans MS" font-size="10" font-weight="400" font-style="normal" 
>
</g>

<g fill="none" stroke="#000000" stroke-opacity="1" stroke-width="1" stroke-linecap="square" stroke-linejoin="bevel" transform="matrix(0.375569,0,0,0.375569,247.5,247.5)"
font-family="Comic Sans MS" font-size="10" font-weight="400" font-style="normal" 
>
</g>

<g fill="#ffffff" fill-opacity="1" stroke="none" transform="matrix(0.375569,0,0,0.375569,247.5,247.5)"
font-family="Comic Sans MS" font-size="10" font-weight="400" font-style="normal" 
>
<path vector-effect="non-scaling-stroke" fill-rule="evenodd" d="M-650,-650 L650,-650 L650,650 L-650,650 L-650,-650"/>
</g>

<g fill="none" stroke="#000000" stroke-opacity="1" stroke-width="17.6389" stroke-linecap="square" stroke-linejoin="bevel" transform="matrix(0.375569,0,0,0.375569,247.5,247.5)"
font-family="Comic Sans MS" font-size="10" font-weight="400" font-style="normal" 
>
<path vector-effect="none" fill-rule="evenodd" d="M-650,-650 L650,-650 L650,650 L-650,650 L-650,-650"/>
</g>

<g fill="none" stroke="#000000" stroke-opacity="1" stroke-width="1" stroke-linecap="square" stroke-linejoin="bevel" transform="matrix(0.375569,0,0,0.375569,247.5,247.5)"
font-family="Comic Sans MS" font-size="10" font-weight="400" font-style="normal" 
>
</g>

<g fill="none" stroke="#000000" stroke-opacity="1" stroke-width="1" stroke-linecap="square" stroke-linejoin="bevel" transform="matrix(0.375569,0,0,0.375569,247.5,247.5)"
font-family="Comic Sans MS" font-size="10" font-weight="400" font-style="normal" 
>
</g>

<g fill="none" stroke="#000000" stroke-opacity="1" stroke-width="1" stroke-linecap="square" stroke-linejoin="bevel" transform="matrix(0.375569,0,0,0.375569,247.5,13.6144)"
font-family="Comic Sans MS" font-size="10" font-weight="400" font-style="normal" 
>
</g>

<g fill="none" stroke="#000000" stroke-opacity="1" stroke-width="1" stroke-linecap="square" stroke-linejoin="bevel" transform="matrix(0.375569,0,0,0.375569,247.5,13.6144)"
font-family="Comic Sans MS" font-size="10" font-weight="400" font-style="normal" 
>
</g>

<g fill="none" stroke="#000000" stroke-opacity="1" stroke-width="1" stroke-linecap="square" stroke-linejoin="bevel" transform="matrix(0.375569,0,0,0.375569,247.5,13.6144)"
font-family="Comic Sans MS" font-size="10" font-weight="400" font-style="normal" 
>
</g>

<g fill="none" stroke="#000000" stroke-opacity="1" stroke-width="1" stroke-linecap="square" stroke-linejoin="bevel" transform="matrix(1,0,0,1,0,0)"
font-family="Comic Sans MS" font-size="10" font-weight="400" font-style="normal" 
>
</g>

<g fill="none" stroke="#000000" stroke-opacity="1" stroke-width="1" stroke-linecap="square" stroke-linejoin="bevel" transform="matrix(0.375569,0,0,0.375569,247.5,247.5)"
font-family="Comic Sans MS" font-size="10" font-weight="400" font-style="normal" 
>
</g>

<g fill="none" stroke="#000000" stroke-opacity="1" stroke-width="1" stroke-linecap="square" stroke-linejoin="bevel" transform="matrix(0.375569,0,0,0.375569,247.5,247.5)"
font-family="Comic Sans MS" font-size="10" font-weight="400" font-style="normal" 
>
</g>

<g fill="none" stroke="#000000" stroke-opacity="1" stroke-width="1" stroke-linecap="square" stroke-linejoin="bevel" transform="matrix(0.375569,0,0,0.375569,247.5,247.5)"
font-family="Comic Sans MS" font-size="10" font-weight="400" font-style="normal" 
>
</g>

<g fill="none" stroke="#000000" stroke-opacity="1" stroke-width="17.6389" stroke-linecap="square" stroke-linejoin="bevel" transform="matrix(0.375569,0,0,0.375569,247.5,247.5)"
font-family="Comic Sans MS" font-size="10" font-weight="400" font-style="normal" 
>
<path vector-effect="none" fill-rule="evenodd" d="M-500,500 L500,500"/>
</g>

<g fill="none" stroke="#a0a0a4" stroke-opacity="1" stroke-width="3.52778" stroke-linecap="square" stroke-linejoin="bevel" transform="matrix(0.375569,0,0,0.375569,247.5,247.5)"
font-family="Comic Sans MS" font-size="10" font-weight="400" font-style="normal" 
>
<path vector-effect="none" fill-rule="evenodd" d="M-300,500 L-300,-500 M-100,500 L-100,-500 M100,500 L100,-500 M300,500 L300,-500"/>
</g>

<g fill="none" stroke="#a0a0a4" stroke-opacity="1" stroke-dasharray="3.52778,7.05556" stroke-dashoffset="0" stroke-width="3.52778" stroke-linecap="square" stroke-linejoin="bevel" transform="matrix(0.375569,0,0,0.375569,247.5,247.5)"
font-family="Comic Sans MS" font-size="10" font-weight="400" font-style="normal" 
>
<path vector-effect="none" fill-rule="evenodd" d="M-400,500 L-400,-500 M-200,500 L-200,-500 M0,500 L0,-500 M200,500 L200,-500 M400,500 L400,-500"/>
</g>

<g fill="none" stroke="#000000" stroke-opacity="1" stroke-width="17.6389" stroke-linecap="square" stroke-linejoin="bevel" transform="matrix(0.375569,0,0,0.375569,247.5,247.5)"
font-family="Comic Sans MS" font-size="10" font-weight="400" font-style="normal" 
>
<path vector-effect="none" fill-rule="evenodd" d="M-500,478.833 L-500,521.167 M-300,478.833 L-300,521.167 M-100,478.833 L-100,521.167 M100,478.833 L100,521.167 M300,478.833 L300,521.167 M500,478.833 L500,521.167"/>
<path vector-effect="none" fill-rule="evenodd" d="M-400,489.417 L-400,510.583 M-200,489.417 L-200,510.583 M0,489.417 L0,510.583 M200,489.417 L200,510.583 M400,489.417 L400,510.583"/>
</g>

<g fill="none" stroke="#000000" stroke-opacity="1" stroke-width="1" stroke-linecap="square" stroke-linejoin="bevel" transform="matrix(0.375569,0,0,0.375569,247.5,247.5)"
font-family="Comic Sans MS" font-size="10" font-weight="400" font-style="normal" 
>
</g>

<g fill="none" stroke="#000000" stroke-opacity="1" stroke-width="1" stroke-linecap="square" stroke-linejoin="bevel" transform="matrix(0.375569,0,0,0.375569,247.5,247.5)"
font-family="Comic Sans MS" font-size="10" font-weight="400" font-style="normal" 
>
</g>

<g fill="none" stroke="#000000" stroke-opacity="1" stroke-width="17.6389" stroke-linecap="square" stroke-linejoin="bevel" transform="matrix(0.375569,0,0,0.375569,247.5,247.5)"
font-family="Comic Sans MS" font-size="10" font-weight="400" font-style="normal" 
>
<path vector-effect="none" fill-rule="evenodd" d="M-500,500 L-500,-500"/>
</g>

<g fill="none" stroke="#a0a0a4" stroke-opacity="1" stroke-width="3.52778" stroke-linecap="square" stroke-linejoin="bevel" transform="matrix(0.375569,0,0,0.375569,247.5,247.5)"
font-family="Comic Sans MS" font-size="10" font-weight="400" font-style="normal" 
>
<path vector-effect="none" fill-rule="evenodd" d="M-500,300 L500,300 M-500,100 L500,100 M-500,-100 L500,-100 M-500,-300 L500,-300"/>
</g>

<g fill="none" stroke="#a0a0a4" stroke-opacity="1" stroke-dasharray="3.52778,7.05556" stroke-dashoffset="0" stroke-width="3.52778" stroke-linecap="square" stroke-linejoin="bevel" transform="matrix(0.375569,0,0,0.375569,247.5,247.5)"
font-family="Comic Sans MS" font-size="10" font-weight="400" font-style="normal" 
>
<path vector-effect="none" fill-rule="evenodd" d="M-500,400 L500,400 M-500,200 L500,200 M-500,0 L500,0 M-500,-200 L500,-200 M-500,-400 L500,-400"/>
</g>

<g fill="none" stroke="#000000" stroke-opacity="1" stroke-width="17.6389" stroke-linecap="square" stroke-linejoin="bevel" transform="matrix(0.375569,0,0,0.375569,247.5,247.5)"
font-family="Comic Sans MS" font-size="10" font-weight="400" font-style="normal" 
>
<path vector-effect="none" fill-rule="evenodd" d="M-478.833,500 L-521.167,500 M-478.833,300 L-521.167,300 M-478.833,100 L-521.167,100 M-478.833,-100 L-521.167,-100 M-478.833,-300 L-521.167,-300 M-478.833,-500 L-521.167,-500"/>
<path vector-effect="none" fill-rule="evenodd" d="M-489.417,400 L-510.583,400 M-489.417,200 L-510.583,200 M-489.417,0 L-510.583,0 M-489.417,-200 L-510.583,-200 M-489.417,-400 L-510.583,-400"/>
</g>

<g fill="none" stroke="#000000" stroke-opacity="1" stroke-width="1" stroke-linecap="square" stroke-linejoin="bevel" transform="matrix(0.375569,0,0,0.375569,247.5,247.5)"
font-family="Comic Sans MS" font-size="10" font-weight="400" font-style="normal" 
>
</g>

<g fill="none" stroke="#000000" stroke-opacity="1" stroke-width="1" stroke-linecap="square" stroke-linejoin="bevel" transform="matrix(0.375569,0,0,0.375569,247.5,247.5)"
font-family="Comic Sans MS" font-size="10" font-weight="400" font-style="normal" 
>
</g>

<g fill="none" stroke="#000000" stroke-opacity="1" stroke-width="1" stroke-linecap="square" stroke-linejoin="bevel" transform="matrix(1,0,0,1,0,0)"
font-family="Comic Sans MS" font-size="10" font-weight="400" font-style="normal" 
>
</g>

<g fill="none" stroke="#000000" stroke-opacity="1" stroke-width="1" stroke-linecap="square" stroke-linejoin="bevel" transform="matrix(0.375569,0,0,0.375569,247.5,247.5)"
font-family="Comic Sans MS" font-size="10" font-weight="400" font-style="normal" 
>
</g>

<g fill="none" stroke="#000000" stroke-opacity="1" stroke-width="1" stroke-linecap="square" stroke-linejoin="bevel" transform="matrix(1,0,0,1,0,0)"
font-family="Comic Sans MS" font-size="10" font-weight="400" font-style="normal" 
>
</g>
</g>
</svg>
