<?xml version="1.0" encoding="UTF-8" standalone="no"?>
<svg width="174.625mm" height="174.625mm"
 viewBox="0 0 495 495"
 xmlns="http://www.w3.org/2000/svg" xmlns:xlink="http://www.w3.org/1999/xlink"  version="1.2" baseProfile="tiny">
<title>Qt Svg Document</title>
<desc>Generated with Qt</desc>
<defs>
</defs>
<g fill="none" stroke="black" stroke-width="1" fill-rule="evenodd" stroke-linecap="square" stroke-linejoin="bevel" >

<g fill="none" stroke="#000000" stroke-opacity="1" stroke-width="1" stroke-linecap="square" stroke-linejoin="bevel" transform="matrix(1,0,0,1,0,0)"
font-family="Comic Sans MS" font-size="10" font-weight="400" font-style="normal" 
>
</g>

<g fill="none" stroke="#000000" stroke-opacity="1" stroke-width="1" stroke-linecap="square" stroke-linejoin="bevel" transform="matrix(0.375672,0,0,0.375672,247.5,247.5)"
font-family="Comic Sans MS" font-size="10" font-weight="400" font-style="normal" 
>
</g>

<g fill="none" stroke="#000000" stroke-opacity="1" stroke-width="1" stroke-linecap="square" stroke-linejoin="bevel" transform="matrix(0.375672,0,0,0.375672,247.5,247.5)"
font-family="Comic Sans MS" font-size="10" font-weight="400" font-style="normal" 
>
</g>

<g fill="none" stroke="#000000" stroke-opacity="1" stroke-width="1" stroke-linecap="square" stroke-linejoin="bevel" transform="matrix(0.375672,0,0,0.375672,247.5,247.5)"
font-family="Comic Sans MS" font-size="10" font-weight="400" font-style="normal" 
>
</g>

<g fill="none" stroke="#000000" stroke-opacity="1" stroke-width="1" stroke-linecap="square" stroke-linejoin="bevel" transform="matrix(0.375672,0,0,0.375672,247.5,247.5)"
font-family="Comic Sans MS" font-size="10" font-weight="400" font-style="normal" 
>
</g>

<g fill="#ffffff" fill-opacity="1" stroke="none" transform="matrix(0.375672,0,0,0.375672,247.5,247.5)"
font-family="Comic Sans MS" font-size="10" font-weight="400" font-style="normal" 
>
<path vector-effect="non-scaling-stroke" fill-rule="evenodd" d="M-650,-650 L650,-650 L650,650 L-650,650 L-650,-650"/>
</g>

<g fill="none" stroke="#000000" stroke-opacity="1" stroke-width="1" stroke-linecap="square" stroke-linejoin="bevel" transform="matrix(0.375672,0,0,0.375672,247.5,247.5)"
font-family="Comic Sans MS" font-size="10" font-weight="400" font-style="normal" 
>
</g>

<g fill="none" stroke="#000000" stroke-opacity="1" stroke-width="1" stroke-linecap="square" stroke-linejoin="bevel" transform="matrix(0.375672,0,0,0.375672,247.5,247.5)"
font-family="Comic Sans MS" font-size="10" font-weight="400" font-style="normal" 
>
</g>

<g fill="none" stroke="#000000" stroke-opacity="1" stroke-width="1" stroke-linecap="square" stroke-linejoin="bevel" transform="matrix(0.375672,0,0,0.375672,247.5,14.4895)"
font-family="Comic Sans MS" font-size="10" font-weight="400" font-style="normal" 
>
</g>

<g fill="none" stroke="#000000" stroke-opacity="1" stroke-width="1" stroke-linecap="square" stroke-linejoin="bevel" transform="matrix(0.375672,0,0,0.375672,247.5,14.4895)"
font-family="Comic Sans MS" font-size="10" font-weight="400" font-style="normal" 
>
</g>

<g fill="none" stroke="#000000" stroke-opacity="1" stroke-width="1" stroke-linecap="square" stroke-linejoin="bevel" transform="matrix(0.375672,0,0,0.375672,247.5,14.4895)"
font-family="Comic Sans MS" font-size="10" font-weight="400" font-style="normal" 
>
</g>

<g fill="none" stroke="#000000" stroke-opacity="1" stroke-width="1" stroke-linecap="square" stroke-linejoin="bevel" transform="matrix(1,0,0,1,0,0)"
font-family="Comic Sans MS" font-size="10" font-weight="400" font-style="normal" 
>
</g>

<g fill="none" stroke="#000000" stroke-opacity="1" stroke-width="1" stroke-linecap="square" stroke-linejoin="bevel" transform="matrix(0.375672,0,0,0.375672,247.5,247.5)"
font-family="Comic Sans MS" font-size="10" font-weight="400" font-style="normal" 
>
</g>

<g fill="none" stroke="#000000" stroke-opacity="1" stroke-width="1" stroke-linecap="square" stroke-linejoin="bevel" transform="matrix(0.375672,0,0,0.375672,247.5,247.5)"
font-family="Comic Sans MS" font-size="10" font-weight="400" font-style="normal" 
>
</g>

<g fill="none" stroke="#000000" stroke-opacity="1" stroke-width="1" stroke-linecap="square" stroke-linejoin="bevel" transform="matrix(0.375672,0,0,0.375672,247.5,247.5)"
font-family="Comic Sans MS" font-size="10" font-weight="400" font-style="normal" 
>
</g>

<g fill="none" stroke="#000000" stroke-opacity="1" stroke-width="17.6389" stroke-linecap="square" stroke-linejoin="bevel" transform="matrix(0.375672,0,0,0.375672,247.5,247.5)"
font-family="Comic Sans MS" font-size="10" font-weight="400" font-style="normal" 
>
<path vector-effect="none" fill-rule="evenodd" d="M-650,0 L650,0"/>
<path vector-effect="none" fill-rule="evenodd" d="M-650,-21.1667 L-650,21.1667 M-390,-21.1667 L-390,21.1667 M-130,-21.1667 L-130,21.1667 M130,-21.1667 L130,21.1667 M390,-21.1667 L390,21.1667 M650,-21.1667 L650,21.1667"/>
<path vector-effect="none" fill-rule="evenodd" d="M-520,-10.5833 L-520,10.5833 M-260,-10.5833 L-260,10.5833 M3.60822e-14,-10.5833 L3.60822e-14,10.5833 M260,-10.5833 L260,10.5833 M520,-10.5833 L520,10.5833"/>
</g>

<g fill="none" stroke="#000000" stroke-opacity="1" stroke-width="1" stroke-linecap="square" stroke-linejoin="bevel" transform="matrix(0.375672,0,0,0.375672,247.5,247.5)"
font-family="Comic Sans MS" font-size="10" font-weight="400" font-style="normal" 
>
</g>

<g fill="none" stroke="#000000" stroke-opacity="1" stroke-width="1" stroke-linecap="square" stroke-linejoin="bevel" transform="matrix(0.375672,0,0,0.375672,285.067,285.067)"
font-family="Comic Sans MS" font-size="10" font-weight="400" font-style="normal" 
>
</g>

<g fill="none" stroke="#000000" stroke-opacity="1" stroke-width="1" stroke-linecap="square" stroke-linejoin="bevel" transform="matrix(0.375672,0,0,0.375672,285.067,285.067)"
font-family="Comic Sans MS" font-size="10" font-weight="400" font-style="normal" 
>
</g>

<g fill="none" stroke="#000000" stroke-opacity="1" stroke-width="1" stroke-linecap="square" stroke-linejoin="bevel" transform="matrix(0.375672,0,0,0.375672,247.5,247.5)"
font-family="Comic Sans MS" font-size="10" font-weight="400" font-style="normal" 
>
</g>

<g fill="none" stroke="#000000" stroke-opacity="1" stroke-width="17.6389" stroke-linecap="square" stroke-linejoin="bevel" transform="matrix(0.375672,0,0,0.375672,247.5,247.5)"
font-family="Comic Sans MS" font-size="10" font-weight="400" font-style="normal" 
>
<path vector-effect="none" fill-rule="evenodd" d="M0,650 L0,-650"/>
<path vector-effect="none" fill-rule="evenodd" d="M21.1667,650 L-21.1667,650 M21.1667,390 L-21.1667,390 M21.1667,130 L-21.1667,130 M21.1667,-130 L-21.1667,-130 M21.1667,-390 L-21.1667,-390 M21.1667,-650 L-21.1667,-650"/>
<path vector-effect="none" fill-rule="evenodd" d="M10.5833,520 L-10.5833,520 M10.5833,260 L-10.5833,260 M10.5833,-3.60822e-14 L-10.5833,-3.60822e-14 M10.5833,-260 L-10.5833,-260 M10.5833,-520 L-10.5833,-520"/>
</g>

<g fill="none" stroke="#000000" stroke-opacity="1" stroke-width="1" stroke-linecap="square" stroke-linejoin="bevel" transform="matrix(0.375672,0,0,0.375672,247.5,247.5)"
font-family="Comic Sans MS" font-size="10" font-weight="400" font-style="normal" 
>
</g>

<g fill="none" stroke="#000000" stroke-opacity="1" stroke-width="1" stroke-linecap="square" stroke-linejoin="bevel" transform="matrix(0.375672,0,0,0.375672,285.067,285.067)"
font-family="Comic Sans MS" font-size="10" font-weight="400" font-style="normal" 
>
</g>

<g fill="none" stroke="#000000" stroke-opacity="1" stroke-width="1" stroke-linecap="square" stroke-linejoin="bevel" transform="matrix(0.375672,0,0,0.375672,285.067,285.067)"
font-family="Comic Sans MS" font-size="10" font-weight="400" font-style="normal" 
>
</g>

<g fill="none" stroke="#000000" stroke-opacity="1" stroke-width="1" stroke-linecap="square" stroke-linejoin="bevel" transform="matrix(0.375672,0,0,0.375672,285.067,285.067)"
font-family="Comic Sans MS" font-size="10" font-weight="400" font-style="normal" 
>
</g>

<g fill="none" stroke="#000000" stroke-opacity="1" stroke-width="1" stroke-linecap="square" stroke-linejoin="bevel" transform="matrix(1,0,0,1,0,0)"
font-family="Comic Sans MS" font-size="10" font-weight="400" font-style="normal" 
>
</g>

<g fill="none" stroke="#000000" stroke-opacity="1" stroke-width="1" stroke-linecap="square" stroke-linejoin="bevel" transform="matrix(0.375672,0,0,0.375672,247.5,247.5)"
font-family="Comic Sans MS" font-size="10" font-weight="400" font-style="normal" 
>
</g>

<g fill="none" stroke="#000000" stroke-opacity="1" stroke-width="1" stroke-linecap="square" stroke-linejoin="bevel" transform="matrix(1,0,0,1,0,0)"
font-family="Comic Sans MS" font-size="10" font-weight="400" font-style="normal" 
>
</g>
</g>
</svg>
