<?xml version="1.0" encoding="UTF-8" standalone="no"?>
<!-- Created with Inkscape (http://www.inkscape.org/) -->

<svg
   xmlns:dc="http://purl.org/dc/elements/1.1/"
   xmlns:cc="http://creativecommons.org/ns#"
   xmlns:rdf="http://www.w3.org/1999/02/22-rdf-syntax-ns#"
   xmlns:svg="http://www.w3.org/2000/svg"
   xmlns="http://www.w3.org/2000/svg"
   xmlns:sodipodi="http://sodipodi.sourceforge.net/DTD/sodipodi-0.dtd"
   xmlns:inkscape="http://www.inkscape.org/namespaces/inkscape"
   width="210mm"
   height="297mm"
   id="svg5259"
   version="1.1"
   inkscape:version="0.48.2 r9819"
   sodipodi:docname="xy-curve.svg"
   inkscape:export-filename="/home/alex/Projekte/labplot/2.0/src/pics/xy-curve.png"
   inkscape:export-xdpi="5.305522"
   inkscape:export-ydpi="5.305522">
  <defs
     id="defs5261" />
  <sodipodi:namedview
     id="base"
     pagecolor="#ffffff"
     bordercolor="#666666"
     borderopacity="1.0"
     inkscape:pageopacity="0.0"
     inkscape:pageshadow="2"
     inkscape:zoom="1.4822581"
     inkscape:cx="412.68782"
     inkscape:cy="504.03316"
     inkscape:document-units="px"
     inkscape:current-layer="layer1"
     showgrid="true"
     inkscape:snap-global="false"
     inkscape:window-width="1280"
     inkscape:window-height="727"
     inkscape:window-x="-2"
     inkscape:window-y="22"
     inkscape:window-maximized="1">
    <inkscape:grid
       type="xygrid"
       id="grid5267" />
  </sodipodi:namedview>
  <metadata
     id="metadata5264">
    <rdf:RDF>
      <cc:Work
         rdf:about="">
        <dc:format>image/svg+xml</dc:format>
        <dc:type
           rdf:resource="http://purl.org/dc/dcmitype/StillImage" />
        <dc:title></dc:title>
      </cc:Work>
    </rdf:RDF>
  </metadata>
  <g
     inkscape:label="Ebene 1"
     inkscape:groupmode="layer"
     id="layer1">
    <path
       style="fill:none;stroke:#000000;stroke-width:15;stroke-linecap:butt;stroke-linejoin:miter;stroke-miterlimit:4;stroke-opacity:1;stroke-dasharray:none;stroke-dashoffset:0"
       d="M 69.073966,641.78203 247.85364,536.1395 l 87.35825,56.88444 172.68492,-138.14793 56.88444,105.64254"
       id="path5271"
       inkscape:connector-curvature="0" />
    <path
       sodipodi:type="arc"
       style="fill:#000000;fill-opacity:1;stroke:#000000;stroke-width:4.0999999;stroke-miterlimit:4;stroke-opacity:1;stroke-dasharray:none"
       id="path5273-9"
       sodipodi:cx="52.634613"
       sodipodi:cy="686.55164"
       sodipodi:rx="7.8951917"
       sodipodi:ry="7.8951917"
       d="m 60.529805,686.55164 a 7.8951917,7.8951917 0 1 1 -15.790384,0 7.8951917,7.8951917 0 1 1 15.790384,0 z"
       transform="matrix(3.344588,0,0,3.450499,70.819079,-1823.2376)" />
    <path
       sodipodi:type="arc"
       style="fill:#000000;fill-opacity:1;stroke:#000000;stroke-width:4.0999999;stroke-miterlimit:4;stroke-opacity:1;stroke-dasharray:none"
       id="path5273-9-3"
       sodipodi:cx="52.634613"
       sodipodi:cy="686.55164"
       sodipodi:rx="7.8951917"
       sodipodi:ry="7.8951917"
       d="m 60.529805,686.55164 a 7.8951917,7.8951917 0 1 1 -15.790384,0 7.8951917,7.8951917 0 1 1 15.790384,0 z"
       transform="matrix(3.344588,0,0,3.450499,161.86097,-1778.6684)" />
    <path
       sodipodi:type="arc"
       style="fill:#000000;fill-opacity:1;stroke:#000000;stroke-width:4.0999999;stroke-miterlimit:4;stroke-opacity:1;stroke-dasharray:none"
       id="path5273-9-5"
       sodipodi:cx="52.634613"
       sodipodi:cy="686.55164"
       sodipodi:rx="7.8951917"
       sodipodi:ry="7.8951917"
       d="m 60.529805,686.55164 a 7.8951917,7.8951917 0 1 1 -15.790384,0 7.8951917,7.8951917 0 1 1 15.790384,0 z"
       transform="matrix(3.344588,0,0,3.450499,-88.265253,-1737.9742)" />
    <path
       sodipodi:type="arc"
       style="fill:#000000;fill-opacity:1;stroke:#000000;stroke-width:4.0999999;stroke-miterlimit:4;stroke-opacity:1;stroke-dasharray:none"
       id="path5273-9-0"
       sodipodi:cx="52.634613"
       sodipodi:cy="686.55164"
       sodipodi:rx="7.8951917"
       sodipodi:ry="7.8951917"
       d="m 60.529805,686.55164 a 7.8951917,7.8951917 0 1 1 -15.790384,0 7.8951917,7.8951917 0 1 1 15.790384,0 z"
       transform="matrix(3.344588,0,0,3.450499,330.64225,-1904.5835)" />
    <path
       sodipodi:type="arc"
       style="fill:#000000;fill-opacity:1;stroke:#000000;stroke-width:4.0999999;stroke-miterlimit:4;stroke-opacity:1;stroke-dasharray:none"
       id="path5273-9-37"
       sodipodi:cx="52.634613"
       sodipodi:cy="686.55164"
       sodipodi:rx="7.8951917"
       sodipodi:ry="7.8951917"
       d="m 60.529805,686.55164 a 7.8951917,7.8951917 0 1 1 -15.790384,0 7.8951917,7.8951917 0 1 1 15.790384,0 z"
       transform="matrix(3.344588,0,0,3.450499,387.98719,-1810.0895)" />
  </g>
</svg>
