/* XPM */
static const char *project_xpm[]={
"25 25 216 2",
"Qt c None",
".2 c #1b1b1b",
"bu c #111111",
"bt c #0b0b0b",
"aa c #121212",
"ao c #080808",
"bp c #0d0d0d",
"bg c #0b0b0b",
"a8 c #040404",
"a9 c #050505",
"aR c #060606",
"#O c #040404",
"#2 c #040404",
"aC c #040404",
"#o c #030303",
".1 c #040404",
"#v c #030303",
"#3 c #151511",
"#u c #020202",
"#P c #020202",
"bh c #111103",
"ab c #020202",
"ap c #010101",
"#E c #010101",
"#d c #020202",
"b. c #020202",
"aS c #010101",
".b c #b8b8b8",
"bq c #010101",
".a c #b8b8b8",
"aD c #010101",
"bv c #020202",
"a0 c #010101",
"#c c #161616",
".h c #8a8a8a",
".s c #707070",
".D c #777777",
".P c #878787",
".0 c #787878",
"#n c #000000",
"br c #0c0c00",
"a1 c #2f2f00",
".# c #c7c7c7",
"#N c #3a3a00",
"an c #333300",
"aT c #000000",
"#1 c #2f2f00",
".c c #bcbcbc",
"a# c #1f1f00",
"bo c #202000",
"aQ c #232300",
"b# c #363600",
"aq c #3a3a00",
"#Q c #707070",
"#m c #787878",
"bi c #151500",
"#F c #6d6d6d",
".g c #b0b0b0",
".d c #bdbdbd",
".e c #bebebe",
".f c #bfbfbf",
"ac c #6a6a50",
"bj c #717100",
"#4 c #6a6a50",
"aU c #828200",
".i c #bcbcbc",
".t c #c3c3c3",
".E c #cfcfcf",
".Q c #d4d4d4",
".3 c #d5d5d5",
"#e c #d6d6d6",
"#w c #d4d4d4",
"#D c #2c2c00",
"ba c #515100",
"#t c #595957",
"a2 c #666600",
"#b c #676767",
"al c #70704c",
"#9 c #71714c",
"aE c #727200",
"a7 c #747400",
"#M c #757500",
"am c #7a7a1c",
"#a c #7a7a7a",
"bm c #7b7b12",
"aB c #7c7c00",
"bs c #7e7e00",
"bf c #888804",
"a. c #888805",
".B c #8a8a8a",
"bn c #8b8b05",
"#0 c #8b8b07",
".A c #8c8c8c",
"aV c #909000",
"aP c #939309",
"bl c #949412",
".r c #949494",
".x c #989898",
"aF c #9c9c1f",
"be c #a0a061",
"#Z c #a0a081",
".C c #a0a0a0",
"bk c #a1a101",
"aA c #a2a26d",
".l c #a2a2a2",
"aO c #a3a37c",
"a6 c #a4a45c",
"#L c #a4a47b",
".p c #a4a4a4",
"a3 c #a5a513",
"aZ c #a5a577",
"#C c #a6a678",
"#Y c #a6a6a6",
"#l c #a8a8a8",
"bc c #a9a925",
".q c #a9a9a9",
".m c #ababab",
"bb c #acac00",
"bd c #acac44",
".k c #aeaeae",
".y c #afafaf",
".n c #b0b0b0",
"ak c #b1b19e",
".z c #b1b1b1",
".j c #b3b3b3",
"af c #b4b49c",
"ah c #b4b4a1",
"aj c #b4b4a8",
"ag c #b4b4ab",
"ai c #b4b4ad",
".o c #b4b4b4",
"#V c #b6b6b6",
".O c #b7b7b7",
"aG c #b8b853",
"#U c #bababa",
"ae c #bbbba1",
".w c #bbbbbb",
"#K c #bcbcbc",
"#W c #bdbdbd",
"#r c #bfbfbf",
"#X c #c0c0c0",
".H c #c2c2c2",
"a4 c #c3c366",
"#k c #c3c3c3",
".Z c #c4c4c4",
"#y c #c5c5c5",
".v c #c6c6c6",
"#p c #c8c8c8",
".6 c #c9c9c9",
".u c #cacaca",
"aW c #cbcb6c",
"#S c #cccccb",
".F c #cdcdcd",
".R c #cecece",
"#g c #cfcfcf",
"#T c #d2d2d2",
".J c #d4d4d4",
"#G c #d5d5d5",
".4 c #d6d6d6",
"#x c #d7d7d7",
"#7 c #d8d8d8",
"#H c #d9d9d9",
".N c #dadada",
"#8 c #dbdbdb",
".M c #dcdcdc",
".I c #dddddd",
".K c #dedede",
"#J c #e3e3e3",
"#I c #e4e4e4",
"aX c #e5e599",
"#h c #e5e5e5",
".7 c #e6e6e6",
".T c #e7e7e7",
"a5 c #e8e89e",
"ar c #e8e8a8",
".S c #eaeaea",
".G c #ebebeb",
".L c #ececec",
"#R c #ededca",
"#s c #ededeb",
"#z c #ededed",
".U c #eeeeee",
".8 c #efefef",
".9 c #f0f0f0",
".V c #f1f1f1",
".5 c #f3f3f3",
"#q c #f4f4f4",
"#i c #f5f5f5",
"#5 c #f7f7bc",
"aY c #f7f7e4",
".W c #f7f7f7",
"#B c #f8f8f6",
"#f c #f9f9f9",
"#. c #fafafa",
"aH c #fbfbba",
"#A c #fbfbfb",
"aN c #fcfcd8",
"#j c #fcfcfc",
".X c #fdfdfd",
"aI c #fefebe",
"## c #fefefe",
"ad c #ffffc0",
"aJ c #ffffc3",
"at c #ffffc7",
"as c #ffffcf",
"aw c #ffffd9",
"aL c #ffffde",
"av c #ffffdf",
"#6 c #ffffe5",
"ax c #ffffe8",
"aK c #ffffee",
"az c #ffffef",
"ay c #fffff0",
"aM c #fffff1",
"au c #fffff7",
".Y c #ffffff",
"QtQtQtQtQtQtQtQtQtQtQtQtQtQtQtQtQtQtQtQtQtQtQtQtQt",
"QtQtQtQtQtQtQtQtQtQtQtQtQtQtQtQtQtQtQtQtQtQtQtQtQt",
"QtQtQtQtQtQtQtQtQtQtQtQtQtQtQtQtQtQtQtQtQtQtQtQtQt",
"QtQtQtQtQtQtQt.#.a.b.c.d.d.d.d.e.e.f.g.hQtQtQtQtQt",
"QtQtQtQtQtQtQt.i.j.k.l.m.n.o.l.p.q.m.r.sQtQtQtQtQt",
"QtQtQtQtQtQtQt.t.u.v.j.w.x.y.z.A.B.z.C.DQtQtQtQtQt",
"QtQtQtQtQtQtQt.E.F.G.H.I.J.K.L.M.N.L.O.PQtQtQtQtQt",
"QtQtQtQtQtQtQt.Q.R.S.H.T.U.V.W.X.Y.X.Z.0.1.2QtQtQt",
"QtQtQtQtQtQtQt.3.4.5.6.7.8.9.W#..X##.u#a#b#c#dQtQt",
"QtQtQtQtQtQtQt#e.N#f#g#h#i.9.W#i#j.X#k.H.Y#l#m#n#o",
"QtQtQtQtQtQtQt.3.J.W#p.T.9#q#.#j##.X#r.H.Y.Y#s#t#u",
"QtQtQtQtQtQt#v#w#x.W#y.S.5#z#A#f##.X#r.H.Y#B#C#D#u",
"QtQtQtQtQt#E#F#G#H.V#k.K#I#J.G.T.8.8#K.H.Y#L#M#N#O",
"QtQtQtQt#P#Q#R#S#g#T#K#U#V#W#k.Z#X.w#Y.w#Z#0#1#2Qt",
"QtQtQt#3#4#5#6.R#7#8.I#H#7.N#7.K.4#J.F#9a.a#aaQtQt",
"QtQtabacadadadaeafagahaiaj.oah.o.oakalamanaoQtQtQt",
"QtapaqaradadadadadasatauavawaxayazaAaB#NaCQtQtQtQt",
"QtaDaEaFaGaHaIadadadaJaKaLaMasaNaOaPaQaRQtQtQtQtQt",
"QtaSaTaUaVaVaWaXadadadadadadaYaZaBaQQtQtQtQtQtQtQt",
"QtQtQta0a1a2aVa3a4a5adadadada6a7#Na8QtQtQtQtQtQtQt",
"QtQtQtQta9b.b#babbbcbdadadbebfanaCQtQtQtQtQtQtQtQt",
"QtQtQtQtQtQtbgbhbibjbkblbmbnbobpQtQtQtQtQtQtQtQtQt",
"QtQtQtQtQtQtQtQtQtbqbrbsbs#1btQtQtQtQtQtQtQtQtQtQt",
"QtQtQtQtQtQtQtQtQtQtbubvbv#2QtQtQtQtQtQtQtQtQtQtQt",
"QtQtQtQtQtQtQtQtQtQtQtQtQtQtQtQtQtQtQtQtQtQtQtQtQt"};
