/* XPM */
static const char *worksheet_xpm[] = {
/* width height ncolors chars_per_pixel */
"20 20 91 1",
/* colors */
"  c #000000",
". c #7C7A7D",
"X c #827419",
"o c #2C5677",
"O c #235578",
"+ c #040B11",
"@ c #3E3940",
"# c #73A2CD",
"$ c #CBD4DE",
"% c #014100",
"& c #4F4E4D",
"* c #C3D5E3",
"= c #5C5753",
"- c #245E0B",
"; c #6F96B8",
": c #93B4CE",
"> c #167C00",
", c #F1F6FC",
"< c #B5AFAA",
"1 c #434244",
"2 c #4D85B4",
"3 c #292E27",
"4 c #6F6F6F",
"5 c #25587C",
"6 c #6C9CBB",
"7 c #215478",
"8 c #8BB5D6",
"9 c #5D8FB6",
"0 c #595959",
"q c #468BC7",
"w c #144001",
"e c #11040F",
"r c #E0EAF1",
"t c #27669B",
"y c #134363",
"u c #4D8FC0",
"i c #413B44",
"p c #0A6000",
"a c #B1CDE3",
"s c #427497",
"d c #227900",
"f c #15476E",
"g c #002F00",
"h c #3979AF",
"j c #BCBCBC",
"k c #2C3228",
"l c #E1DAD3",
"z c #B2B2B2",
"x c #1D182D",
"c c #322C31",
"v c #41769C",
"b c #3A9F0D",
"n c #20141C",
"m c #3B383D",
"M c #8CB5D5",
"N c #4C667F",
"B c #98938E",
"V c #395D76",
"C c #417BAC",
"Z c #6CA6D9",
"A c #161311",
"S c #010003",
"D c #343335",
"F c #51512D",
"G c #5E85AA",
"H c #546F89",
"J c #91A729",
"K c #4E4E4E",
"L c #FFFFFF",
"P c #3C3A39",
"I c #AC9547",
"U c #A19846",
"Y c #1E8F00",
"T c #147C00",
"R c #CDC87E",
"E c #646363",
"W c #DDDDDD",
"Q c #343B41",
"! c #4681AF",
"~ c #71A3CC",
"^ c #4B8EC1",
"/ c #242424",
"( c #629DD1",
") c #2F7C0D",
"_ c #2D780B",
"` c #346C93",
"' c #1F8E00",
"] c #185F00",
"[ c #185700",
"{ c #000400",
"} c None",
/* pixels */
"}}}}}}}}}}}}}}}}}}}}",
"}}}}}}}}}}}}}}}}}}}}",
"}}}}}}}}}}}}}}}}}}}}",
"}}UXU}}}UXXU}}}UXU}}",
"}}XXXXXXXXXXXXXXXX}}",
"}}UXXIIIIIIIIIIIXU}}",
"}}}XIyyO75`v6sVRX}}}",
"}}}XIf^!uuu8,M9RX}}}",
"}}UXIor$thuua~2RXU}}",
"}}XXI+B<*:;(ZqCRXX}}",
"}}XXIPE&A=lN#GHRXX}}",
"}}UXImSD1.cnxe/RXU}}",
"}}}XIwk@i3{[_d-RX}}}",
"}}}XI]T%gp>Yb')RX}}}",
"}}UXIRRRRRRRRRRLXU}}",
"}}XXXXXXXXXXXXXXXX}}",
"}}UXU}}}UXXU}}}UXU}}",
"}}}}}}}}}}}}}}}}}}}}",
"}}}}}}}}}}}}}}}}}}}}",
"}}}}}}}}}}}}}}}}}}}}"
};
