/* XPM */
static char * 3dplots_xpm[] = {
"32 32 274 2",
"  	c None",
". 	c #000000",
"+ 	c #FFFFFF",
"@ 	c #FDFDFD",
"# 	c #E7E7E7",
"$ 	c #FEFEFE",
"% 	c #E8E8E8",
"& 	c #D2D2D2",
"* 	c #BBBBBB",
"= 	c #A7A7A7",
"- 	c #606060",
"; 	c #D3D3D3",
"> 	c #EDEDED",
", 	c #D5D5D5",
"' 	c #BEBEBE",
") 	c #A9A9A9",
"! 	c #4B4B4B",
"~ 	c #A8A8A8",
"{ 	c #CBCBCB",
"] 	c #F1F1F1",
"^ 	c #D9D9D9",
"/ 	c #C2C2C2",
"( 	c #ACACAC",
"_ 	c #515151",
": 	c #C4C4C4",
"< 	c #FCFCFC",
"[ 	c #F5F5F5",
"} 	c #DCDCDC",
"| 	c #C5C5C5",
"1 	c #B0B0B0",
"2 	c #4C4C4C",
"3 	c #F0F1F2",
"4 	c #9B9B9B",
"5 	c #454545",
"6 	c #A1A1A1",
"7 	c #B9B9B9",
"8 	c #F9F9F9",
"9 	c #A5A5A5",
"0 	c #A0A0A0",
"a 	c #525252",
"b 	c #9F9F9F",
"c 	c #B5B5B5",
"d 	c #F6F6F6",
"e 	c #A6A6A6",
"f 	c #656589",
"g 	c #9E9EA4",
"h 	c #4D4D4D",
"i 	c #B1B1B1",
"j 	c #F2F2F2",
"k 	c #A2A2A2",
"l 	c #A8A8A9",
"m 	c #9F9FAA",
"n 	c #9A9BAA",
"o 	c #9697A9",
"p 	c #26276F",
"q 	c #565687",
"r 	c #9E9EAA",
"s 	c #A6A6A9",
"t 	c #505050",
"u 	c #ADADAD",
"v 	c #A4A4A5",
"w 	c #999AAA",
"x 	c #8284AD",
"y 	c #7376AF",
"z 	c #7275B1",
"A 	c #7377B2",
"B 	c #595C9C",
"C 	c #262774",
"D 	c #2A2B77",
"E 	c #6C6FAC",
"F 	c #7275B0",
"G 	c #7275AA",
"H 	c #8082AC",
"I 	c #9495AB",
"J 	c #D6D6D6",
"K 	c #A5A5A9",
"L 	c #7B7EA7",
"M 	c #6E72AA",
"N 	c #777AB5",
"O 	c #797DB7",
"P 	c #7C80B9",
"Q 	c #7E82BA",
"R 	c #46488E",
"S 	c #34367F",
"T 	c #343680",
"U 	c #6468A6",
"V 	c #7A7DB7",
"W 	c #6F73AA",
"X 	c #6B6EA5",
"Y 	c #6C70A4",
"Z 	c #888AA3",
"` 	c #9D9EAB",
" .	c #797CB0",
"..	c #7578B3",
"+.	c #767AB0",
"@.	c #797DB2",
"#.	c #8589C0",
"$.	c #888DC3",
"%.	c #45478D",
"&.	c #42448A",
"*.	c #3F4184",
"=.	c #585B96",
"-.	c #8084B7",
";.	c #7E81B5",
">.	c #8185BC",
",.	c #7D81BA",
"'.	c #787BB5",
").	c #8D8FAB",
"!.	c #A6A6AA",
"~.	c #797CB1",
"{.	c #878BC2",
"].	c #898EC1",
"^.	c #898DBE",
"/.	c #9095C6",
"(.	c #6D71A8",
"_.	c #4E518E",
":.	c #4B4E8C",
"<.	c #505294",
"[.	c #5B5E9F",
"}.	c #969BCE",
"|.	c #9498CC",
"1.	c #9094C9",
"2.	c #898DC4",
"3.	c #8084BC",
"4.	c #797CB6",
"5.	c #7377B1",
"6.	c #999AAB",
"7.	c #8D8FB5",
"8.	c #9296CA",
"9.	c #9A9FD1",
"0.	c #9499C6",
"a.	c #9FA3D3",
"b.	c #7174B0",
"c.	c #6366A4",
"d.	c #5F63A2",
"e.	c #6063A3",
"f.	c #6669A7",
"g.	c #979BCE",
"h.	c #A2A6D7",
"i.	c #9DA1D3",
"j.	c #959ACD",
"k.	c #8B90C5",
"l.	c #7E82BB",
"m.	c #7175B0",
"n.	c #7E82B2",
"o.	c #A2A4B7",
"p.	c #999BB2",
"q.	c #8D8FAE",
"r.	c #7A7DB6",
"s.	c #8F94C8",
"t.	c #A6ABDB",
"u.	c #A2A7D2",
"v.	c #6F72AE",
"w.	c #7073AF",
"x.	c #7477B3",
"y.	c #9499CD",
"z.	c #AFB4E2",
"A.	c #AAAFDE",
"B.	c #A2A7D7",
"C.	c #8387BF",
"D.	c #7276B1",
"E.	c #787CB6",
"F.	c #9EA0AF",
"G.	c #A6A6A8",
"H.	c #A8A9AF",
"I.	c #9091A3",
"J.	c #898DC1",
"K.	c #A8ADDC",
"L.	c #B2B7E4",
"M.	c #ADB2DB",
"N.	c #A5A9DA",
"O.	c #878BC1",
"P.	c #7F83BB",
"Q.	c #8386BE",
"R.	c #9397CB",
"S.	c #BCC1EC",
"T.	c #B6BCE8",
"U.	c #AEB3E1",
"V.	c #7679B4",
"W.	c #7477B2",
"X.	c #7E81BA",
"Y.	c #9598BA",
"Z.	c #9E9E9E",
"`.	c #7B7B7B",
" +	c #707070",
".+	c #737373",
"++	c #7D7D7D",
"@+	c #9394AB",
"#+	c #868AC1",
"$+	c #A1A6D7",
"%+	c #AFB4DD",
"&+	c #A5AADA",
"*+	c #9599CD",
"=+	c #8F93C8",
"-+	c #8D91C7",
";+	c #8F92C7",
">+	c #989DD0",
",+	c #BCC2ED",
"'+	c #C0C5F0",
")+	c #7B7FB4",
"!+	c #787CB4",
"~+	c #9498C6",
"{+	c #A9A9AA",
"]+	c #F6F4F5",
"^+	c #909090",
"/+	c #8083B1",
"(+	c #696CA4",
"_+	c #7579B3",
":+	c #7C7FB8",
"<+	c #7F82BB",
"[+	c #8286BE",
"}+	c #898DC3",
"|+	c #868BC1",
"1+	c #9195C4",
"2+	c #A6A7B0",
"3+	c #A7A7AA",
"4+	c #616378",
"5+	c #8F93C6",
"6+	c #9C9FC7",
"7+	c #A8A9B0",
"8+	c #F8F9F8",
"9+	c #C0C0C0",
"0+	c #9C9DAF",
"a+	c #7376AC",
"b+	c #767AB4",
"c+	c #7579B4",
"d+	c #888CC2",
"e+	c #9599C7",
"f+	c #9EA2C4",
"g+	c #A8A9B3",
"h+	c #A4A4A4",
"i+	c #64656D",
"j+	c #A2A5BC",
"k+	c #A9AAB3",
"l+	c #C6C6C6",
"m+	c #A8A8AA",
"n+	c #8C90C2",
"o+	c #7F82B6",
"p+	c #8588C0",
"q+	c #8387BE",
"r+	c #878ABD",
"s+	c #9FA2C2",
"t+	c #A3A6C2",
"u+	c #A5A8BE",
"v+	c #A8A9B7",
"w+	c #A9A9AD",
"x+	c #676769",
"y+	c #A3A3A5",
"z+	c #CECECE",
"A+	c #9FA1BC",
"B+	c #8C90BC",
"C+	c #9296C8",
"D+	c #9095C8",
"E+	c #A4A5B0",
"F+	c #A9AAAD",
"G+	c #A9A9AC",
"H+	c #6A6A6A",
"I+	c #CACACA",
"J+	c #A8A8AF",
"K+	c #999CB6",
"L+	c #A2A4C4",
"M+	c #A0A3C5",
"N+	c #A5A6B3",
"O+	c #AFAFAF",
"P+	c #E4E3E5",
"Q+	c #DDDDDD",
"R+	c #9E9FA8",
"S+	c #A9AAB7",
"T+	c #FDFCFE",
"U+	c #E3E3E3",
"V+	c #AAAAAA",
"W+	c #BFBFBF",
"X+	c #E9E9E9",
"Y+	c #E4E4E4",
". . . . . . . . . . . . . . . . . . . . . . . . . . . . . . . . ",
". + + + + + + + + + + + + + + + + + + + + + + + + + + + + + + . ",
". + + + + + + + + + + + + + + + + + + + + + + + + + + + + + + . ",
". + + + + + + + + + + + + + + + + + @ # + + + + + + + + + + + . ",
". + + + + + + + + + + + + + $ % & * = - ; + + + + + + + + + + . ",
". + + + + + + + + + + > , ' ) ) ) ) ) ! ~ { + + + + + + + + + . ",
". + + + + + + ] ^ / ( = ) ) ) ) ) ) ) _ ) ) : $ + + + + + + + . ",
". + < [ } | 1 = ) ) ) ) ) ) ) ) ) ) ) 2 = ) ) ' < + + + + + + . ",
". + 3 4 ~ ) ) ) ) ) ) ) ) ) ) ) ) ) ) 5 6 ) ) ) 7 8 + + + + + . ",
". + + 9 0 = ) ) ) ) ) ) ) ) ) ) ) ) ) a b ) ) ) ) c d + + + + . ",
". + + 9 ) 6 e ) ) ) ) ) ) ) ) f g ) ) h b ) ) ) ) ) i j + + + . ",
". + + 9 ) ) k 9 ) ) ) l m n o p q r s t ) ) ) ) ) ) ) u > + + . ",
". + + 9 ) ) ) k v w x y z A B C D E F G H I s ) k 6 6 k J + + . ",
". + + 9 ) ) ) K L M N O P Q R S T U P V W X Y Z ) ) ) ) J + + . ",
". + + 9 ) ) `  ...+.@.#.$.Q %.&.*.=.-.;.>.,.'.z ).) ) ) J + + . ",
". + + 9 ) !.~...Q {.].^./.(._.:.<.[.}.|.1.2.3.4.5.6.) ) J + + . ",
". + + 9 ) 7.z 4.{.8.9.0.a.b.c.d.e.f.g.h.i.j.k.l.m.n.) ) J + + . ",
". + + 9 o.p.q.r.s.i.t.u.t.4.m.v.w.x.y.z.A.B.g.C.D.E.F.) J + + . ",
". + + G.H.) ) I.J.K.L.M.N.O.3.Q P.Q.R.S.T.U.9.V.W.X.Y.) J + + . ",
". + + Z.`. +.+++@+#+$+%+&+*+=+-+;+8.>+,+'+9.)+!+P #.~+{+J + + . ",
". + ]+^+4 ) ) ) ) /+D.(+_+:+<+[+#+}+1.=+|+1+2+3+4+5+6+7+J + + . ",
". + 8+@ 9+) ) ) ) 0+X.a+'.b+_+c+E.d+5+e+f+g+) ) h+i+j+k+J + + . ",
". + + + $ l+~ ) ) m+n+o+p+q+[+r+s+t+u+v+w+) ) ) ) = x+y+J + + . ",
". + + + + + z+~ ) ) A+B+C+D+/.E+F+G+{+) ) ) ) ) ) ) ) H+I++ + . ",
". + + + + + + , ~ ) J+K+L+M+N+) ) ) ) ) ) ) ) ) = O+| } P++ + . ",
". + + + + + + + Q+~ ) R+S+k+) ) ) ) ) ) = ( / ^ ] + + + T++ + . ",
". + + + + + + + + U+V+Z.{+) ) ) ) ) W+, > + + + + + + + + + + . ",
". + + + + + + + + + X+0 ) = * & % $ + + + + + + + + + + + + + . ",
". + + + + + + + + + + # Y+@ + + + + + + + + + + + + + + + + + . ",
". + + + + + + + + + + + + + + + + + + + + + + + + + + + + + + . ",
". + + + + + + + + + + + + + + + + + + + + + + + + + + + + + + . ",
". . . . . . . . . . . . . . . . . . . . . . . . . . . . . . . . "};
