/* XPM */
static const char *addCol_xpm[]={
"15 16 5 1",
". c None",
"# c #000000",
"a c #0018f0",
"b c #ff0000",
"c c #ffffff",
"...............",
".......######..",
".......#aaaa#..",
".......#aaaa#..",
".......######..",
"..b....#cccc#..",
"..b....######..",
"bbbbb..#cccc#..",
"..b....######..",
"..b....#cccc#..",
".......######..",
".......#cccc#..",
".......######..",
".......#cccc#..",
".......######..",
"..............."};
