/* XPM */
static const char * area_xpm[] = {
"16 16 4 1",
" 	c #000000",
".	c #FFFFFF",
"+	c #00FF00",
"@	c #FF0000",
"                ",
" .............. ",
" .............. ",
" .............. ",
" ...++....+++.. ",
" ..+++++.+++++. ",
" .+++++@@@@++++ ",
" @@+++@@@@@@++@ ",
" @@@@@@@@  @@@@ ",
" @@  @@@    @@@ ",
" @    @      @@ ",
"                ",
"                ",
"                ",
"                ",
"                "};
