/* XPM */
static const char *arrow_xpm[]={
"19 19 2 1",
". c None",
"# c #000000",
"...................",
"...................",
"...................",
"...................",
".........######....",
"..........#####....",
"...........####....",
"...........####....",
"..........##.##....",
".........##...#....",
"........##.........",
".......##..........",
"......##...........",
".....##............",
"....##.............",
"....#..............",
"...................",
"...................",
"..................."};
