/* XPM */
static const char* const bottom_scl_xpm[] = {
"36 38 75 1",
" 	c None",
".	c #FFFFFF",
"+	c #818181",
"@	c #070707",
"#	c #101010",
"$	c #EEEEEE",
"%	c #1D1D1D",
"&	c #ACACAC",
"*	c #151515",
"=	c #121212",
"-	c #929292",
";	c #242424",
">	c #D5D5D5",
",	c #C9C9C9",
"'	c #2A2A2A",
")	c #5E5E5E",
"!	c #000000",
"~	c #C8C8C8",
"{	c #D2D2D2",
"]	c #090909",
"^	c #060606",
"/	c #FEFEFE",
"(	c #FCFCFC",
"_	c #F7F7F7",
":	c #CECECE",
"<	c #444444",
"[	c #E0E0E0",
"}	c #464646",
"|	c #E8E8E8",
"1	c #282828",
"2	c #D3D3D3",
"3	c #D1D1D1",
"4	c #A4A4A4",
"5	c #484848",
"6	c #EBEBEB",
"7	c #7D7D7D",
"8	c #050505",
"9	c #7F7F7F",
"0	c #FDFDFD",
"a	c #7D6F6F",
"b	c #F38C82",
"c	c #E71E09",
"d	c #E82612",
"e	c #FDEFEE",
"f	c #E9321F",
"g	c #F7B3AC",
"h	c #E82B17",
"i	c #E82814",
"j	c #F49C93",
"k	c #EA3826",
"l	c #FBD8D5",
"m	c #F9CEC9",
"n	c #EA3E2C",
"o	c #EF6D5F",
"p	c #E71803",
"q	c #F9CDC8",
"r	c #FAD6D2",
"s	c #E7200B",
"t	c #E71D08",
"u	c #FEFCFC",
"v	c #FEF7F7",
"w	c #FAD2CE",
"x	c #ED5546",
"y	c #FCE2E0",
"z	c #ED5748",
"A	c #FCEAE8",
"B	c #EA3C2A",
"C	c #FAD7D3",
"D	c #FAD5D1",
"E	c #F6ACA5",
"F	c #ED594A",
"G	c #FDECEB",
"H	c #F2897E",
"I	c #E71C07",
"J	c #F28B80",
"....................................",
"......+@#+......$%......&*=-........",
"......;>,'......)!......%~{]........",
"......^/(^......_!........:<........",
"......^((^.......!.......[}|........",
"......123;.......!......456.........",
"......78^9.......!......*!!!........",
"+@#+................................",
";>,'...(!0.......!.......!.....+@#+.",
"^/(^...!!!!!!!!!!!!!!!!!!!!!!..;>,'.",
"^((^...!aaaaaaaaaaaaaaaaaaaa!..^/(^.",
"123;..!!aaaaaaaaaaaaaaaaaaaa!!.^((^.",
"78^9...!aaaaaaaaaaaaaaaaaaaa!..123;.",
".......!aaaaaaaaaaaaaaaaaaaa!..78^9.",
".......!aaaaaaaaaaaaaaaaaaaa!.......",
"$%.....!aaaaaaaaaaaaaaaaaaaa!.......",
")!.....!aaaaaaaaaaaaaaaaaaaa!..$%...",
"_!.....!aaaaaaaaaaaaaaaaaaaa!..)!...",
".!....!!aaaaaaaaaaaaaaaaaaaa!!._!...",
".!.....!aaaaaaaaaaaaaaaaaaaa!...!...",
".!.....!aaaaaaaaaaaaaaaaaaaa!...!...",
".......!aaaaaaaaaaaaaaaaaaaa!...!...",
"&*=-...!aaaaaaaaaaaaaaaaaaaa!.......",
"%~{]...!aaaaaaaaaaaaaaaaaaaa!..&*=-.",
"..:<...!aaaaaaaaaaaaaaaaaaaa!..%~{].",
".[}|..!!aaaaaaaaaaaaaaaaaaaa!!...:<.",
"456....!aaaaaaaaaaaaaaaaaaaa!...[}|.",
"*!!!...!aaaaaaaaaaaaaaaaaaaa!..456..",
".......!!!!!!!!!!!!!!!!!!!!!!..*!!!.",
".........!........!.......!.........",
"....................................",
"........bcdb.....ef......ghij.......",
"........klmn.....op......fqrs.......",
"........t/ut.....vp........wx.......",
"........tuut......p.......yzA.......",
"........BCDk......p......EFG........",
"........HItJ......p......hppp.......",
"...................................."};
