/* XPM */
static const char * boxPlot_xpm[] = {
"16 16 2 1",
" 	c None",
".	c #1F0E77",
"                ",
"                ",
"    .......     ",
"       .        ",
"       .        ",
" .............. ",
" .            . ",
" .            . ",
" .            . ",
" .............. ",
" .            . ",
" .............. ",
"       .        ",
"       .        ",
"    .......     ",
"                "};
