/* XPM */
static const char * clock_xpm[] = {
"17 17 57 1",
" 	c None",
".	c #808080",
"+	c #FFFFFF",
"@	c #DDDDAC",
"#	c #C8C8A8",
"$	c #000000",
"%	c #000080",
"&	c #B8B8A6",
"*	c #ACACA5",
"=	c #F4F4AF",
"-	c #EFEFAE",
";	c #EAEAAD",
">	c #E0E0AC",
",	c #DBDBAB",
"'	c #D6D6AA",
")	c #E4E4AC",
"!	c #DFDFAB",
"~	c #D2D2A9",
"{	c #CECEA9",
"]	c #CACAA8",
"^	c #E5E5AD",
"/	c #DADAAB",
"(	c #D5D5AA",
"_	c #CDCDA9",
":	c #C7C7A8",
"<	c #C4C4A7",
"[	c #E1E1AC",
"}	c #D0D0A9",
"|	c #C3C3A7",
"1	c #C1C1A7",
"2	c #BDBDA6",
"3	c #BBBBA6",
"4	c #D7D7AB",
"5	c #D1D1AA",
"6	c #CBCBA9",
"7	c #C6C6A8",
"8	c #C0C0A7",
"9	c #B6B6A6",
"0	c #BBBBA7",
"a	c #BABAA6",
"b	c #B9B9A6",
"c	c #B7B7A6",
"d	c #BEBEA7",
"e	c #B4B4A6",
"f	c #B3B3A5",
"g	c #B2B2A5",
"h	c #B1B1A5",
"i	c #B0B0A5",
"j	c #B5B5A6",
"k	c #ADADA5",
"l	c #ABABA5",
"m	c #ADADA4",
"n	c #A9A9A4",
"o	c #A6A6A4",
"p	c #A5A5A4",
"q	c #A3A3A4",
"r	c #A0A0A4",
"      .....      ",
"    ..+++++..    ",
"   .++@#$@#++.   ",
"  .+#%&$$$*%@+$  ",
" .+&*=-;$>,'&*+$ ",
" .+%-;)!$'~{]%+$ ",
".+@#^>/($_]:<@#+$",
".+&[,(}]$|1$23*+$",
".+%45678$$$$$9%+$",
".+@456780ab$c9#+$",
".+&*#|dbefghi&*+$",
" .+%dajhk**ll%+$ ",
" .+@#hmnoppp@#+$ ",
"  .+*%@qrr#%&+$  ",
"  .$++&*%&*++$   ",
"    $$+++++$$    ",
"      $$$$$      "};
