/* XPM */
static const char *close_xpm[] = {
"13 15 26 1",
" 	c None",
".	c #8A9BA7",
"+	c #718D96",
"@	c #667987",
"#	c #576876",
"$	c #A6A6A4",
"%	c #535A62",
"&	c #42454A",
"*	c #878787",
"=	c #F4F3F5",
"-	c #E6EFF8",
";	c #DBE6F2",
">	c #D7DEEC",
",	c #C2D4E6",
"'	c #B8CCE9",
")	c #B0BBE3",
"!	c #97A5DA",
"~	c #333333",
"{	c #D8D8DA",
"]	c #B7C0CC",
"^	c #C4C8C1",
"/	c #CADAE8",
"(	c #98B6DF",
"_	c #A0A8BF",
":	c #96A6AF",
"<	c #CCD2D6",
"    .+@#     ",
"$#@+.+@#%%&* ",
"%=-;>,'))!!~{",
"%#@+.+@#%%&~]",
"^#=->/')(!&.]",
" #=+>_:)@!&] ",
" #=@>::)@!&] ",
" #=@>::)@!&] ",
" #=@>::)@!&] ",
" #=@>::)@!&] ",
" #=@>::)@!&] ",
" #=+>_:)@!&] ",
" #=->/')(!&] ",
" .@+.+@#%%@] ",
"  <]]]]]]]]< "};
