/* XPM */
static const char * color_map_xpm[] = {
"16 15 6 1",
" 	c None",
".	c #000000",
"+	c #00FF00",
"@	c #0000FF",
"#	c #FFFF00",
"$	c #FF0000",
".+  +@  @+  +@  ",
".+++++@@++++++@@",
".+##++++++##++++",
".#$$#+  +#$$#+  ",
".#$$#+  +#$$#+  ",
".+##++++++##++++",
".+++++@@++++++@@",
".+  +@  @+  +@  ",
".+  +@  @+  +@  ",
".+++++@@++++++@@",
".+##++++++##++++",
".#$$#+  +#$$#+  ",
".#$$#+  +#$$#+  ",
".+##++++++##++++",
"................"};
