/* XPM */
static const char * cones_xpm[] = {
"19 20 9 1",
" 	c None",
".	c #FFFFFF",
"+	c #EFEBEF",
"@	c #FFF7FF",
"#	c #087249",
"$	c #FFFBFF",
"%	c #EFEFEF",
"&	c #EFE7EF",
"*	c #E7E3E7",
"                   ",
"          ..       ",
"          ...+     ",
"         .@..@.    ",
"        .#####..   ",
"       .$.###%..   ",
"      ..+&.#.*...  ",
"     #####.......  ",
"      ###...#####  ",
"     ..#.....###.  ",
"    ..$......$#..  ",
"    ..+.#####.@..  ",
"  #####..###...... ",
"   ###...+#$.##### ",
"   .#.........###. ",
"   $...........#.. ",
"  #####............",
"  @###.....#####...",
"    #.......###.   ",
"             #     "};
