/* XPM */
static char * config_curves_xpm[] = {
"32 32 235 2",
"  	c None",
". 	c #000000",
"+ 	c #FFFFFF",
"@ 	c #FEFEFE",
"# 	c #FDFDFD",
"$ 	c #FCFCFC",
"% 	c #FBFBFB",
"& 	c #FF00FF",
"* 	c #D000D0",
"= 	c #A100A1",
"- 	c #808080",
"; 	c #FAFAFA",
"> 	c #F9F9F9",
", 	c #F8F8F8",
"' 	c #F900F9",
") 	c #C900C9",
"! 	c #9F009F",
"~ 	c #F9F9FA",
"{ 	c #F8F8F9",
"] 	c #F7F7F8",
"^ 	c #F7F7F7",
"/ 	c #F6F6F7",
"( 	c #F5F5F6",
"_ 	c #F4F4F5",
": 	c #F400F4",
"< 	c #C200C2",
"[ 	c #9E009E",
"} 	c #F6F6F6",
"| 	c #F5F5F5",
"1 	c #F4F4F4",
"2 	c #F3F3F3",
"3 	c #F2F2F2",
"4 	c #F1F1F1",
"5 	c #EF00EF",
"6 	c #BC00BC",
"7 	c #9C009C",
"8 	c #F3F3F4",
"9 	c #F0F0F1",
"0 	c #EFEFF0",
"a 	c #EEEEEF",
"b 	c #EDEDEE",
"c 	c #E900E9",
"d 	c #B500B5",
"e 	c #9B009B",
"f 	c #F1F1F2",
"g 	c #F0F0F0",
"h 	c #EDEDED",
"i 	c #EBEBEC",
"j 	c #EAEAEB",
"k 	c #FAFAFB",
"l 	c #FBFBFC",
"m 	c #E400E4",
"n 	c #AE00AE",
"o 	c #990099",
"p 	c #ECECEC",
"q 	c #E8E8E9",
"r 	c #E7E7E8",
"s 	c #DF00DF",
"t 	c #A800A8",
"u 	c #980098",
"v 	c #EFEFEF",
"w 	c #EBEBEB",
"x 	c #E9E9E9",
"y 	c #E7E7E7",
"z 	c #E5E5E5",
"A 	c #E3E3E4",
"B 	c #0000FF",
"C 	c #0000D0",
"D 	c #0000A1",
"E 	c #D900D9",
"F 	c #970097",
"G 	c #E6E6E7",
"H 	c #E4E4E5",
"I 	c #E2E2E3",
"J 	c #E0E0E1",
"K 	c #0000F7",
"L 	c #0000C7",
"M 	c #00009F",
"N 	c #D400D4",
"O 	c #9A009A",
"P 	c #950095",
"Q 	c #E3E3E5",
"R 	c #E1E1E2",
"S 	c #DEDEE0",
"T 	c #DCDCDE",
"U 	c #0000F0",
"V 	c #0000BE",
"W 	c #00009D",
"X 	c #CF00CF",
"Y 	c #940094",
"Z 	c #E1E1E1",
"` 	c #DEDEDF",
" .	c #DBDBDC",
"..	c #D9D9DA",
"+.	c #0000E9",
"@.	c #0000B5",
"#.	c #00009B",
"$.	c #8D008D",
"%.	c #920092",
"&.	c #D8D8D9",
"*.	c #D5D5D7",
"=.	c #F2F2F3",
"-.	c #0000E2",
";.	c #0000AC",
">.	c #000099",
",.	c #C400C4",
"'.	c #860086",
").	c #910091",
"!.	c #E5E5E6",
"~.	c #DBDBDD",
"{.	c #D8D8DA",
"].	c #D2D2D4",
"^.	c #0000DB",
"/.	c #0000A3",
"(.	c #000097",
"_.	c #BF00BF",
":.	c #800080",
"<.	c #900090",
"[.	c #CFCFD1",
"}.	c #0000D4",
"|.	c #00009A",
"1.	c #000095",
"2.	c #00FF00",
"3.	c #00D000",
"4.	c #00A100",
"5.	c #0000CD",
"6.	c #000091",
"7.	c #000093",
"8.	c #B900B9",
"9.	c #8E008E",
"0.	c #DFDFE0",
"a.	c #D5D5D6",
"b.	c #D1D1D3",
"c.	c #CECED0",
"d.	c #CBCBCD",
"e.	c #00F200",
"f.	c #00C000",
"g.	c #009D00",
"h.	c #0000C6",
"i.	c #000088",
"j.	c #B400B4",
"k.	c #C8C8CA",
"l.	c #00E500",
"m.	c #00B000",
"n.	c #009A00",
"o.	c #0000BF",
"p.	c #000080",
"q.	c #000090",
"r.	c #AF00AF",
"s.	c #8C008C",
"t.	c #D7D7D9",
"u.	c #D4D4D6",
"v.	c #CDCDD0",
"w.	c #CACACD",
"x.	c #C7C7CA",
"y.	c #C4C4C7",
"z.	c #00D800",
"A.	c #00A000",
"B.	c #009600",
"C.	c #0000B8",
"D.	c #00008E",
"E.	c #AA00AA",
"F.	c #8A008A",
"G.	c #C1C1C4",
"H.	c #00CB00",
"I.	c #009000",
"J.	c #009300",
"K.	c #0000B1",
"L.	c #00008C",
"M.	c #E9E9EA",
"N.	c #A400A4",
"O.	c #890089",
"P.	c #D3D3D5",
"Q.	c #FF0000",
"R.	c #D00000",
"S.	c #A10000",
"T.	c #BEBEC0",
"U.	c #ECECED",
"V.	c #00BF00",
"W.	c #008000",
"X.	c #0000AA",
"Y.	c #00008A",
"Z.	c #880088",
"`.	c #E90000",
" +	c #B50000",
".+	c #9B0000",
"++	c #BABABD",
"@+	c #CCCCCE",
"#+	c #D40000",
"$+	c #9A0000",
"%+	c #950000",
"&+	c #B7B7BA",
"*+	c #00B200",
"=+	c #008C00",
"-+	c #00009C",
";+	c #000087",
">+	c #DCDCDD",
",+	c #850085",
"'+	c #BF0000",
")+	c #800000",
"!+	c #900000",
"~+	c #B4B4B7",
"{+	c #00A500",
"]+	c #008900",
"^+	c #000085",
"/+	c #8F008F",
"(+	c #840084",
"_+	c #C4C4C6",
":+	c #B0B0B4",
"<+	c #009900",
"[+	c #008600",
"}+	c #000083",
"|+	c #D4D4D5",
"1+	c #820082",
"2+	c #C0C0C2",
"3+	c #AA0000",
"4+	c #8A0000",
"5+	c #ADADB0",
"6+	c #008300",
"7+	c #000081",
"8+	c #810081",
"9+	c #BCBCBF",
"0+	c #850000",
"a+	c #AAAAAD",
"b+	c #B8B8BB",
"c+	c #A6A6AA",
"d+	c #D6D6D8",
"e+	c #C7C7C9",
"f+	c #B5B5B8",
"g+	c #A3A3A7",
"h+	c #D2D2D3",
"i+	c #C3C3C5",
"j+	c #B1B1B4",
"k+	c #AFAFB2",
"l+	c #A0A0A4",
". . . . . . . . . . . . . . . . . . . . . . . . . . . . . . . . ",
". + + + + + + + + + + + + + + + + + + + + + + + + + + + + + + . ",
". @ @ @ @ @ @ @ @ @ @ @ @ @ @ @ + . . . . . # # $ $ $ % % % % . ",
". # # # # # # # # @ @ @ @ @ @ @ + . & * = . - % % ; ; > > , , . ",
". $ $ $ $ $ $ # # # # # @ @ @ @ + . ' ) ! . - ~ { ] ^ / ( _ _ . ",
". % % % % % $ $ $ # # # # @ @ @ + . : < [ . - , ^ } | 1 2 3 4 . ",
". ; ; ; ; % % % $ $ $ # # # @ @ + . 5 6 7 . - } _ 8 3 9 0 a b . ",
". > > > > ; ; % % $ $ $ # # @ @ + . c d e . - _ 2 f g a h i j . ",
". { { { > ~ ; k % l $ $ # # @ @ + . m n o . - 2 4 0 b p j q r . ",
". ] ] ] { { ~ ~ k % . . . . . @ + . s t u . - 4 v h w x y z A . ",
". / / / ] ] { > ~ k . B C D . - + . E = F . - 0 h w q G H I J . ",
". ( ( ( / ^ ] { > ; . K L M . - + . N O P . - b i q G Q R S T . ",
". _ _ _ ( / ^ ] { ~ . U V W . - + . X Y Y . - p x G A Z `  .... ",
". 8 8 8 _ ( / ^ , > . +.@.#.. - + . ) $.%.. - j r H R `  .&.*.. ",
". =.=.=.8 _ ( / ] { . -.;.>.. - + . ,.'.).. - q !.I S ~.{.*.].. ",
". =.=.=.8 _ ( / ] { . ^./.(.. - + . _.:.<.. - r A J T ..*.].[.. ",
". =.=.. . . . . ] { . }.|.1.. - + . _.:.<.. - r A J T ..*.].[.. ",
". f f . 2.3.4.. - ( . 5.6.7.. - ; . 8.:.9.. - I 0.~.&.a.b.c.d.. ",
". 9 9 . e.f.g.. - 2 . h.i.6.. - } . j.:.$.. - 0. .&.a.b.c.d.k.. ",
". 0 0 . l.m.n.. - 9 . o.p.q.. - 3 . r.:.s.. -  .t.u.b.v.w.x.y.. ",
". a a . z.A.B.. - b . C.p.D.. - b . E.:.F.. - t.. . . . . y.G.. ",
". b b . H.I.J.. - i . K.p.L.. - M.. N.:.O.. - P.. Q.R.S.. - T.. ",
". U.U.. V.W.I.. - q . X.p.Y.. - !.. ! :.Z.. - [.. `. +.+. - ++. ",
". U.U.. V.W.I.. - G . /.p.i.. - R . O :.'.. - @+. #+$+%+. - &+. ",
". i i . *+W.=+. - A . -+p.;+. - >+. P :.,+. - k.. '+)+!+. - ~+. ",
". j j . {+W.]+. - R . 1.p.^+. - &.. /+:.(+. - _+. '+)+!+. - :+. ",
". M.M.. <+W.[+. - ` . D.p.}+. - |+. F.:.1+. - 2+. 3+)+4+. - 5+. ",
". q q . =+W.6+. - ~.. ;+p.7+. - [.. ,+:.8+. - 9+. %+)+0+. - a+. ",
". r r . W.W.W.. - ... p.p.p.. - d.. :.:.:.. - b+. )+)+)+. - c+. ",
". G G . . . . . - d+. . . . . - e+. . . . . - f+. . . . . - g+. ",
". G G A - - - - - u.h+- - - - - i+2+- - - - - j+k+- - - - - l+. ",
". . . . . . . . . . . . . . . . . . . . . . . . . . . . . . . . "};
