/* XPM */
static const char * configTable_xpm[] = {
"32 32 99 2",
"  	c None",
". 	c #B9B8A7",
"+ 	c #B49581",
"@ 	c #AF8875",
"# 	c #B08976",
"$ 	c #B08A77",
"% 	c #B18B77",
"& 	c #B18D78",
"* 	c #B28E79",
"= 	c #B28F79",
"- 	c #B3907A",
"; 	c #B3917A",
"> 	c #B4927B",
", 	c #B4937C",
"' 	c #B5957C",
") 	c #B5967D",
"! 	c #B6977E",
"~ 	c #B6987E",
"{ 	c #B7997F",
"] 	c #B79B80",
"^ 	c #B79C80",
"/ 	c #B89D81",
"( 	c #B99E82",
"_ 	c #B99F82",
": 	c #BAA083",
"< 	c #BAA183",
"[ 	c #BAA384",
"} 	c #BBA485",
"| 	c #BBA585",
"1 	c #BCA686",
"2 	c #BCA787",
"3 	c #BDA887",
"4 	c #2B2B2B",
"5 	c #932E1A",
"6 	c #943E2D",
"7 	c #90302A",
"8 	c #14148F",
"9 	c #77352E",
"0 	c #CAC7B0",
"a 	c #C2BFA5",
"b 	c #B9B7A2",
"c 	c #999682",
"d 	c #888674",
"e 	c #555555",
"f 	c #ECEBE2",
"g 	c #999887",
"h 	c #6A6855",
"i 	c #45443B",
"j 	c #9E9B86",
"k 	c #AFAD99",
"l 	c #8C8A77",
"m 	c #8F8D7E",
"n 	c #553D3D",
"o 	c #735B5B",
"p 	c #735C5B",
"q 	c #96937D",
"r 	c #8B886E",
"s 	c #F0F0E8",
"t 	c #D9D7C7",
"u 	c #BCB9A0",
"v 	c #95927E",
"w 	c #A09D88",
"x 	c #A2A08B",
"y 	c #CCCAB3",
"z 	c #CBC8B1",
"A 	c #CDCBB8",
"B 	c #E0DFD1",
"C 	c #DCDACB",
"D 	c #B6B5A9",
"E 	c #686653",
"F 	c #FFFFFF",
"G 	c #F8F7F4",
"H 	c #E8E7DA",
"I 	c #EBE9DD",
"J 	c #E9E7DB",
"K 	c #EAE9DD",
"L 	c #E9E8DB",
"M 	c #EAE9DC",
"N 	c #E9E8DC",
"O 	c #EAE8DC",
"P 	c #F7F6F2",
"Q 	c #EEEEE6",
"R 	c #E0DFD2",
"S 	c #EAE9E0",
"T 	c #C9C6AF",
"U 	c #E8E7DD",
"V 	c #B6B39A",
"W 	c #C1BEA5",
"X 	c #DFDED3",
"Y 	c #A8A487",
"Z 	c #B9B6A0",
"` 	c #D3D1BA",
" .	c #CFCDB5",
"..	c #D3D1C2",
"+.	c #E6E4D5",
"@.	c #DCDACA",
"#.	c #C0BEAF",
"$.	c #9A9889",
"%.	c #AAA797",
". . . . . . . . . . . . . . . . . . . . . . . . . . . . . . . . ",
". + @ # $ % & * = - ; > , ' ) ! ~ { ] ^ / ( _ : < [ } | 1 2 3 4 ",
". 5 5 5 5 5 5 5 5 5 5 5 5 5 5 5 5 5 5 6 6 6 6 6 6 6 6 6 6 6 6 4 ",
". 7 8 8 8 9 5 5 5 5 5 5 5 5 5 5 5 5 5 0 a a 6 4 4 4 6 b c d 6 4 ",
". 7 e f f 9 5 5 5 5 5 5 5 5 5 5 5 5 5 0 a a 6 g a h 6 0 i j 6 4 ",
". 7 e f f 9 5 5 5 5 5 5 5 5 5 5 5 5 5 k 4 l 6 m a h 6 b 4 4 6 4 ",
". 7 n o p 9 5 5 5 5 5 5 5 5 5 5 5 5 5 h h h 6 h h h 6 q r r 6 4 ",
". 5 5 5 5 5 5 5 5 5 5 5 5 5 5 6 6 6 6 6 6 6 6 6 6 6 6 6 6 6 6 4 ",
". 4 4 4 4 4 4 4 4 4 4 4 4 4 4 4 4 4 4 4 4 4 4 4 4 4 4 4 4 4 4 4 ",
". 4 s s s s t a a a a a h 4 a a a a a a h 4 a a a a a 0 u a h 4 ",
". 4 s s s s t a a a a a h 4 a a a a a a h 4 a a a a a 0 4 4 h 4 ",
". 4 s s s s t a a a a a h 4 a a a a a a h 4 a a a a a 0 v w h 4 ",
". 4 s s s s t a a a a a h 4 a a a a a a h 4 a a a a a x 4 4 h 4 ",
". 4 s s s s t a a a a a h 4 a a a a a a h 4 a a a a a y z z h 4 ",
". 4 s s s s A h h h h h h 4 h h h h h h h 4 a a a a a 0 a a h 4 ",
". 4 B B B C 4 4 4 4 4 4 4 4 4 4 4 4 4 4 4 4 f f f f f D 4 4 E 4 ",
". 4 a a a h 4 F F F F F F 4 F F F F F F F 4 F F F F F G s s H 4 ",
". 4 a a a h 4 F F F F F F 4 F F F F F F F 4 F F F F F G s s I 4 ",
". 4 a a a h 4 F F F F F F 4 F F F F F F F 4 F F F F F G s s J 4 ",
". 4 a a a h 4 F F F F F F 4 F F F F F F F 4 F F F F F G s s K 4 ",
". 4 a a a h 4 F F F F F F 4 F F F F F F F 4 F F F F F G s s L 4 ",
". 4 h h h h 4 F F F F F F 4 F F F F F F F 4 F F F F F G s s M 4 ",
". 4 4 4 4 4 4 4 4 4 4 4 4 4 4 4 4 4 4 4 4 4 F F F F F G s f N 4 ",
". 4 a a a h 4 F F F F F F 4 F F F F F F F 4 F F F F F G s s O 4 ",
". 4 a a a h 4 F F F F F F 4 F F F F F F F 4 F F F F F G s s O 4 ",
". 4 a a a h 4 F F F F F F 4 F F F F F F F 4 F F F F F P Q Q R 4 ",
". 4 a a a h 4 F F F F F F 4 F F F F F F F 4 F F F F F S T T h 4 ",
". 4 h h h h 4 F F F F F F 4 F F F F F F F 4 F F F F F U 4 4 h 4 ",
". 4 4 4 4 4 4 4 4 4 4 4 4 4 4 4 4 4 4 4 4 4 F F F F F U c V h 4 ",
". 4 z z z W 4 F F F F F F 4 F F F F F F F 4 F F F F F X Y Y h 4 ",
". Z ` ` `  ...+.+.+.+.+.+.+.+.+.+.+.+.+.+.@.+.+.+.+.+.#.$.$.%.4 ",
"4 4 4 4 4 4 4 4 4 4 4 4 4 4 4 4 4 4 4 4 4 4 4 4 4 4 4 4 4 4 4 4 "};
