/* XPM */
static const char * contour_map_xpm[] = {
"16 15 3 1",
" 	c None",
".	c #000000",
"+	c #FFFFFF",
".+++++++.+++++++",
".+....++.++....+",
"..++++.+.+.++++.",
"..+..+.+.+.+..+.",
"..+..+.+.+.+..+.",
"..++++.+.+.++++.",
".+....++.++....+",
".++++++.+.++++++",
".......+++......",
".++++++.+.++++++",
".+....++.++....+",
"..++++.+.+.++++.",
"..+..+.+.+.+..+.",
"..+..+.+.+.+..+.",
"................"};
