/* XPM */
static const char * crosses_xpm[] = {
"19 20 11 1",
" 	c None",
".	c #FFFFFF",
"+	c #EFEBEF",
"@	c #FFF7FF",
"#	c #A40A0A",
"$	c #FFFBFF",
"%	c #EFEFEF",
"&	c #EFE7EF",
"*	c #E7E3E7",
"=	c #E7E7E7",
"-	c #F7EFF7",
"                   ",
"          ..       ",
"          ...+     ",
"         .@#.@.    ",
"        ..###+..   ",
"       .$..#.%..   ",
"      .#+&...*...  ",
"      ###=#...#..  ",
"      .#.###.###   ",
"     .....#...#..  ",
"    ..$...#..$...  ",
"    #.+..###..@..  ",
"   ###....#$....#. ",
"   .#..#.+.$#..### ",
"   .-.###..###..#. ",
"   $...#....#..... ",
"  .-#............#.",
"  @###...#...#..###",
"    #...###.###. # ",
"        .#   #.    "};
