/* XPM */
static const char * cursors_xpm[] = {
"16 16 8 1",
" 	c None",
".	c #D51309",
"+	c #010000",
"@	c #030003",
"#	c #28DAC6",
"$	c #F90C02",
"%	c #000002",
"&	c #00000E",
"         ..     ",
"         ..     ",
"         ..     ",
"    ++   ..     ",
"    @@   ..     ",
"  .......##.....",
"  .......##..$..",
"    +@   ..     ",
"    @@   ..     ",
"+++++%+++..@    ",
"+++&+@+++..@    ",
"    ++   ..     ",
"    ++   ..     ",
"    ++   ..     ",
"    ++          ",
"    ++          "};
