/* XPM */
static char * curves_xpm[] = {
"15 15 6 1",
" 	c None",
".	c #000000",
"+	c #666666",
"@	c #F63308",
"#	c #549C46",
"$	c #040404",
" .  +    +     ",
"..  +   +      ",
" .+++++ + +++++",
" .  +  +       ",
" .  +  +       ",
"..             ",
" . @@@@        ",
" .     @@@@    ",
" .         @@@@",
".. ####        ",
" .     ####    ",
" .         ####",
" .             ",
"$..............",
" $   .   .   . "};
