/* XPM */
static const char *cut_xpm[]={
"18 18 3 1",
". c None",
"# c #000000",
"a c #00007f",
"..................",
"..................",
"..................",
".......#...#......",
".......#...#......",
".......#...#......",
".......##.##......",
"........#.#.......",
"........###.......",
".........#........",
"........a#a.......",
"........a.aaa.....",
"......aaa.a..a....",
".....a..a.a..a....",
".....a..a.a..a....",
".....a..a..aa.....",
"......aa..........",
".................."};
