/* XPM */
static const char * duplicate_xpm[] = {
"14 14 4 1",
" 	c None",
".	c #000000",
"+	c #0000FF",
"@	c #C6C4C4",
"..............",
".++++++++++++.",
".@@@@@@@@@@@@.",
".@@@@@@@@@@@@.",
".@@@@@@@@@@@@.",
"..............",
"              ",
"              ",
"..............",
".++++++++++++.",
".@@@@@@@@@@@@.",
".@@@@@@@@@@@@.",
".@@@@@@@@@@@@.",
".............."};
