/* XPM */
static const char *erase_xpm[]={
"29 28 256 2",
"Qt c None",
"aC c #000000",
".x c #000009",
"an c #000200",
"bt c #000300",
"#d c #000309",
"#W c #000400",
"b. c #00070d",
"#X c #00070f",
".0 c #000717",
"aV c #000803",
".l c #000a00",
"ao c #000e00",
".c c #00120f",
"#b c #00121e",
".h c #001308",
".X c #001b06",
".J c #001c00",
".e c #010007",
"bD c #010101",
"#I c #011412",
"bQ c #020202",
"aA c #030000",
"bZ c #040404",
".w c #040c0f",
"bk c #050505",
"bh c #060000",
"#e c #060002",
"ab c #070614",
"bL c #070707",
"aa c #070e06",
"#s c #0b0000",
"bW c #0b0b0b",
"aB c #0c130b",
".M c #0e0000",
".g c #0e0007",
"#a c #0f0000",
"bl c #0f0004",
"a9 c #0f0f0f",
"a3 c #10030a",
"aP c #10050d",
".L c #110015",
"b8 c #111111",
"bN c #131313",
"#c c #160e01",
"#t c #170700",
".y c #181d07",
".k c #190000",
".b c #190002",
".1 c #190c13",
".i c #1b0000",
".f c #1b0a12",
".j c #24081e",
".# c #25000e",
"aF c #260000",
".a c #290019",
".d c #38000b",
"bM c #6a6a6a",
"aE c #797979",
"bX c #7a7a7a",
"bj c #7b7b7b",
"bA c #7e7e7e",
"b9 c #7f7f7f",
"bH c #828282",
"az c #83767d",
"aD c #838383",
"bG c #898989",
"bz c #8d8d8d",
"bY c #969696",
"bU c #a7a7a7",
"#Q c #aa2b34",
"bS c #ababab",
"b3 c #b3b3b3",
"b7 c #b5b5b5",
"b4 c #bcbcbc",
"b1 c #c0c0c0",
"b0 c #c3c3c3",
"bR c #c8c8c8",
"bV c #c9c9c9",
"b6 c #cacaca",
"b5 c #cccccc",
"b2 c #cecece",
".S c #d51c17",
"bT c #d5d5d5",
"#L c #d5fff4",
"a2 c #d6f7ee",
"#w c #dc0419",
".G c #ddfff1",
"ax c #def7f3",
".s c #dffff3",
"aI c #e1f4d6",
".I c #e3f1f4",
"#P c #e3ffec",
"bO c #e4e4e4",
".N c #e4ffff",
"aH c #e5000d",
"#H c #e5dbdc",
"#r c #e5ffff",
".O c #e70000",
"#n c #e7ffea",
".r c #e7fffa",
"#Y c #e7fffd",
"bm c #e7ffff",
"#y c #e80014",
"bJ c #e8e8e8",
"aw c #e8fdf6",
"ar c #e8feff",
".A c #e9f8fd",
"bc c #e9fce0",
"ae c #e9ffec",
"#A c #ea001d",
"#3 c #eafdfb",
"#l c #eaffe8",
"a0 c #eafff8",
"a1 c #eaffff",
"b# c #ebf1ff",
"#m c #ebfff5",
"ai c #ebfffd",
"bd c #ebffff",
"a5 c #eceaeb",
".5 c #edfce7",
".V c #edfffd",
"aj c #edffff",
".2 c #eeeff4",
"ba c #eefdea",
".t c #eeffdf",
"#1 c #eefff8",
"#F c #eefffc",
"as c #ef0b0c",
"a8 c #efefef",
".B c #f01a00",
".R c #f0ffff",
".H c #f10018",
"aR c #f1f3f0",
"#f c #f1fffa",
"#8 c #f1ffff",
"#T c #f2f3f7",
"bv c #f2f9f1",
".3 c #f2fff6",
"a4 c #f3eaef",
"aN c #f4f5f9",
".E c #f4fff4",
"#Z c #f4ffff",
"#E c #f5f6f1",
"a7 c #f5fbf7",
"bb c #f5fbff",
".n c #f5fffd",
"ag c #f5ffff",
"bF c #f6f6f6",
".4 c #f6fafb",
"aS c #f6fff9",
"bK c #f7f7f7",
"aM c #f7fff3",
"#q c #f7fff5",
"av c #f7fffc",
"#C c #f80243",
"a# c #f8f2f2",
"bI c #f8f8f8",
"#9 c #f8fcff",
".8 c #f8fdf9",
"bw c #f8fefa",
"aG c #f8ffea",
".K c #f8fff6",
"bp c #f8fffb",
"#S c #f8fffd",
".u c #f8ffff",
".U c #f9002d",
"#J c #f9f4f8",
"bP c #f9f9f9",
"ak c #f9faff",
"ah c #f9fdff",
"#7 c #f9fff8",
"aX c #f9fffd",
".z c #fa000c",
"aU c #fafafa",
"#v c #fafee3",
"#u c #fb002c",
"aJ c #fb0e2a",
"#k c #fbeded",
"ay c #fbf6fd",
"bB c #fbfbfb",
"#4 c #fbffff",
"#O c #fc0013",
"aq c #fc0f00",
"bC c #fcfcfc",
".P c #fcfdff",
"bu c #fcfffa",
"aO c #fcffff",
".7 c #fdfdf3",
"#p c #fdfeff",
".D c #fe0100",
"#0 c #fef1de",
"#g c #fef8f8",
"aW c #fef9f5",
"bE c #fefefe",
"a6 c #fefffd",
"ap c #ff011c",
".F c #ff0227",
".W c #ff0233",
"#M c #ff0800",
".Q c #ff1106",
"#K c #ff1117",
"#5 c #ffdbda",
"aZ c #ffdff1",
"## c #ffe0f8",
"ad c #ffe1f4",
".9 c #ffe7e5",
"#R c #ffe7e6",
".T c #ffe7ed",
"#D c #ffe9f4",
"aK c #ffeae7",
".o c #ffebe3",
".C c #ffeeff",
"at c #ffefff",
"#N c #fff0f7",
"af c #fff1ec",
"#G c #fff1ff",
"#6 c #fff2eb",
".Y c #fff2ff",
".q c #fff3ea",
"ac c #fff4f7",
"a. c #fff4fb",
"by c #fff4ff",
"#. c #fff5d1",
"aY c #fff5f3",
"br c #fff5fa",
"bx c #fff6fa",
"#o c #fff6ff",
".v c #fff7e8",
"#h c #fff7f1",
"bs c #fff7f3",
".p c #fff7f7",
".6 c #fff8fc",
"bq c #fff9f2",
"bg c #fff9f9",
"bn c #fff9ff",
"aL c #fffae3",
"bo c #fffafa",
"al c #fffaff",
"#B c #fffbf0",
"be c #fffbf8",
"bf c #fffbfa",
"#U c #fffbff",
"#2 c #fffcef",
"#j c #fffcf3",
"am c #fffcfd",
"aQ c #fffcff",
"#x c #fffde3",
"#i c #fffdfa",
"#V c #fffefd",
"bi c #fffeff",
"#z c #ffffe3",
"au c #ffffec",
".Z c #ffffed",
".m c #fffff6",
"aT c #ffffff",
"QtQtQtQtQtQtQtQtQtQtQtQtQtQtQtQtQtQtQtQtQtQtQtQtQtQtQtQtQt",
"QtQtQtQtQtQtQtQtQtQtQtQtQtQtQtQtQtQtQtQtQtQtQtQtQtQtQtQtQt",
"QtQtQtQtQtQtQtQtQtQtQtQtQtQtQtQtQtQtQtQtQtQtQtQtQtQtQtQtQt",
"QtQtQtQtQtQtQtQtQtQtQtQtQtQtQtQtQtQtQtQtQtQtQtQtQtQtQtQtQt",
"QtQtQtQt.#.a.b.c.d.e.f.g.h.i.j.kQtQtQtQtQtQtQtQtQtQtQtQtQt",
"QtQtQtQt.l.m.n.o.p.q.r.s.t.u.v.w.xQtQtQtQtQtQtQtQtQtQtQtQt",
"QtQtQtQt.y.z.A.B.C.D.E.F.G.H.I.J.K.LQtQtQtQtQtQtQtQtQtQtQt",
"QtQtQtQt.M.N.O.P.Q.R.S.T.U.V.W.X.Y.Z.0QtQtQtQtQtQtQtQtQtQt",
"QtQtQtQt.1.2.3.4.5.6.7.8.9#.##.M#a#b#c#dQtQtQtQtQtQtQtQtQt",
"QtQtQtQt#e#f#g#h#i#j#k.r#l#m#n#o#p#q#r#sQtQtQtQtQtQtQtQtQt",
"QtQtQtQt#t#u#v#w#x#y#z#A#B#C#D#E#F#G#H#IQtQtQtQtQtQtQtQtQt",
"QtQtQtQt.M#J#K#L#M#N#O#P#Q#R#j#S#T#U#V#WQtQtQtQtQtQtQtQtQt",
"QtQtQtQt#X#Y#Z#0#1#2#3#4#5#6#7#8#9a.a#aaQtQtQtQtQtQtQtQtQt",
"QtQtQtQtabacadae#Zafagah#j#7aiajakalamanQtQtQtQtQtQtQtQtQt",
"QtQtQtQtaoap.uaqarasatauavawaxagayazaAaBaCaCaDaEQtQtQtQtQt",
"QtQtQtQtaFaGaHaIaJaKaLaMaNaO#palaPaQaRaSaTaTaUaCQtQtQtQtQt",
"QtQtQtQtaVaWaXaYaZa0a1a2#Ualala3a4a5a6a7aTa8a9aCQtQtQtQtQt",
"QtQtQtQtb.b#babbbcbdbe.Rbfbgbh#Va6a6bi.6aUaCbjbkQtQtQtQtQt",
"QtQtQtQtblbmbnbobpbqbrbsaSbtbubvbpbwbxbyaCbzbAaCQtQtQtQtQt",
"QtQtQtQtaCaTaTaTbBaTaTbCbDbEbFaTbFaTaTaCbGbHaCQtQtQtQtQtQt",
"QtQtQtQtaCbIaTbJbEaTbKbLbKaTaTaTbFbEaCbAbMaCQtQtQtQtQtQtQt",
"QtQtQtQtbNaTbOaTbPaTbCbQbRbSbTbUbVbWbXbYbNQtQtQtQtQtQtQtQt",
"QtQtQtQtaCaCbLaCbZaCaCb0b1b2b3bRb4aCbXaCQtQtQtQtQtQtQtQtQt",
"QtQtQtQtQtQtQtQtQtQtaCb5b3b6bVb7b6aCbLQtQtQtQtQtQtQtQtQtQt",
"QtQtQtQtQtQtQtQtQtQtQtaCb8aCaCbLbWb9QtQtQtQtQtQtQtQtQtQtQt",
"QtQtQtQtQtQtQtQtQtQtQtQtQtQtQtQtQtQtQtQtQtQtQtQtQtQtQtQtQt",
"QtQtQtQtQtQtQtQtQtQtQtQtQtQtQtQtQtQtQtQtQtQtQtQtQtQtQtQtQt",
"QtQtQtQtQtQtQtQtQtQtQtQtQtQtQtQtQtQtQtQtQtQtQtQtQtQtQtQtQt"};
