/* XPM */
static const char *exp_xpm[]={
"16 16 4 1",
"b c None",
". c None",
"a c #000000",
"# c #ff0710",
"................",
"................",
"............###.",
"..............#.",
"..aa.....aa.###.",
"...aa...aa..#...",
"....aa.aa...###.",
".....aaa........",
"....aa.aa.......",
"...aa...aa.bbb..",
"..aa.....aa..b..",
"...........bbb..",
"...........b....",
"...........bbb..",
"................",
"................"};
