/* XPM */
static const char *filesave_xpm[] = {
"17 17 235 2",
"  	c None",
". 	c #737374",
"+ 	c #23282D",
"@ 	c #1B1D20",
"# 	c #282221",
"$ 	c #2E2624",
"% 	c #2E2523",
"& 	c #2D2422",
"* 	c #2D2523",
"= 	c #2D2423",
"- 	c #2C2321",
"; 	c #2C2322",
"> 	c #262120",
", 	c #1B1D1F",
"' 	c #20252A",
") 	c #6F7071",
"! 	c #25292E",
"~ 	c #B3CEE7",
"{ 	c #82909F",
"] 	c #CCA098",
"^ 	c #EAADA0",
"/ 	c #E9A99B",
"( 	c #E7A599",
"_ 	c #E7A69A",
": 	c #E4A79B",
"< 	c #E0A094",
"[ 	c #DF9D92",
"} 	c #DF9E93",
"| 	c #DB9B91",
"1 	c #BE918C",
"2 	c #848E9B",
"3 	c #90ABC2",
"4 	c #191F23",
"5 	c #24292C",
"6 	c #A8C4DB",
"7 	c #748192",
"8 	c #B87E79",
"9 	c #D47F72",
"0 	c #D37C70",
"a 	c #D27C6F",
"b 	c #CA766B",
"c 	c #CD776C",
"d 	c #CA7268",
"e 	c #C97064",
"f 	c #C4665B",
"g 	c #A96865",
"h 	c #727E8C",
"i 	c #678399",
"j 	c #10151A",
"k 	c #23282C",
"l 	c #A5C4D9",
"m 	c #7A8994",
"n 	c #D3C6C6",
"o 	c #F3E0DE",
"p 	c #F3DFDE",
"q 	c #F0DDDB",
"r 	c #F2DEDC",
"s 	c #F1DEDC",
"t 	c #F1DCDA",
"u 	c #F1DAD8",
"v 	c #D1C2C2",
"w 	c #788490",
"x 	c #658096",
"y 	c #101519",
"z 	c #A5C1D8",
"A 	c #7B8894",
"B 	c #D8D8D8",
"C 	c #F8F8F8",
"D 	c #D7D7D7",
"E 	c #7A8791",
"F 	c #637E93",
"G 	c #0F1417",
"H 	c #A4C0D7",
"I 	c #778490",
"J 	c #C4C4C4",
"K 	c #DEDEDE",
"L 	c #DDDDDD",
"M 	c #BDBDBD",
"N 	c #7C8892",
"O 	c #607A8F",
"P 	c #0E1216",
"Q 	c #23272C",
"R 	c #A2BDD5",
"S 	c #74828D",
"T 	c #DCDCDC",
"U 	c #FFFFFF",
"V 	c #5F788B",
"W 	c #0D1215",
"X 	c #22272C",
"Y 	c #9DBBD3",
"Z 	c #788790",
"` 	c #C3C3C3",
" .	c #DBDBDB",
"..	c #BEBEBE",
"+.	c #7C8891",
"@.	c #657989",
"#.	c #0F1214",
"$.	c #21282B",
"%.	c #9EBED2",
"&.	c #7A7D87",
"*.	c #D1CCCD",
"=.	c #EDEDED",
"-.	c #ECEDED",
";.	c #CECFCF",
">.	c #637684",
",.	c #0F1113",
"'.	c #20272B",
").	c #97B9D0",
"!.	c #7B95A8",
"~.	c #788187",
"{.	c #777F86",
"].	c #767F86",
"^.	c #707B84",
"/.	c #767E85",
"(.	c #788087",
"_.	c #798187",
":.	c #778086",
"<.	c #737D84",
"[.	c #7D90A1",
"}.	c #576F80",
"|.	c #0B0F11",
"1.	c #20262B",
"2.	c #95B3CE",
"3.	c #7696B0",
"4.	c #7A99B3",
"5.	c #667988",
"6.	c #667989",
"7.	c #6D8294",
"8.	c #718798",
"9.	c #6C8294",
"0.	c #718595",
"a.	c #6F8393",
"b.	c #6E8291",
"c.	c #627B8E",
"d.	c #6A8092",
"e.	c #88A4BB",
"f.	c #5B707F",
"g.	c #0A0E10",
"h.	c #94B3CD",
"i.	c #7090AA",
"j.	c #5D7182",
"k.	c #80817F",
"l.	c #ADAFAF",
"m.	c #B8BBBC",
"n.	c #BDC0C2",
"o.	c #BABEBF",
"p.	c #AFB2B3",
"q.	c #A5A8A7",
"r.	c #8D8E8C",
"s.	c #546269",
"t.	c #4B6275",
"u.	c #7F9CB4",
"v.	c #617683",
"w.	c #0A0D0F",
"x.	c #93B3CB",
"y.	c #6D8DA5",
"z.	c #4C5963",
"A.	c #CDCBC7",
"B.	c #C2C0BC",
"C.	c #706E67",
"D.	c #68655E",
"E.	c #CECCC9",
"F.	c #C8C5C0",
"G.	c #BFBBB4",
"H.	c #C4C1BB",
"I.	c #596268",
"J.	c #4D6A80",
"K.	c #7A96AA",
"L.	c #627481",
"M.	c #090C0E",
"N.	c #90B1CA",
"O.	c #6F8DA4",
"P.	c #4A5660",
"Q.	c #DCDBD7",
"R.	c #C0BEBA",
"S.	c #59564F",
"T.	c #514E46",
"U.	c #BFBCB7",
"V.	c #C2BEB8",
"W.	c #C9C5BF",
"X.	c #DAD8D4",
"Y.	c #606970",
"Z.	c #4E6A7F",
"`.	c #7A96A9",
" +	c #647380",
".+	c #0A0C0E",
"++	c #1C2125",
"@+	c #829EB4",
"#+	c #6B89A0",
"$+	c #434E57",
"%+	c #D5D3D0",
"&+	c #B1AFAB",
"*+	c #4F4B44",
"=+	c #4E4B43",
"-+	c #B9B6AF",
";+	c #CCC8C3",
">+	c #DEDCD8",
",+	c #E7E6E4",
"'+	c #5D676C",
")+	c #4C6678",
"!+	c #718FA5",
"~+	c #60707C",
"{+	c #0B0C0D",
"]+	c #6C6D6F",
"^+	c #434F5A",
"/+	c #5D7384",
"(+	c #4B5760",
"_+	c #B4B1AC",
":+	c #B5B2AB",
"<+	c #96928B",
"[+	c #9C9892",
"}+	c #CBC8C3",
"|+	c #E0DEDB",
"1+	c #E6E5E2",
"2+	c #D2D0CC",
"3+	c #555D62",
"4+	c #4A6174",
"5+	c #6E8B9F",
"6+	c #5E6F7B",
"7+	c #0A0B0C",
"8+	c #676869",
"9+	c #101416",
"0+	c #101214",
"a+	c #1F1F1D",
"b+	c #242322",
"c+	c #252423",
"d+	c #272625",
"e+	c #292928",
"f+	c #2C2B2B",
"g+	c #2B2B2B",
"h+	c #252524",
"i+	c #0F1112",
"j+	c #232C33",
"k+	c #1E252A",
"l+	c #686869",
". + @ # $ % & * = - - - ; > , ' ) ",
"! ~ { ] ^ / ( _ : < [ } | 1 2 3 4 ",
"5 6 7 8 9 0 0 a b c d e f g h i j ",
"k l m n o p o o q r s t u v w x y ",
"k z A B C C C C C C C C C D E F G ",
"k H I J K K K K K K K K L M N O P ",
"Q R S T U U U U U U U U U K N V W ",
"X Y Z `  . . . . . . . . ...+.@.#.",
"$.%.&.*.=.=.=.=.-.=.=.=.=.;.E >.,.",
"'.).!.+.~.{.].{.^./.(._.:.<.[.}.|.",
"1.2.3.4.5.6.7.8.9.0.a.b.c.d.e.f.g.",
"1.h.i.j.k.l.m.n.o.p.q.r.s.t.u.v.w.",
"1.x.y.z.A.B.C.D.E.F.G.H.I.J.K.L.M.",
"1.N.O.P.Q.R.S.T.U.V.W.X.Y.Z.`. +.+",
"++@+#+$+%+&+*+=+-+;+>+,+'+)+!+~+{+",
"]+^+/+(+_+:+<+[+}+|+1+2+3+4+5+6+7+",
" .8+9+0+a+b+c+d+e+f+g+h+i+P j+k+l+"};
