/* XPM */
static const char * fit_xpm[] = {
"32 32 4 1",
" 	c None",
".	c #000000",
"+	c #FFFFFF",
"@	c #FF0000",
"................................",
".++++++++++++++++++++++++++++++.",
".++++++++++++++++++++++++++++++.",
".++++++++++++++++++++++++++++++.",
".+++++++++++++++++++++..+++++++.",
".+++++++++++++++++++++..+++++++.",
".+++++++++++++++++++++++@++++++.",
".+++++++++++++++++++++@@@++++++.",
".+++++++++++++++++..+@..+++++++.",
".+++++++++++++++++..+@..+++++++.",
".+++++++++++++++++++@@+++++++++.",
".++++++++++++++++++@@++++++++++.",
".++++++++++++++++..@+..++++++++.",
".++++++++++++++++..@+..++++++++.",
".+++++++++++++..++@++++++++++++.",
".+++++++++++++..+@@++++++++++++.",
".+++++++++++++++@..++++++++++++.",
".+++++++++++++@@@..++++++++++++.",
".+++++++++..+@..+++++++++++++++.",
".+++++++++..+@..+++++++++++++++.",
".+++++++++++@@+++++++++++++++++.",
".++++++++++@@++++++++++++++++++.",
".++++++++..@+..++++++++++++++++.",
".++++++++..@+..++++++++++++++++.",
".+++++++++@++++++++++++++++++++.",
".++++++++@@++++++++++++++++++++.",
".+++++++@..++++++++++++++++++++.",
".+++++++@..++++++++++++++++++++.",
".++++++++++++++++++++++++++++++.",
".++++++++++++++++++++++++++++++.",
".++++++++++++++++++++++++++++++.",
"................................"};
