/* XPM */
static const char * floor_xpm[] = {
	"20 10 22 1",
	"      c None",
	".     c #000000",
	"+     c #314D63",
	"@     c #314D5A",
	"#     c #395963",
	"$     c #39555A",
	"%     c #39595A",
	"&     c #31555A",
	"*     c #395D52",
	"=     c #396152",
	"-     c #42694A",
	";     c #426952",
	">     c #4A714A",
	",     c #427142",
	"'     c #42714A",
	")     c #4A7D42",
	"!     c #4A7942",
	"~     c #4A8231",
	"{     c #528639",
	"]     c #4A8239",
	"^     c #528E31",
	"/     c #5A8E31",
	"    ................",
	"    .+++@+++@+++@++.",
	"   .#$%&#$%&#$%&#$%.",
	"   .*=*=*=*=*=*=*=. ",
	"  .-;-;-;-;-;-;-;-. ",
	"  .>,',>,',>,',>,.  ",
	" .)!)!)!)!)!)!)!).  ",
	" .~{]{~{]{~{]{~{.   ",
	".^/^/^/^/^/^/^/^.   ",
	"................    "};
