/* XPM */
static const char *folder_xpm[]={
"32 32 161 2",
"Qt c None",
".b c #000000",
"aE c #503200",
"aD c #583700",
"aC c #5b3900",
"aA c #5e3c00",
"aB c #633f00",
"az c #664100",
"ax c #6a4400",
"ay c #6b4400",
"av c #6e4700",
"au c #734a00",
"aw c #774c00",
"as c #7a4f00",
"at c #7b4f00",
"ar c #7e5100",
".# c #808080",
"ap c #815400",
"aq c #865700",
"an c #895900",
"am c #8d5c00",
"ao c #966200",
".R c #a6caf0",
"aj c #c0c0c0",
".2 c #c5c5c5",
"#W c #c9c9c9",
".9 c #cbcbcb",
".8 c #cfcfcf",
"#h c #d2d2d2",
"al c #d4d47c",
"ak c #d5d57e",
"#X c #d5d5d5",
"af c #d6d680",
"ae c #d7d782",
"ad c #d8d884",
"#5 c #d8d885",
"#4 c #d9d987",
"#p c #d9d9d9",
"ac c #dada89",
"#3 c #dada8a",
"#U c #dbdb8a",
"#2 c #dbdb8c",
"#T c #dcdc8c",
"ab c #dcdc8e",
"#1 c #dcdc8f",
"#M c #dddd8f",
"#L c #dede91",
"#I c #dfdf94",
"#J c #dfdfdf",
"#H c #e0e096",
"#Y c #e0e0e0",
"#S c #e1e196",
"#G c #e1e199",
"#x c #e2e299",
"#w c #e3e39b",
"#F c #e3e39c",
"#K c #e3e3e3",
"#n c #e4e49e",
"#E c #e4e49f",
"#m c #e5e5a0",
"#D c #e5e5a1",
"#v c #e6e6a1",
"#f c #e6e6a3",
"#P c #e6e6e6",
"#u c #e7e7a4",
"#e c #e7e7a6",
"#l c #e8e8a6",
"#t c #e8e8a7",
".Z c #e9e9a8",
"#d c #e9e9a9",
"ag c #e9e9aa",
".Y c #eaeaab",
"#c c #eaeaac",
".V c #ebebac",
"#8 c #ebebae",
".U c #ececae",
"#b c #ececaf",
"#7 c #ececb0",
".P c #ededb1",
"#a c #ededb2",
"#O c #ededed",
".O c #eeeeb3",
"#6 c #eeeeb4",
".T c #efefb4",
"## c #efefb5",
".N c #efefb6",
".K c #f0f0b6",
".S c #f0f0b7",
".M c #f0f0b8",
".J c #f1f1b8",
"#N c #f1f1b9",
"#V c #f1f1ba",
".I c #f2f2ba",
".F c #f2f2bb",
".E c #f2f2bc",
".H c #f3f3bc",
".L c #f3f3bd",
".D c #f3f3be",
".G c #f4f4be",
"#y c #f4f4bf",
".C c #f4f4c0",
".x c #f5f5c0",
".w c #f5f5c1",
".B c #f5f5c2",
".v c #f6f6c2",
".A c #f6f6c3",
".u c #f7f7c4",
".r c #f7f7c5",
".q c #f7f7c6",
".7 c #f8f8c6",
".p c #f8f8c7",
".o c #f8f8c8",
".t c #f9f9c8",
".n c #f9f9c9",
".m c #f9f9ca",
".s c #fafaca",
".l c #fafacb",
".Q c #fafacc",
".k c #fbfbcc",
".j c #fbfbcd",
".y c #fbfbce",
".i c #fcfcce",
".h c #fcfccf",
".z c #fcfcd0",
".g c #fdfdd0",
".e c #fdfdd1",
".f c #fdfdd2",
".c c #fefed2",
".d c #fefed3",
".a c #ffffd4",
".0 c #ffffda",
".W c #ffffdb",
".X c #ffffdc",
".1 c #ffffdd",
".3 c #ffffde",
"#g c #ffffdf",
".4 c #ffffe0",
".5 c #ffffe1",
"#o c #ffffe2",
".6 c #ffffe3",
"#. c #ffffe4",
"#z c #ffffe5",
"#i c #ffffe6",
"#j c #ffffe7",
"#9 c #ffffe8",
"#q c #ffffe9",
"#r c #ffffea",
"#k c #ffffeb",
"#A c #ffffec",
"#B c #ffffed",
"#s c #ffffee",
"#Q c #ffffef",
"a. c #fffff0",
"#C c #fffff1",
"#Z c #fffff2",
"#R c #fffff3",
"#0 c #fffff4",
"a# c #fffff5",
"ah c #fffff6",
"aa c #fffff7",
"ai c #fffff8",
"QtQtQtQtQtQtQtQtQtQtQtQtQtQtQtQtQtQtQtQtQtQtQtQtQtQtQtQtQtQtQtQt",
"QtQt.#.#.#.#.#.#.#QtQtQtQtQtQtQtQtQtQtQtQtQtQtQtQtQtQtQtQtQtQtQt",
"Qt.#.a.a.a.a.a.a.a.bQtQtQtQtQtQtQtQtQtQtQtQtQtQtQtQtQtQtQtQtQtQt",
".#.c.c.c.c.c.c.c.d.d.bQtQtQtQtQtQtQtQtQtQtQtQtQtQtQtQtQtQtQtQtQt",
".#.e.e.e.e.e.f.f.c.c.c.#.#.#.#.#.#.#.#.#.#.#.#.#.#.#.#.#.#.#.#Qt",
".#.g.g.g.g.e.e.e.c.c.c.c.d.d.d.a.a.c.e.g.h.i.j.k.l.m.n.o.p.q.r.b",
".#.i.i.i.h.h.g.g.e.e.e.c.c.d.d.a.a.c.e.h.i.k.l.s.t.p.r.u.v.w.x.b",
".#.j.j.y.y.h.h.z.g.e.e.f.c.d.d.a.a.c.g.i.k.l.n.p.r.A.B.C.D.E.F.b",
".#.k.k.j.j.i.i.h.g.g.e.e.c.c.d.a.a.e.h.j.l.n.p.r.v.x.G.H.I.J.K.b",
".#.s.s.l.k.k.j.i.h.h.g.e.e.c.#.#.#.#.#.b.m.p.r.v.C.L.F.M.N.O.P.b",
".#.n.n.m.l.Q.k.j.i.h.z.g.#.#.R.R.R.R.R.R.b.b.v.x.L.I.S.T.P.U.V.b",
".#.t.t.n.s.l.k.j.i.i.h.#.R.R.R.R.R.W.W.X.R.R.b.G.I.S.T.P.U.Y.Z.b",
".#.t.t.n.s.l.k.j.i.i.#.R.R.R.R.0.W.1.2.3.4.5.6.b.I.S.T.P.U.Y.Z.b",
".#.7.7.p.p.o.t.n.n.m.#.R.R.0.8.1.3.8.9.5.6#..2.b###a#b#c#d#e#f.b",
".#.r.r.r.r.r.r.r.q.#.R.R.R.X.8#g.5.6#h#.#i#j.8#k.b.V#d#l#f#m#n.b",
".#.u.A.A.A.A.v.v.v.#.R.R.3#g.2#o#.#i#p#j#q#r#p#s.b#t#u#v#n#w#x.b",
".#.A.B.w.w.C.C#y#y.#.R.R.5#o#p#z#j#q#p#r#A#B#p#C.b#D#E#F#G#H#I.b",
".#.w.C#y.D.L.E.F.I.#.R.R.5#o#p#z#j#q#J#r#A#B#K#C.b#F#x#H#I#L#M.b",
".#.x.G.L.H.I#N.J.S.#.R.R.6#.#O#j#q#k#P#A#s#Q#O#R.b#S#I#L#M#T#U.b",
".##y.L.F#V.M.K##.O.P.#.R.8.8#q#r#A#W#X#Y#C#Z#0.8.b#L#1#2#3#4#5.b",
".#.D.E#V.M.N#6#a#7#8.#.R#9#q#k#A#sa.a.#C#Ra#aa.bab#2ac#4adaeaf.b",
".#.L#V.M##.O.P.U.Vag#t.##k#A#s#Q#C#R#R#0ahai.baj.b#4#5aeafakal.b",
"Qt.b.b.b.b.b.b.b.b.b.b.b.b.b#C#Z#0ahahaa.b.bajajaj.b.b.b.b.b.bQt",
"QtQtQtQtQtQtQtQtQtQtQtQtQtQt.b.b.b.b.b.b.b.#.#aj.#am.bQtQtQtQtQt",
"QtQtQtQtQtQtQtQtQtQtQtQtQtQtQtQtQtQtQtQtQt.b.#.#anaoap.bQtQtQtQt",
"QtQtQtQtQtQtQtQtQtQtQtQtQtQtQtQtQtQtQtQtQtQt.baqaoaraoas.bQtQtQt",
"QtQtQtQtQtQtQtQtQtQtQtQtQtQtQtQtQtQtQtQtQtQtQt.bataoauaoav.bQtQt",
"QtQtQtQtQtQtQtQtQtQtQtQtQtQtQtQtQtQtQtQtQtQtQtQt.bawaoauaoax.bQt",
"QtQtQtQtQtQtQtQtQtQtQtQtQtQtQtQtQtQtQtQtQtQtQtQtQt.bayaoazaoaA.b",
"QtQtQtQtQtQtQtQtQtQtQtQtQtQtQtQtQtQtQtQtQtQtQtQtQtQt.baBaoaCao.b",
"QtQtQtQtQtQtQtQtQtQtQtQtQtQtQtQtQtQtQtQtQtQtQtQtQtQtQt.baDaoaE.b",
"QtQtQtQtQtQtQtQtQtQtQtQtQtQtQtQtQtQtQtQtQtQtQtQtQtQtQtQt.b.b.bQt"};
