/* XPM */
static const char * fx_xpm[] = {
"21 15 13 1",
" 	c None",
".	c #000000",
"+	c #535046",
"@	c #555147",
"#	c #565248",
"$	c #534F46",
"%	c #514D44",
"&	c #534F45",
"*	c #545046",
"=	c #524E44",
"-	c #524E45",
";	c #545047",
">	c #504D43",
"       ...           ",
"      ....           ",
"     ..              ",
"     ..    +@     #@ ",
"     ..   @@       #$",
"   ..... @#        #@",
"    ..   #% &#@ @@ ##",
"    ..  *#   *#$@* #@",
"    ..  @#   =#    #-",
"    ..  ## *@*#&  &# ",
"   ..   @# ;$ +@- #* ",
"   ..   @#       ;;  ",
"   ..    ;@     @>   ",
"....                 ",
"...                  "};
