/* XPM */
static const char * general_xpm[] = {
"32 32 760 2",
"  	c None",
". 	c #AFB7C3",
"+ 	c #ABB5C2",
"@ 	c #A3B1BF",
"# 	c #A1AFBE",
"$ 	c #A0ADBE",
"% 	c #9FABBD",
"& 	c #9DA9BC",
"* 	c #9BA9BB",
"= 	c #99A7BA",
"- 	c #97A6B9",
"; 	c #95A4B9",
"> 	c #94A2B9",
", 	c #92A0B8",
"' 	c #919FB7",
") 	c #8F9EB7",
"! 	c #8D9BB6",
"~ 	c #8B9AB5",
"{ 	c #8A99B4",
"] 	c #8897B2",
"^ 	c #8695B0",
"/ 	c #8492AC",
"( 	c #818FA9",
"_ 	c #7D8BA5",
": 	c #7A88A2",
"< 	c #76849E",
"[ 	c #727F99",
"} 	c #6E7B94",
"| 	c #69768E",
"1 	c #647187",
"2 	c #5E6A82",
"3 	c #667184",
"4 	c #A0A3A9",
"5 	c #ABB6C2",
"6 	c #B4BEC9",
"7 	c #C2CCD5",
"8 	c #C3CCD6",
"9 	c #BEC8D4",
"0 	c #BEC7D3",
"a 	c #BCC5D2",
"b 	c #BBC4D2",
"c 	c #BAC3D1",
"d 	c #B9C3D1",
"e 	c #B7C2D0",
"f 	c #B6C0D0",
"g 	c #B5BFCF",
"h 	c #B3BDCE",
"i 	c #B0BACD",
"j 	c #B2BCCF",
"k 	c #AFBACD",
"l 	c #AEB8CB",
"m 	c #ADB7CA",
"n 	c #ABB5C7",
"o 	c #A9B3C5",
"p 	c #A7B0C3",
"q 	c #A4AEC0",
"r 	c #A2ACBD",
"s 	c #9FA9BA",
"t 	c #9DA5B7",
"u 	c #99A2B3",
"v 	c #99A2B1",
"w 	c #929BAC",
"x 	c #6F798D",
"y 	c #9599A0",
"z 	c #C8D1D9",
"A 	c #FAFCFE",
"B 	c #EEF1F6",
"C 	c #FCFDFF",
"D 	c #FBFDFE",
"E 	c #FDFEFF",
"F 	c #FBFCFE",
"G 	c #FAFCFD",
"H 	c #F6F8FB",
"I 	c #EDF1F5",
"J 	c #FDFDFF",
"K 	c #F9FAFD",
"L 	c #F8FAFD",
"M 	c #F8FAFC",
"N 	c #F8F9FC",
"O 	c #F7F9FD",
"P 	c #ECEFF6",
"Q 	c #FAFCFF",
"R 	c #838D9F",
"S 	c #7F838C",
"T 	c #A2B0BE",
"U 	c #CBD3DC",
"V 	c #DEE3EB",
"W 	c #99A5BB",
"X 	c #F7F8FA",
"Y 	c #F1F4F7",
"Z 	c #F1F3F6",
"` 	c #EDF0F4",
" .	c #EEF2F5",
"..	c #EFF2F5",
"+.	c #EEF1F4",
"@.	c #E7EBEE",
"#.	c #DADFE4",
"$.	c #F0F3F7",
"%.	c #EBEEF2",
"&.	c #EAEEF2",
"*.	c #E9EDF1",
"=.	c #E8EBF0",
"-.	c #E7EAEF",
";.	c #E7E9EE",
">.	c #E5E8ED",
",.	c #E4E8ED",
"'.	c #E3E7ED",
").	c #E2E6EC",
"!.	c #E3E6EC",
"~.	c #E3E6EB",
"{.	c #EAEDF5",
"].	c #8690A1",
"^.	c #7B7F88",
"/.	c #A0AEBE",
"(.	c #C6CFD9",
"_.	c #F9FBFD",
":.	c #F0F3F6",
"<.	c #EFF3F5",
"[.	c #F3F6F9",
"}.	c #5F6876",
"|.	c #CCD0D5",
"1.	c #F4F6F8",
"2.	c #EDF0F3",
"3.	c #ECF0F3",
"4.	c #ECF0F4",
"5.	c #E5E8EC",
"6.	c #D6DADF",
"7.	c #EFF3F6",
"8.	c #E8ECF0",
"9.	c #D0D4DB",
"0.	c #C8C8D6",
"a.	c #C8C6D7",
"b.	c #C7C6D6",
"c.	c #C7C7D6",
"d.	c #C6C7D5",
"e.	c #C7CBD4",
"f.	c #DEE3E9",
"g.	c #DDE0E7",
"h.	c #D4D9E1",
"i.	c #F6F8FD",
"j.	c #848E9F",
"k.	c #7A7F87",
"l.	c #9FACBE",
"m.	c #C5CDD8",
"n.	c #F3F5F7",
"o.	c #F0F3F5",
"p.	c #F4F7F9",
"q.	c #4D5767",
"r.	c #C7CCD2",
"s.	c #F5F6F9",
"t.	c #E4E8EC",
"u.	c #D5D9DF",
"v.	c #E8EBEF",
"w.	c #D6D3E3",
"x.	c #8ED287",
"y.	c #6CD45A",
"z.	c #69C95B",
"A.	c #53B949",
"B.	c #64B562",
"C.	c #CDCCDA",
"D.	c #DEE3E8",
"E.	c #DDE1E8",
"F.	c #F8FAFE",
"G.	c #848D9F",
"H.	c #7A7E87",
"I.	c #9EAABD",
"J.	c #C4CCD8",
"K.	c #535C6C",
"L.	c #C9CED3",
"M.	c #ECEFF3",
"N.	c #EDEFF4",
"O.	c #EFF3F7",
"P.	c #E9ECF1",
"Q.	c #E1DBEE",
"R.	c #6DCD64",
"S.	c #60E03C",
"T.	c #83EE59",
"U.	c #48CB2D",
"V.	c #39A834",
"W.	c #DAD6E5",
"X.	c #DFE3E9",
"Y.	c #DEE2E8",
"Z.	c #DCE0E7",
"`.	c #838D9E",
" +	c #797E87",
".+	c #9CA9BC",
"++	c #C3CBD7",
"@+	c #F1F3F7",
"#+	c #F7FAFC",
"$+	c #535D6C",
"%+	c #CBD1D5",
"&+	c #F8FBFC",
"*+	c #F1F4F6",
"=+	c #E6E8ED",
"-+	c #D7DBE0",
";+	c #ECE5F6",
">+	c #60BE5E",
",+	c #5BD93D",
"'+	c #95FF6A",
")+	c #50D336",
"!+	c #359E33",
"~+	c #E5E1EE",
"{+	c #E0E3EA",
"]+	c #DEE2E9",
"^+	c #DCE1E8",
"/+	c #F9FBFF",
"(+	c #838C9D",
"_+	c #797E86",
":+	c #9AA8BB",
"<+	c #C2CAD7",
"[+	c #E1E5EA",
"}+	c #E2E6EB",
"|+	c #E5EAEE",
"1+	c #535F6E",
"2+	c #BEC4CC",
"3+	c #E6E9EE",
"4+	c #DFE3E8",
"5+	c #E6E9ED",
"6+	c #D8DCE0",
"7+	c #F0F4F7",
"8+	c #E8ECF1",
"9+	c #F6EFFE",
"0+	c #55B254",
"a+	c #20B711",
"b+	c #44D830",
"c+	c #1CB110",
"d+	c #2D962B",
"e+	c #EFEBF8",
"f+	c #E1E4EB",
"g+	c #DDE2E9",
"h+	c #828B9D",
"i+	c #797D86",
"j+	c #98A7BA",
"k+	c #C1CBD6",
"l+	c #DBE1E7",
"m+	c #B2B9C5",
"n+	c #B4BBC7",
"o+	c #6A7587",
"p+	c #9FA8B6",
"q+	c #B3BAC8",
"r+	c #ACB4C3",
"s+	c #C6CCD6",
"t+	c #E8EBEE",
"u+	c #D8DCE1",
"v+	c #F1F4F8",
"w+	c #E9EDF2",
"x+	c #FCF5FF",
"y+	c #5EB65F",
"z+	c #048D02",
"A+	c #0F8B0F",
"B+	c #058506",
"C+	c #3B9D3C",
"D+	c #F7F2FC",
"E+	c #DEE2EA",
"F+	c #818A9B",
"G+	c #787C85",
"H+	c #96A5B9",
"I+	c #C2CBD7",
"J+	c #C0C8D2",
"K+	c #F3F7F9",
"L+	c #EEF2F7",
"M+	c #EAEFF4",
"N+	c #ECF0F6",
"O+	c #ECF0F7",
"P+	c #F1F4FA",
"Q+	c #CDD3DD",
"R+	c #C2C8D2",
"S+	c #ECEEF2",
"T+	c #D8DDE2",
"U+	c #F2F4F9",
"V+	c #EBEEF3",
"W+	c #EAEEF3",
"X+	c #EBEDF2",
"Y+	c #E7ECEC",
"Z+	c #E8EFEC",
"`+	c #EBF1EE",
" @	c #E9EFED",
".@	c #E7EDEC",
"+@	c #E3E7EE",
"@@	c #E2E6ED",
"#@	c #E0E4EB",
"$@	c #FBFEFF",
"%@	c #80899B",
"&@	c #777C85",
"*@	c #95A3B9",
"=@	c #C2CBD8",
"-@	c #B6BDC9",
";@	c #F9FDFF",
">@	c #EBF0F3",
",@	c #E7ECF1",
"'@	c #D9DDE3",
")@	c #ECEFF4",
"!@	c #EBEFF4",
"~@	c #EEF1F7",
"{@	c #F1F2F9",
"]@	c #F0F1F9",
"^@	c #F0F1F8",
"/@	c #EDEFF6",
"(@	c #E7EAF1",
"_@	c #E4E8EF",
":@	c #E3E8EE",
"<@	c #FCFFFF",
"[@	c #7F889A",
"}@	c #777B84",
"|@	c #93A2B9",
"1@	c #C0C9D7",
"2@	c #F5F7FA",
"3@	c #A8B1C2",
"4@	c #A7B0C0",
"5@	c #A5AFBF",
"6@	c #848E9E",
"7@	c #99A2B2",
"8@	c #9FA7B8",
"9@	c #9AA3B4",
"0@	c #939CAC",
"a@	c #B7BEC7",
"b@	c #D9DEE4",
"c@	c #F2F5F9",
"d@	c #EDF0F5",
"e@	c #DBE0E6",
"f@	c #D5D8DC",
"g@	c #D6D7DB",
"h@	c #D5D6DB",
"i@	c #D7D6DA",
"j@	c #D7D7DB",
"k@	c #D4D9E2",
"l@	c #E6EAF1",
"m@	c #E4E9EF",
"n@	c #E3E7EF",
"o@	c #FDFFFF",
"p@	c #7E8698",
"q@	c #767A83",
"r@	c #92A0B9",
"s@	c #BDC6D6",
"t@	c #FFFFFF",
"u@	c #DCE0E8",
"v@	c #8C98AD",
"w@	c #919CB2",
"x@	c #929DB2",
"y@	c #3F4C60",
"z@	c #788397",
"A@	c #8B95AA",
"B@	c #838EA2",
"C@	c #858FA0",
"D@	c #B5BCC6",
"E@	c #DADFE5",
"F@	c #F4F6FA",
"G@	c #EFF2F7",
"H@	c #D7D9DE",
"I@	c #AEC8E0",
"J@	c #A0C3E6",
"K@	c #9FBDE1",
"L@	c #8FB6DE",
"M@	c #95B9DA",
"N@	c #D0D3DA",
"O@	c #E9EDF3",
"P@	c #E7EBF2",
"Q@	c #E5E9F2",
"R@	c #FEFFFF",
"S@	c #7C8597",
"T@	c #757A82",
"U@	c #919EB8",
"V@	c #BCC5D5",
"W@	c #ECEEF4",
"X@	c #C1C8D6",
"Y@	c #C2C9D7",
"Z@	c #C4CCD9",
"`@	c #434F5F",
" #	c #9DA6B4",
".#	c #BDC4D1",
"+#	c #B5BCC8",
"@#	c #ADB4C1",
"##	c #C5CBD4",
"$#	c #EDF1F6",
"%#	c #F3F5FA",
"&#	c #ECEFF5",
"*#	c #E0DDDF",
"=#	c #87BDF4",
"-#	c #76C2FF",
";#	c #86CCFC",
">#	c #58B0F5",
",#	c #53A0E6",
"'#	c #D9D8DC",
")#	c #E5E9F1",
"!#	c #E4E8F0",
"~#	c #E2E6F0",
"{#	c #7C8596",
"]#	c #757982",
"^#	c #909DB7",
"/#	c #BCC4D4",
"(#	c #F3F5F9",
"_#	c #F7F9FC",
":#	c #FBFDFF",
"<#	c #5B6876",
"[#	c #D0D5DB",
"}#	c #F5F7FB",
"|#	c #D3D8DE",
"1#	c #EEF1F5",
"2#	c #E3E7EC",
"3#	c #E2E5EA",
"4#	c #E2E5EB",
"5#	c #E2E0DF",
"6#	c #6EA4EC",
"7#	c #73C6FC",
"8#	c #AAFDFF",
"9#	c #69C6F6",
"0#	c #458BDB",
"a#	c #DBDBDD",
"b#	c #D9DEE6",
"c#	c #D8DDE6",
"d#	c #D6DCE6",
"e#	c #F8FBFF",
"f#	c #7B8596",
"g#	c #8E9BB6",
"h#	c #BBC3D4",
"i#	c #F2F6FA",
"j#	c #5A6776",
"k#	c #C6CCD3",
"l#	c #E4E6EB",
"m#	c #DCDFE5",
"n#	c #CFD4DA",
"o#	c #DEE2E7",
"p#	c #DDE1E6",
"q#	c #EBE8E5",
"r#	c #5B93DF",
"s#	c #43A8F0",
"t#	c #78E7FF",
"u#	c #43AFEF",
"v#	c #3779CE",
"w#	c #E4E3E5",
"x#	c #D5DBE4",
"y#	c #D3DAE3",
"z#	c #D1D8E2",
"A#	c #F5F9FF",
"B#	c #7B8496",
"C#	c #8C9BB5",
"D#	c #BAC3D3",
"E#	c #EAEDF2",
"F#	c #5A6877",
"G#	c #C2CAD0",
"H#	c #E9EDF0",
"I#	c #E3E7EB",
"J#	c #E3E6EA",
"K#	c #DBDEE4",
"L#	c #CED3D9",
"M#	c #DDE1E7",
"N#	c #DCE0E5",
"O#	c #F6F1ED",
"P#	c #4D87D3",
"Q#	c #0051C5",
"R#	c #065EC6",
"S#	c #0050BC",
"T#	c #296AC1",
"U#	c #F0EEEF",
"V#	c #D5DBE5",
"W#	c #D3DBE6",
"X#	c #D1D9E4",
"Y#	c #F6F9FF",
"Z#	c #B7C0D2",
"`#	c #F7F9FB",
" $	c #E5E9ED",
".$	c #E7EBEF",
"+$	c #5B6978",
"@$	c #C2C9D0",
"#$	c #E9ECEF",
"$$	c #DADEE3",
"%$	c #CED2D9",
"&$	c #DDE0E6",
"*$	c #DBDFE5",
"=$	c #E7E8EA",
"-$	c #BECFE5",
";$	c #A9C1E4",
">$	c #AEC4E5",
",$	c #ABC2E3",
"'$	c #B7CAE4",
")$	c #D4DCE7",
"!$	c #D3DCE7",
"~$	c #D1DAE5",
"{$	c #F6FAFF",
"]$	c #8998B3",
"^$	c #B6BFD0",
"/$	c #F4F6F9",
"($	c #E2E6EA",
"_$	c #E3E8EB",
":$	c #5B6A78",
"<$	c #C2C8CF",
"[$	c #E2E5E9",
"}$	c #E1E4E9",
"|$	c #DADDE3",
"1$	c #CDD2D9",
"2$	c #E7EBF1",
"3$	c #DDE0E5",
"4$	c #DDE2E7",
"5$	c #E9EAEC",
"6$	c #F2F0F0",
"7$	c #F2F2F2",
"8$	c #F1F2F3",
"9$	c #EAEDF0",
"0$	c #D9E0EA",
"a$	c #D4DDE8",
"b$	c #D3DDE9",
"c$	c #D0DAE7",
"d$	c #F6FBFF",
"e$	c #8897B1",
"f$	c #B5BED0",
"g$	c #5D6B79",
"h$	c #C2C7CF",
"i$	c #E0E4E9",
"j$	c #E0E3E8",
"k$	c #CCD1D8",
"l$	c #E7EAF0",
"m$	c #D2D7DF",
"n$	c #CBD4DE",
"o$	c #C8D4DF",
"p$	c #C7D4DF",
"q$	c #C7D5E1",
"r$	c #C7D5E2",
"s$	c #CCD4E1",
"t$	c #D4DEEA",
"u$	c #D3DDEA",
"v$	c #D0DBE9",
"w$	c #F6FCFF",
"x$	c #8694AF",
"y$	c #B4BDCE",
"z$	c #E1E5E9",
"A$	c #5E6C7A",
"B$	c #C1C7CE",
"C$	c #D8DCE2",
"D$	c #CCD1D7",
"E$	c #E6EAEF",
"F$	c #DBDEE5",
"G$	c #C2C9D3",
"H$	c #BDB8C3",
"I$	c #C0B4BF",
"J$	c #BFB2BE",
"K$	c #BDACB8",
"L$	c #BAAEBA",
"M$	c #BBC6D4",
"N$	c #D5DFEC",
"O$	c #D3DDEC",
"P$	c #D0DCEB",
"Q$	c #B2BCCD",
"R$	c #E4E7EB",
"S$	c #5F6D7B",
"T$	c #C0C7CE",
"U$	c #DDE2E8",
"V$	c #D7DBE1",
"W$	c #CBD0D6",
"X$	c #E5E9EF",
"Y$	c #DADEE4",
"Z$	c #DADEE5",
"`$	c #DBDFE7",
" %	c #C2D1DB",
".%	c #EAA0A4",
"+%	c #FF9191",
"@%	c #FA8C8B",
"#%	c #F26565",
"$%	c #DF686C",
"%%	c #BFD1DF",
"&%	c #D3DFEE",
"*%	c #D2DEEE",
"=%	c #CFDCED",
"-%	c #F7FDFF",
";%	c #B0BACA",
">%	c #F3F6F8",
",%	c #DFE2E7",
"'%	c #5F6E7C",
")%	c #C0C6CD",
"!%	c #DEE1E7",
"~%	c #D6DAE0",
"{%	c #CACFD6",
"]%	c #D9DDE4",
"^%	c #D9DDE5",
"/%	c #D9DFE7",
"(%	c #CCDDE5",
"_%	c #E78386",
":%	c #FE8A87",
"<%	c #FFAEAC",
"[%	c #F27171",
"}%	c #D3595C",
"|%	c #CADCE9",
"1%	c #D2DFEF",
"2%	c #D0DEEF",
"3%	c #7E8CA6",
"4%	c #AEB8C9",
"5%	c #E1E6EA",
"6%	c #5F6F7D",
"7%	c #BFC6CD",
"8%	c #DCE0E6",
"9%	c #D6D9DF",
"0%	c #C9CED5",
"a%	c #E4E9EE",
"b%	c #D8DDE3",
"c%	c #D8DDE5",
"d%	c #D7DDE6",
"e%	c #D7E8F0",
"f%	c #D77071",
"g%	c #F06361",
"h%	c #FF9190",
"i%	c #EC5D5D",
"j%	c #C34F51",
"k%	c #D6E7F3",
"l%	c #D2E0F0",
"m%	c #D1E0F1",
"n%	c #CFDFF1",
"o%	c #F7FEFF",
"p%	c #7B88A2",
"q%	c #ACB6C7",
"r%	c #DCE1E6",
"s%	c #DDE2E6",
"t%	c #606E7D",
"u%	c #BFC5CC",
"v%	c #E1E4EA",
"w%	c #DBDFE4",
"x%	c #D4D8DE",
"y%	c #C8CED4",
"z%	c #E3E8EF",
"A%	c #D7DDE3",
"B%	c #D7DDE5",
"C%	c #E2F2F9",
"D%	c #CA6062",
"E%	c #C51F1F",
"F%	c #CE3737",
"G%	c #BE2120",
"H%	c #B64042",
"I%	c #E1F2FC",
"J%	c #D1E1F3",
"K%	c #CFDFF3",
"L%	c #77859E",
"M%	c #AAB3C4",
"N%	c #E0E3E7",
"O%	c #E0E3E9",
"P%	c #586776",
"Q%	c #BCC2CA",
"R%	c #D3D7DE",
"S%	c #C7CDD4",
"T%	c #E3E9EE",
"U%	c #D7DCE3",
"V%	c #D7DDE4",
"W%	c #D6DCE5",
"X%	c #E2EDF4",
"Y%	c #D39EA3",
"Z%	c #C97073",
"`%	c #CA7678",
" &	c #C67374",
".&	c #CB9094",
"+&	c #E2EFF9",
"@&	c #D0E0F3",
"#&	c #D1E1F4",
"$&	c #D2E4F9",
"%&	c #F8FFFF",
"&&	c #74819A",
"*&	c #A9B2C2",
"=&	c #C5CBD5",
"-&	c #7B8793",
";&	c #C2C8D0",
">&	c #D1D5DD",
",&	c #C6CBD3",
"'&	c #E2E7ED",
")&	c #D6DAE2",
"!&	c #D5DBE3",
"~&	c #D4DCE5",
"{&	c #D8DEE7",
"]&	c #DFECF5",
"^&	c #E7F8FF",
"/&	c #ECFBFF",
"(&	c #EAFBFF",
"_&	c #E3F3FE",
":&	c #D7E2F0",
"<&	c #D0E2F6",
"[&	c #BCCEE4",
"}&	c #F4FBFF",
"|&	c #7C8697",
"1&	c #717C96",
"2&	c #AAB2C2",
"3&	c #D9DEE7",
"4&	c #919CB1",
"5&	c #DCDFE6",
"6&	c #D4D8DF",
"7&	c #D8DEE6",
"8&	c #D7DFE8",
"9&	c #D7DEEA",
"0&	c #D6DFEA",
"a&	c #D5DFEE",
"b&	c #D4E0F0",
"c&	c #D3E1F2",
"d&	c #D4E3F4",
"e&	c #D5E4F6",
"f&	c #D5E6F9",
"g&	c #94A0B5",
"h&	c #ECF2F9",
"i&	c #7E8899",
"j&	c #6D7891",
"k&	c #A0A8B9",
"l&	c #EEF0F6",
"m&	c #EFF1F7",
"n&	c #EFF2F8",
"o&	c #EFF3F8",
"p&	c #EDF1F7",
"q&	c #E9EDF4",
"r&	c #F5F8FB",
"s&	c #F0F4F9",
"t&	c #F0F4FA",
"u&	c #F1F5FB",
"v&	c #F1F5FC",
"w&	c #F1F6FC",
"x&	c #F2F7FD",
"y&	c #F2F7FE",
"z&	c #F2F8FE",
"A&	c #F3F9FE",
"B&	c #F3F9FF",
"C&	c #F6FDFF",
"D&	c #788395",
"E&	c #767F94",
"F&	c #7E889D",
"G&	c #929CAE",
"H&	c #9EA8B8",
"I&	c #9CA6B6",
"J&	c #9BA5B5",
"K&	c #9AA4B4",
"L&	c #9AA2B3",
"M&	c #98A0B1",
"N&	c #979FB0",
"O&	c #959EAE",
"P&	c #949CAD",
"Q&	c #929AAA",
"R&	c #929AA9",
"S&	c #8F98A8",
"T&	c #8E96A5",
"U&	c #8D95A4",
"V&	c #8D96A5",
"W&	c #8D97A6",
"X&	c #8E97A6",
"Y&	c #9099A8",
"Z&	c #7F8999",
"`&	c #5D697B",
" *	c #7E8289",
".*	c #A9ABB1",
"+*	c #9FA2A8",
"@*	c #90949A",
"#*	c #91949A",
"$*	c #909399",
"%*	c #8F9399",
"&*	c #8F9398",
"**	c #909298",
"=*	c #8F9297",
"-*	c #8F9197",
";*	c #8E9197",
">*	c #8E9096",
",*	c #8D9096",
"'*	c #8D8F95",
")*	c #8C8F94",
"!*	c #8B8E94",
"~*	c #8B8D93",
"{*	c #8A8D92",
"]*	c #8A8D93",
"^*	c #8B8E93",
"/*	c #85888D",
"(*	c #83878C",
"_*	c #959697",
". + @ # $ % & * = - ; > , ' ) ! ~ { ] ^ / ( _ : < [ } | 1 2 3 4 ",
"5 6 7 8 9 0 a b c d e f g h i j i k l m n o p q r s t u v w x y ",
"@ z A B C D A E D F G G G H I J K L M M L K L L N N N O P Q R S ",
"T U V W X Y Z `  ...+.+.+.@.#.$.%.&.*.=.-.;.>.,.'.).!.~.W {.].^.",
"/.(._.=.:.<.[.}.|.1.2.3.4.5.6.7.8.-.=.9.0.a.b.c.d.e.f.g.h.i.j.k.",
"l.m.E n.:.o.p.q.r.s.2.3.4.t.u.7.8.v.8.w.x.y.z.A.B.C.D.E.g.F.G.H.",
"I.J.C :.:.:.p.K.L.p.2.M.N.>.6.O.P.=.=.Q.R.S.T.U.V.W.X.Y.Z.F.`. +",
".+++C @+[.[.#+$+%+&+*+..` =+-+$.P.=.=.;+>+,+'+)+!+~+{+]+^+/+(+_+",
":+<+E 2.[+}+|+1+2+3+4+3+..5+6+7+*.8+8+9+0+a+b+c+d+e+f+{+g+Q h+i+",
"j+k+D l+. m+n+o+p+q+r+s+%.t+u+v+&.w+8+x+y+z+A+B+C+D+).f+E+Q F+G+",
"H+I+M.J+K+$.L+M+N+O+P+Q+R+S+T+U+V+W+w+X+Y+Z+`+ @.@v.+@@@#@$@%@&@",
"*@=@=.-@;@>@,@W++@]+g+-@n++.'@U+)@V+W+!@~@{@]@^@/@(@_@:@@@<@[@}@",
"|@1@2@s+3@4@5@6@7@8@9@0@a@ .b@c@d@)@d@e@f@g@h@i@j@k@l@m@n@o@p@q@",
"r@s@t@u@v@w@x@y@z@A@B@C@D@O.E@F@~@B G@H@I@J@K@L@M@N@O@P@Q@R@S@T@",
"U@V@t@W@X@Y@Z@`@ #.#+#@###$#b@%#&#V+&#*#=#-#;#>#,#'#)#!#~#o@{#]#",
"^#/#R@(#_#_#:#<#[#:#}#%#$.,.|#1#2#3#4#5#6#7#8#9#0#a#b#c#d#e#f#T@",
"g#h#R@c@c@U+i#j#k#` t.~.l#m#n#*.4+o#p#q#r#s#t#u#v#w#x#y#z#A#B#T@",
"C#D#E ` E#-.E#F#G#H#I#~.J#K#L#P.Y.M#N#O#P#Q#R#S#T#U#V#W#X#Y#B#T@",
"{ Z#`# $ $t..$+$@$#$J#3#3#$$%$8.M#&$*$=$-$;$>$,$'$2#)$!$~${$f#T@",
"]$^$/$($I#_$.$:$<$t+[$}$}$|$1$2$&$3$E@4$5$6$7$8$9$0$a$b$c$d$f#T@",
"e$f$/$($I#~.;.g$h$3+i$j$i$'@k$l$&$m#*$m$n$o$p$q$r$s$t$u$v$w$f#T@",
"x$y$/$z$($3#>.A$B$>.4+4+4+C$D$E$m#F$Z.G$H$I$J$K$L$M$N$O$P$w$f#]#",
"/ Q$[.j$}$}$R$S$T$t.Y.U$o#V$W$X$Y$Z$`$ %.%+%@%#%$%%%&%*%=%-%f#]#",
"( ;%>%,%4+4+I#'%)%2#4$p#!%~%{%X$]%^%/%(%_%:%<%[%}%|%&%1%2%-%f#]#",
"3%4%[.4$Y.o#5%6%7%4#&$N#8%9%0%a%b%c%d%e%f%g%h%i%j%k%l%m%n%o%f#]#",
"p%q%c@r%M#s%}$t%u%v%m#w%*$x%y%z%A%B%d#C%D%E%F%G%H%I%m%J%K%o%f#]#",
"L%M%[.N%N#&$O%P%Q%O%Y$Y$Y$R%S%T%U%V%W%X%Y%Z%`% &.&+&@&#&$&%&f#]#",
"&&*&W+=&m#K#&$-&;&&$C$C$b%>&,&'&)&!&~&{&]&^&/&(&_&:&@&<&[&}&|&]#",
"1&2&3&4&i$5&m#[+p#E@E@Z$E@6&{%_@c%7&8&9&0&N$a&b&c&d&e&f&g&h&i&]#",
"j&k&U+l&m&G@G@n&n&n&n&o&o&p&q&r&s&s&t&u&v&w&x&y&y&z&A&B&z&C&D&T@",
"E&F&G&H&I&J&K&9@L&v M&N&O&P&Q&R&S&T&U&V&V&V&V&V&W&W&X&X&Y&Z&`& *",
".*+*@*#*$*$*%*&***=*-*;*>*,*'*)*!*~*{*{*{*{*{*{*{*]*]*]*^*/*(*_*"};
