/* XPM */
static const char * gomme_xpm[] = {
"20 16 99 2",
"  	c None",
". 	c #6B655A",
"+ 	c #393431",
"@ 	c #211C18",
"# 	c #212021",
"$ 	c #181818",
"% 	c #212018",
"& 	c #292421",
"* 	c #736963",
"= 	c #7B756B",
"- 	c #7B6963",
"; 	c #CEAEA5",
"> 	c #E7BAB5",
", 	c #E7B6AD",
"' 	c #E7BAAD",
") 	c #E7B2A5",
"! 	c #E7AEA5",
"~ 	c #CEA29C",
"{ 	c #634142",
"] 	c #84615A",
"^ 	c #9C9284",
"/ 	c #7B6563",
"( 	c #DEB6AD",
"_ 	c #DEB2AD",
": 	c #DEB2A5",
"< 	c #DEAEA5",
"[ 	c #E7AAA5",
"} 	c #F79694",
"| 	c #522C29",
"1 	c #BD9A94",
"2 	c #E7B2AD",
"3 	c #FF8684",
"4 	c #4A2421",
"5 	c #ADA694",
"6 	c #73615A",
"7 	c #311410",
"8 	c #6B6963",
"9 	c #FF8E8C",
"0 	c #EF7D7B",
"a 	c #423C39",
"b 	c #4A4142",
"c 	c #E7B6B5",
"d 	c #E7A6A5",
"e 	c #FF8A8C",
"f 	c #AD595A",
"g 	c #5A5D52",
"h 	c #A59E8C",
"i 	c #947D7B",
"j 	c #E7A69C",
"k 	c #F79A94",
"l 	c #633031",
"m 	c #847973",
"n 	c #4A4942",
"o 	c #E7AEAD",
"p 	c #FF9294",
"q 	c #CE6D6B",
"r 	c #4A3C39",
"s 	c #949284",
"t 	c #BDB2A5",
"u 	c #844542",
"v 	c #636152",
"w 	c #9C9A8C",
"x 	c #73716B",
"y 	c #A59A9C",
"z 	c #EFA29C",
"A 	c #EFAEAD",
"B 	c #4A4542",
"C 	c #EFB6B5",
"D 	c #EFD3CE",
"E 	c #EFD7D6",
"F 	c #EFDBD6",
"G 	c #F7BEBD",
"H 	c #FFAEAD",
"I 	c #A55552",
"J 	c #5A4942",
"K 	c #948E84",
"L 	c #B5B2A5",
"M 	c #211818",
"N 	c #FF9A9C",
"O 	c #FFA2A5",
"P 	c #5A3431",
"Q 	c #9C968C",
"R 	c #BDBAAD",
"S 	c #311818",
"T 	c #CE8284",
"U 	c #BD7573",
"V 	c #524142",
"W 	c #847D73",
"X 	c #ADA294",
"Y 	c #6B5D52",
"Z 	c #FF9694",
"` 	c #524942",
" .	c #ADA69C",
"..	c #313029",
"+.	c #101008",
"@.	c #000000",
"#.	c #080400",
"$.	c #393C39",
"%.	c #848273",
"          . + @ # @ $ % @ @ @ % & & *   ",
"        = - ; >     > , ' , ) ! ! ~ { ] ",
"      ^ / ( _ : < < < ! ! [ [ [ [ < } | ",
"      * 1 2 < < < < ! ! [ [ [ [ [ _ 3 4 ",
"    5 6 , ! < < < ! ! [ [ [ [ [ ! [ 3 7 ",
"    8 ~ ! ! ! ! [ [ [ [ [ [ [ [ ! 9 0 a ",
"    b c [ [ [ [ [ [ [ [ [ d [ d , e f g ",
"  h i 2 [ ! [ [ [ [ [ [ [ [ j [ k 3 l m ",
"  n > [ d [ [ [ [ [ [ [ d j j o p q r s ",
"t r 2 [ [ [ [ [ d [ d j j j j > 9 u v w ",
"x y c ! [ j j j j j j z z z   A e l = 5 ",
"B C D E F E E E E E E E E D G H I J K L ",
"M N 3 3 3 3 3 3 3 3 3 3 3 3 9 O P . Q R ",
"S T p 3 3 3 3 3 3 3 3 3 3 3 3 U V W X   ",
"Y I N Z 3 e e e 3 3 3 3 3 3 3 u ` s L   ",
" ...+.@.@.@.@.@.@.@.@.@.@.@.#.$.%.h     "};
