/* XPM */
static const char * graph_xpm[] = {
	"14 14 6 1",
	"      c None",
	".     c #030003",
	"+     c #FFFFFF",
	"@     c #FC0D00",
	"#     c #2F28EF",
	"$     c #0000FC",
	"..............",
	".++++@@++++++.",
	".++++@@++++++.",
	".+++@++@+++++.",
	".++@++++@@+++.",
	".+@+++++@@++#.",
	".++++##+++@+#.",
	".++++##++++$+.",
	".+++#++#++$+@.",
	".++#++++##+++.",
	".+#+++++##+++.",
	".++++++++++++.",
	".++++++++++++.",
	".............."};
