/* XPM */
static const char * graph_disabled_xpm[] = {
"14 14 5 1",
" 	c None",
".	c #666666",
"+	c #FFFFFF",
"@	c #999999",
"#	c #747474",
"..............",
".++++@@++++++.",
".++++@@++++++.",
".+++@++@+++++.",
".++@++++@@+++.",
".+@+++++@@++#.",
".++++##+++@+#.",
".++++##++++#+.",
".+++#++#++#+@.",
".++#++++##+++.",
".+#+++++##+++.",
".++++++++++++.",
".++++++++++++.",
".............."};
