/* XPM */
static const char * gray_map_xpm[] = {
"16 15 5 1",
" 	c None",
".	c #000000",
"+	c #C2BFA5",
"@	c #FFFFFF",
"#	c #808080",
".++++@@@@++++@@@",
".+##++@@++##++@@",
".####++++####+++",
".#..##++##..##++",
".#..##++##..##++",
".####++++####+++",
".+##++@@++##++@@",
".++++@@@@++++@@@",
".++++@@@@++++@@@",
".+##++@@++##++@@",
".####++++####+++",
".#..##++##..##++",
".#..##++##..##++",
".####++++####+++",
"................"};
