/* XPM */
static const char * grid_only_xpm[] = {
"20 18 69 1",
" 	c None",
".	c #101010",
"+	c #212021",
"@	c #181818",
"#	c #292C29",
"$	c #181418",
"%	c #5A595A",
"&	c #B5AEB5",
"*	c #9C9E9C",
"=	c #6B696B",
"-	c #FFFBFF",
";	c #9C969C",
">	c #313031",
",	c #393839",
"'	c #EFEBEF",
")	c #393C39",
"!	c #211C21",
"~	c #101410",
"{	c #D6CFD6",
"]	c #F7F7F7",
"^	c #4A454A",
"/	c #636163",
"(	c #DEDFDE",
"_	c #A59EA5",
":	c #080C08",
"<	c #424142",
"[	c #736D73",
"}	c #9C9A9C",
"|	c #B5B2B5",
"1	c #312C31",
"2	c #181C18",
"3	c #BDBEBD",
"4	c #949294",
"5	c #292829",
"6	c #212421",
"7	c #FFFFFF",
"8	c #5A5D5A",
"9	c #8C8A8C",
"0	c #EFE7EF",
"a	c #A5A2A5",
"b	c #DED7DE",
"c	c #524D52",
"d	c #7B797B",
"e	c #D6D7D6",
"f	c #525152",
"g	c #FFF7FF",
"h	c #6B6D6B",
"i	c #292429",
"j	c #ADAAAD",
"k	c #737173",
"l	c #313431",
"m	c #EFEFEF",
"n	c #393439",
"o	c #DEDBDE",
"p	c #948E94",
"q	c #6B656B",
"r	c #4A4D4A",
"s	c #525552",
"t	c #ADAEAD",
"u	c #737573",
"v	c #949694",
"w	c #847D84",
"x	c #E7E7E7",
"y	c #635D63",
"z	c #848684",
"A	c #8C8E8C",
"B	c #424542",
"C	c #D6D3D6",
"D	c #4A494A",
"           ..       ",
"         +@.#$@     ",
"        @%&@%*$     ",
"       $=-;>,')!    ",
"       ~{]^/+(_:    ",
"      ~)<[@}@|&12   ",
"      @34>$5.!#66   ",
"     $[77%8 590a.   ",
"     ~b7'6_-cd7e~   ",
"    ~fg7|@{7hf7]i   ",
"    .ffjklm7_5'',+  ",
"   @nopn2+<qr!s>+$  ",
"   :477t.ua*v69*w:  ",
"   ix77q)g777yd7o@  ",
"  .z77'6A7777*B]]>+ ",
" .+^9Ca@{7777b6C7v: ",
"$~4t%5+6=}a*_h+)D5+>",
")     /,#1##++6++  ."};
