/* XPM */
static const char * grid_poly_xpm[] = {
"20 18 86 1",
" 	c None",
".	c #101010",
"+	c #312021",
"@	c #181818",
"#	c #312829",
"$	c #181418",
"%	c #311418",
"&	c #FFCF21",
"*	c #211410",
"=	c #211418",
"-	c #FFBE29",
";	c #FFC329",
">	c #393031",
",	c #211C21",
"'	c #181410",
")	c #FFAE31",
"!	c #636163",
"~	c #291C21",
"{	c #100C08",
"]	c #101410",
"^	c #423839",
"/	c #4A3C39",
"(	c #FF9E39",
"_	c #BD7173",
":	c #BD7573",
"<	c #312C31",
"[	c #181C18",
"}	c #211818",
"|	c #FF8A39",
"1	c #FF8E42",
"2	c #732021",
"3	c #292829",
"4	c #392829",
"5	c #292421",
"6	c #212421",
"7	c #7B595A",
"8	c #FF7D42",
"9	c #FF7939",
"0	c #8C3C39",
"a	c #FF6931",
"b	c #FF6531",
"c	c #524D52",
"d	c #525152",
"e	c #FF5529",
"f	c #291418",
"g	c #5A494A",
"h	c #6B1C18",
"i	c #5A4D4A",
"j	c #FF4121",
"k	c #737173",
"l	c #313031",
"m	c #FF4521",
"n	c #292429",
"o	c #732C29",
"p	c #212021",
"q	c #4A3031",
"r	c #FF3018",
"s	c #393439",
"t	c #5A3439",
"u	c #AD2829",
"v	c #843031",
"w	c #5A4D52",
"x	c #180C08",
"y	c #FF1C10",
"z	c #FF1808",
"A	c #181010",
"B	c #312421",
"C	c #080C08",
"D	c #FF0400",
"E	c #FF0808",
"F	c #6B656B",
"G	c #635D63",
"H	c #211010",
"I	c #F70000",
"J	c #523C42",
"K	c #E70000",
"L	c #291818",
"M	c #949294",
"N	c #ADAEAD",
"O	c #5A595A",
"P	c #D60000",
"Q	c #CE0000",
"R	c #393C39",
"S	c #4A494A",
"T	c #393839",
"U	c #292C29",
"           ..       ",
"         +@.#$@     ",
"        %&&*&&$     ",
"       =-;->-;-,    ",
"       ')))!~)){    ",
"      ]^/(@(@_:<[   ",
"      }|12*3.,456   ",
"     $7890983898.   ",
"     'aba+abcbab'   ",
"    ]deeefeeegeeh   ",
"    .idjklmjmnmjop  ",
"   @qrrs[~tuv,wlp$  ",
"   xyzyzAzyzyByzyC  ",
"   BDEDF^EDEDGDED@  ",
"  HIIII6IIIIIIJII2p ",
" .pKKKKLKKKKKK5KKK{ ",
"$]MNO3p6PQQQPQpRS3pl",
"R     !TU<UUpp6pp  ."};
