/* XPM */
static const char *hand_xpm[] = {
/* width height num_colors chars_per_pixel */
"    20    19      256            2",
/* colors */
"`` c #000000",
"`. c #800000",
"`# c #008000",
"`a c #808000",
"`b c #000080",
"`c c #800080",
"`d c #008080",
"`e c None",
"`f c #4f657d",
"`g c #8399b1",
"`h c #fffcf4",
"`i c #000000",
"`j c #ffff00",
"`k c #000000",
"`l c #d0e5d0",
"`m c #000000",
"`n c #dbdbdb",
"`o c #000000",
"`p c #bcd8f4",
"`q c #000000",
"`r c #bad6f4",
"`s c #000000",
"`t c #d0d0d0",
"`u c #000000",
"`v c #00ffff",
"`w c #000000",
"`x c #b7b7ba",
"`y c #000000",
"`z c #b1b1b1",
"`A c #000000",
"`B c #00ff00",
"`C c #000000",
"`D c #80a9fe",
"`E c #000000",
"`F c #9c9c9c",
"`G c #000000",
"`H c #9c9c00",
"`I c #000000",
"`J c #ff00ff",
"`K c #000000",
"`L c #009c9c",
"`M c #000000",
"`N c #ff0000",
"`O c #000000",
"`P c #009c00",
"`Q c #000000",
"`R c #9c009c",
"`S c #000000",
"`T c #9c0000",
"`U c #000000",
"`V c #000000",
"`W c #000000",
"`X c #000000",
"`Y c #000000",
"`Z c #000000",
"`0 c #000000",
"`1 c #000000",
"`2 c #000000",
"`3 c #000000",
"`4 c #000000",
"`5 c #000000",
"`6 c #000000",
"`7 c #000000",
"`8 c #000000",
".` c #000000",
".. c #000000",
".# c #000000",
".a c #000000",
".b c #000000",
".c c #000000",
".d c #000000",
".e c #000000",
".f c #000000",
".g c #000000",
".h c #000000",
".i c #000000",
".j c #000000",
".k c #000000",
".l c #000000",
".m c #000000",
".n c #000000",
".o c #000000",
".p c #000000",
".q c #000000",
".r c #000000",
".s c #000000",
".t c #000000",
".u c #000000",
".v c #000000",
".w c #000000",
".x c #000000",
".y c #000000",
".z c #000000",
".A c #000000",
".B c #000000",
".C c #000000",
".D c #000000",
".E c #000000",
".F c #000000",
".G c #000000",
".H c #000000",
".I c #000000",
".J c #000000",
".K c #000000",
".L c #000000",
".M c #000000",
".N c #000000",
".O c #000000",
".P c #000000",
".Q c #000000",
".R c #000000",
".S c #000000",
".T c #000000",
".U c #000000",
".V c #000000",
".W c #000000",
".X c #000000",
".Y c #000000",
".Z c #000000",
".0 c #000000",
".1 c #000000",
".2 c #000000",
".3 c #000000",
".4 c #000000",
".5 c #000000",
".6 c #000000",
".7 c #000000",
".8 c #000000",
"#` c #000000",
"#. c #000000",
"## c #000000",
"#a c #000000",
"#b c #000000",
"#c c #000000",
"#d c #000000",
"#e c #000000",
"#f c #000000",
"#g c #000000",
"#h c #000000",
"#i c #000000",
"#j c #000000",
"#k c #000000",
"#l c #000000",
"#m c #000000",
"#n c #000000",
"#o c #000000",
"#p c #000000",
"#q c #000000",
"#r c #000000",
"#s c #000000",
"#t c #000000",
"#u c #000000",
"#v c #000000",
"#w c #000000",
"#x c #000000",
"#y c #000000",
"#z c #000000",
"#A c #000000",
"#B c #000000",
"#C c #000000",
"#D c #000000",
"#E c #000000",
"#F c #000000",
"#G c #000000",
"#H c #000000",
"#I c #000000",
"#J c #000000",
"#K c #000000",
"#L c #000000",
"#M c #000000",
"#N c #000000",
"#O c #000000",
"#P c #000000",
"#Q c #000000",
"#R c #000000",
"#S c #000000",
"#T c #000000",
"#U c #000000",
"#V c #000000",
"#W c #000000",
"#X c #000000",
"#Y c #000000",
"#Z c #000000",
"#0 c #000000",
"#1 c #000000",
"#2 c #000000",
"#3 c #000000",
"#4 c #000000",
"#5 c #000000",
"#6 c #000000",
"#7 c #000000",
"#8 c #000000",
"a` c #000000",
"a. c #000000",
"a# c #000000",
"aa c #000000",
"ab c #000000",
"ac c #000000",
"ad c #000000",
"ae c #000000",
"af c #000000",
"ag c #000000",
"ah c #000000",
"ai c #000000",
"aj c #000000",
"ak c #000000",
"al c #000000",
"am c #000000",
"an c #000000",
"ao c #000000",
"ap c #000000",
"aq c #000000",
"ar c #000000",
"as c #000000",
"at c #000000",
"au c #000000",
"av c #000000",
"aw c #000000",
"ax c #000000",
"ay c #000000",
"az c #000000",
"aA c #000000",
"aB c #000000",
"aC c #000000",
"aD c #000000",
"aE c #000000",
"aF c #000000",
"aG c #000000",
"aH c #000000",
"aI c #000000",
"aJ c #000000",
"aK c #000000",
"aL c #000000",
"aM c #000000",
"aN c #000000",
"aO c #000000",
"aP c #000000",
"aQ c #000000",
"aR c #000000",
"aS c #000000",
"aT c #000000",
"aU c #000000",
"aV c #000000",
"aW c #00009c",
"aX c #0000ff",
"aY c #000000",
"aZ c #c1ccd9",
"a0 c #a0a0a4",
"a1 c #808080",
"a2 c #ff0000",
"a3 c #00ff00",
"a4 c #ffff00",
"a5 c #0000ff",
"a6 c #ff00ff",
"a7 c #00ffff",
"a8 c #ffffff",
/* pixels */
"`e`e`e`e````a1`e````a1`````e`e`e`e`e`e`e",
"`e`e`e``a8a8````a8`e``a8`e```e`e`e`e`e`e",
"`e`e`e```ea8`e```ea8```ea8``a1```e`e`e`e",
"`e`e`e`e``a8a8`ea1a8`e``a8`e``a8```e`e`e",
"`e`e`e`e```ea8`e```ea8``a8a8```ea8```e`e",
"`e`e`e`e`e``a8a8```ea8```ea8```ea8`e```e",
"`e``a1`e`e```ea8`e``a8`e``a8`e``a8a8```e",
"``a8``a1`ea1``a8a8``a8a8``a8a8``a8a8``a1",
"```ea8``a1`e``a8a8``a8a8``a8a8``a8a8``a1",
"`e``a8a8``a1``a8a8a8a8a8a8a8a8a8a8a8``a1",
"`e```ea8a8````a8a8a8a8a8a8a8a8a8a8`e``a1",
"`e`e``a8a8a8a8a8a8a8a8a8a8a8a8a8a8``a1`e",
"`e`e```ea8a8a8a8a8a8a8a8a8a8a8a8`e``a1`e",
"`e`e`e``a8a8a8a8a8a8a8a8a8a8a8a8``a1`e`e",
"`e`e`e`e``a8a8a8a8a8a8a8a8a8a8`e``a1`e`e",
"`e`e`e`e`e``a8a8a8a8a8a8a8a8a8``a1`e`e`e",
"`e`e`e`e`e``````a8a8a8a8````````a1`e`e`e",
"`e`e`e`e`e``a8a8a8a8a8a8a8a8``a1`e`e`e`e",
"`e`e`e`e`e`e````````````````a1`e`e`e`e`e"
};
