/* XPM */
static const char * hBars_xpm[] = {
"17 16 16 1",
" 	c None",
".	c #000000",
"+	c #FFFFFF",
"@	c #030003",
"#	c #830000",
"$	c #E83703",
"%	c #0000FC",
"&	c #FEFEFE",
"*	c #FDFDFD",
"=	c #28DA18",
"-	c #F7F7F7",
";	c #F8F8F8",
">	c #F5F5F6",
",	c #F9F9FA",
"'	c #FBFBFB",
")	c #FCFCFC",
".................",
".+++++++++++++++.",
".@@@@@@+++++++++.",
".#####.+++++++++.",
"..............@+.",
".$$$$$$$$$$$$$@+.",
".$$$$$$$$$$$$$@+.",
"...............+.",
".%%%%%%%%%%%.&&+.",
".%%%%%%%%%%%.*&+.",
".@@@@@@@@@@@.**+.",
".=======@+++++++.",
".=======.-;+++*+.",
".@@@@@@@@>++,')+.",
".+++++++++++++++.",
"................."};
