/* XPM */
static const char * hor_steps_xpm[] = {
"13 13 2 1",
" 	c None",
".	c #6B0808",
"            .",
"            .",
"            .",
"            .",
"        .....",
"        .    ",
"        .    ",
"        .    ",
"    .....    ",
"    .        ",
"    .        ",
"    .        ",
".....        "};
