/* XPM */
static const char* const image3_xpm[] = {
"74 77 168 2",
"  	c None",
". 	c #FFFFFF",
"+ 	c #E0E0E0",
"@ 	c #FAFAFA",
"# 	c #363636",
"$ 	c #ABABAB",
"% 	c #000000",
"& 	c #BDBDBD",
"* 	c #737373",
"= 	c #858585",
"- 	c #E6E6E6",
"; 	c #C9C9C9",
"> 	c #939493",
", 	c #808080",
"' 	c #878787",
") 	c #D6D6D6",
"! 	c #969696",
"~ 	c #030303",
"{ 	c #383838",
"] 	c #4C4C4C",
"^ 	c #1A1A1A",
"/ 	c #080808",
"( 	c #C2C2C2",
"_ 	c #EBEBEB",
": 	c #F0F0F0",
"< 	c #8C8C8C",
"[ 	c #7A7A7A",
"} 	c #A3A3A3",
"| 	c #999999",
"1 	c #A1A1A1",
"2 	c #FFE6E6",
"3 	c #FFF0F0",
"4 	c #828282",
"5 	c #949494",
"6 	c #F2F2F2",
"7 	c #474747",
"8 	c #545454",
"9 	c #FF8080",
"0 	c #FFB2B2",
"a 	c #0F0F0F",
"b 	c #B5B5B5",
"c 	c #CFCFCF",
"d 	c #262626",
"e 	c #333333",
"f 	c #DEDEDE",
"g 	c #FDFDFD",
"h 	c #D7D7D7",
"i 	c #B7B7B7",
"j 	c #C4C4C4",
"k 	c #F7F7F7",
"l 	c #CCCCCC",
"m 	c #2E2E2E",
"n 	c #B2B2B2",
"o 	c #DFDFDF",
"p 	c #ACACAC",
"q 	c #ADADAD",
"r 	c #D3D3D3",
"s 	c #CDCDCD",
"t 	c #AAAAAA",
"u 	c #D4D4D4",
"v 	c #A9A9A9",
"w 	c #DBDBDB",
"x 	c #E3E3E3",
"y 	c #E5E5E5",
"z 	c #B1B1B1",
"A 	c #D2D2D2",
"B 	c #EAEAEA",
"C 	c #E2E2E2",
"D 	c #C8C8C8",
"E 	c #AFAFAF",
"F 	c #F5F5F5",
"G 	c #E9E9E9",
"H 	c #B6B6B6",
"I 	c #B9B9B9",
"J 	c #F9F9F9",
"K 	c #B8B8B8",
"L 	c #C0C0C0",
"M 	c #B4B4B4",
"N 	c #EFD9D9",
"O 	c #AAA8A8",
"P 	c #F2DBDB",
"Q 	c #EED6D6",
"R 	c #ABA8A8",
"S 	c #EED8D8",
"T 	c #BCB1B1",
"U 	c #C4B6B6",
"V 	c #C5B7B7",
"W 	c #B6ADAD",
"X 	c #EEEEEE",
"Y 	c #DADADA",
"Z 	c #BEBEBE",
"` 	c #B0B0B0",
" .	c #FBFBFB",
"..	c #C6C6C6",
"+.	c #C5C5C5",
"@.	c #BABABA",
"#.	c #AEAEAE",
"$.	c #D0D0D0",
"%.	c #FCFCFC",
"&.	c #141414",
"*.	c #D8D8D8",
"=.	c #C7C7C7",
"-.	c #575757",
";.	c #3D3D3D",
">.	c #C3C3C3",
",.	c #5E5E5E",
"'.	c #7D6E6E",
").	c #FF9999",
"!.	c #B39D9D",
"~.	c #E69292",
"{.	c #F09393",
"].	c #ADA2A2",
"^.	c #F49999",
"/.	c #FFC2C2",
"(.	c #757575",
"_.	c #918787",
":.	c #F7AEAE",
"<.	c #ABA6A6",
"[.	c #FCB2B2",
"}.	c #C3A0A0",
"|.	c #C7A4A4",
"1.	c #FFD1D1",
"2.	c #EDEDED",
"3.	c #B3B3B3",
"4.	c #666666",
"5.	c #2B2B2B",
"6.	c #BBBBBB",
"7.	c #292929",
"8.	c #E8E8E8",
"9.	c #9C9C9C",
"0.	c #E4E4E4",
"a.	c #E7E7E7",
"b.	c #CACACA",
"c.	c #E4A7A7",
"d.	c #B59F9F",
"e.	c #E6A7A7",
"f.	c #B0A3A3",
"g.	c #C19E9E",
"h.	c #F9B0B0",
"i.	c #CBCBCB",
"j.	c #F4F4F4",
"k.	c #BCBCBC",
"l.	c #707070",
"m.	c #242424",
"n.	c #0A0A0A",
"o.	c #454545",
"p.	c #7D7D7D",
"q.	c #595959",
"r.	c #525252",
"s.	c #5C5C5C",
"t.	c #D9D9D9",
"u.	c #121212",
"v.	c #919191",
"w.	c #8A8A8A",
"x.	c #171717",
"y.	c #A8A8A8",
"z.	c #696969",
"A.	c #9E9E9E",
"B.	c #404040",
"C.	c #616161",
"D.	c #8F8F8F",
"E.	c #4F4F4F",
"F.	c #050505",
"G.	c #4A4A4A",
"H.	c #212121",
"I.	c #3B3B3B",
"J.	c #636363",
"K.	c #D1D1D1",
". . . . . . . . . . + . . . . . . . . . . . . . . . . . . . . . . . . . . . . . . . . . . . . . . . . . . . . . . . . . . . . . . . . . . . . . . . ",
". . . . . . . . . @ # . . . . . . . . . . . . . . . . . . . . . . . . . . . . . . . . . . . . . . . . . . . . . . . . . . . . . . . . . . . . . . . ",
". . . . . . . . . $ % & . . . . . . . . . . . . . . . . . . . . . . . . . . . . . . . . . . . . . . . . . . . . . . . . . . . . . . . . . . . . . . ",
". . . . . . . . . * % = . . . . . . . . . . . . . . . . . . . . . . . . . . . . . . . . . . . . . . . . . . . . . . . . . . . . . . . . . . . . . . ",
". . . . . . . . . - % . . . . . . . . . . . . . . . . . . . . . . . . . . . . . . . . . . . . . . . . . . . . . . . . . . . . . . . . . . . . . . . ",
". . . . . . . . . - % . . . . . . . . . . . . . . . . . . . . . . . . . . . . . . . . . . . . . . . . . . . . . . . . . . . . . . . . . . . . . . . ",
". . . ; > , ' ) . - % . . . . . . . . . . . . . . . . . . . . . . . . . . . . . . . . . . . . . . . . . . . . . . . . . . . . . . . . . . . . . . . ",
". . ! ~ { ] ^ / ; - % . . . . . . . . . . . . . . . . . . . . . . . . . . . . . . . . . . . . . . . . . . . . . . . . . . . . . . . . . . . . . . . ",
". . ( - . . _ % , - % . . . . . . . . . . . . . . . . . . . . . . . . . . . . . . . . . . . . . . . . . . . . . . . . . . . . . . . . . . . . . . . ",
". . . . . . : % < - % . . . . . . . . . . . . . . . . . . . . . . . . . . . . . . . . . . . . . . . . . . . . . . . . . . . . . . . . . . . . . . . ",
". . . . . . [ / + - % . . . . . . . . . . . . . . . . . . . . . . . . . . . . . . . . . . . . . . . . . . . . . . . . . . . . . . . . . . . . . . . ",
". . . . . } ~ | @ < % 1 2 2 2 2 2 2 2 2 2 2 2 2 2 2 2 2 2 2 2 2 2 2 2 2 2 2 2 2 2 2 2 2 2 2 2 2 2 2 2 2 2 2 2 2 2 2 2 2 2 2 2 2 2 2 2 2 2 2 3 . . . ",
". . . . 4 ~ 5 . 6 7 % 8 9 9 9 9 9 9 9 9 9 9 9 9 9 9 9 9 9 9 9 9 9 9 9 9 9 9 9 9 9 9 9 9 9 9 9 9 9 9 9 9 9 9 9 9 9 9 9 9 9 9 9 9 9 9 9 9 9 9 0 . . . ",
". . 6 8 a b . . . - % . . . . . . . . . . . . . . . . . . . . . . . . . . . . . . . . . . . . . . . . . . . . . . . . . . . . . . . . . . . . . . . ",
". c d e f . . . . - % . . . . . . . . . . . . . . . . . g h i i i j k . . . . . . . . . . . . . . . . . . . . . . . . . . . . . . . . . . . . . . . ",
"l / m $ n n n c . - % . . . . . . . . . . . . . . . . o p q ; r s n t u . . . . . . . . . . . . . . . . . . . . . . . . . . . . . . . . . . . . . . ",
"} e e e e e e ! . - % . . . . . . . . . . . . . . . l v ) . . . . . h t w . . . . . . . . . . . . . . . . . . . . . . . . . . . . . . . . . . . . . ",
". . . . . . . . . - % . . . . . . . . . . . . . . x t y . . . . . . . 6 z ; . . . . . . . . . . . . . . . . . . . . . . . . . . . . . . . . . . . . ",
". . . . . . . . . - % . . . . . . . . . . . . . . q A . . . . . . . . . B t C . . . . . . . . . . . . . . . . . . . . . . . . . . . . . . . . . . . ",
". . . . . . . . . - % . . . . . . . . . . . . . D E . . . . . . . . . . . ) $ k . . . . . . . . . . . . . . . . . . . . . . . . . . . . . . . . . . ",
". . . . . . . . . - % . . . . . . . . . . . . F t G . . . . . . . . . . . . & H . . . . . . . . . . . . . . . . . . . . . . . . . . . . . . . . . . ",
". . . . . . . . . - % . . . . . . . . . . . . c I . . . . . . . . . . . . . F $ ) . . . . . . . . . . . . . . . . . . . . . . . . . . . . . . . . . ",
". . . . . . . . . - % . . . . . . . . . . . : p B . . . . . . . . . . . . . . C t J . . . . . . . . . . . . . . . . . . . . . . . . . . . . . . . . ",
". . . . . . . . . - % . . . . . . . . . . . K L . . . . . . . . . . . . . . . . M j . . . . . . . . . . . . . . . . . . . . . . . . . . . . . . . . ",
". . . . . . . . . - % 2 2 2 2 2 2 2 2 2 2 N O P 2 2 2 2 2 2 2 2 2 2 2 2 2 2 2 2 Q R S 2 2 2 2 2 2 2 2 2 2 2 2 2 2 2 2 2 2 2 2 2 2 2 2 2 2 2 3 . . . ",
". . . . . . . . . - % 2 2 2 2 2 2 2 2 2 2 T U 2 2 2 2 2 2 2 2 2 2 2 2 2 2 2 2 2 2 V W 2 2 2 2 2 2 2 2 2 2 2 2 2 2 2 2 2 2 2 2 2 2 2 2 2 2 2 3 . . . ",
". . . . . . . . . - % . . . . . . . . . . t X . . . . . . . . . . . . . . . . . . J v k . . . . . . . . . . . . . . . . . . . . . . . . . . . . . . ",
". . . . . . . . . - % . . . . . . . . . Y q . . . . . . . . . . . . . . . . . . . . Z `  .. . . . . . . . . . . . . . . . . . . . . . . . . . . . . ",
". . . . . . . . . - % . . . . . . . . . M ... . . . . . . . . . . . . . . . . . . . . z ... . . . . . . . . . . . . . . . . . . . . . . . . . . . . ",
". . . . . . . . . - % . . . . . . . . : v J . . . . . . . . . . . . . . . . . . . . . + p . . . . . . . . . . . . . . . . . . . . . . . . . . . . . ",
". . . . . . . . . - % . . . . . . . . +.@.. . . . . . . . . . . . . . . . . . . . . . . #.r . . . . . . . . . . . . . . . . . . . . . . . . . . . . ",
". . . . . . . . . - % . . . . . . . . q Y . . . . . . . . . . . . . . . . . . . . . . . ) p . . . . . . . . . . . . . . . . . . . . . . . . . . . . ",
". . . . . . j ( . - % . . . . . . . + p g . . . . . . . . . . . . . . . . . . . . . . . . p $.. . . . . . . . . . . . . . . . . . . . . . . . . . . ",
". . . . %.& &.< . - % . . . . . . . i +.. . . . . . . . . . . . . . . . . . . . . . . . . *.p . . . . . . . . . . . . . . . . . . . . . . . . . . . ",
". . . b % % % =.. - % . . . . . . . t B . . . . . . . . . . . . . . . . . . . . . . . . . . E ; . . . . . . . . . . . . . . . . . . . . . . . . . . ",
". . . . . 5 / @ . - % . . . . . . o q . . . . . . . . . . . . . . . . . . . . . . . . . . . h q g . . . . . . . . . . . . . . . . . . . . . . . . . ",
". . . . . -.;.. . - % . . . . . . Z Z . . . . . . . . . . . . . . . . . . . . . . . . . . . . n >.. . . . . . . . . . . . . . . . . . . . . . . . . ",
". . . . . ^ [ . F ,.% '.).).).).).!.~.).).).).).).).).).).).).).).).).).).).).).).).).).).).).{.].^.).).).).).).).).).).).).).).).).).).).)./.. . . ",
". . . . + % n . k (.% _.0 0 0 0 :.<.[.0 0 0 0 0 0 0 0 0 0 0 0 0 0 0 0 0 0 0 0 0 0 0 0 0 0 0 0 0 }.|.0 0 0 0 0 0 0 0 0 0 0 0 0 0 0 0 0 0 0 0 1.. . . ",
". . . . } % 2.. . - % . . . . . $.3.. . . . . . . . . . . . . . . . . . . . . . . . . . . . . . k p y . . . . . . . . . . . . . . . . . . . . . . . ",
". . . . 4.5.. . . - % . . . . . 6.... . . . . . . . . . . . . . . . . . . . . . . . . . . . . . . ; z . . . . . . . . . . . . . . . . . . . . . . . ",
". . l l 7.] l + . - % . . . . . 3.u . . . . . . . . . . . . . . . . . . . . . . . . . . . . . . .  .p $.. . . . . . . . . . . . . . . . . . . . . . ",
". 8.e e e e e 9.. - % . . . . . t X . . . . . . . . . . . . . . . . . . . . . . . . . . . . . . . . x t 0.. . . . . . . . . . . . . . . . . . . . . ",
". . . . . . . . . - % . . . . . t . . . . . . . . . . . . . . . . . . . . . . . . . . . . . . . . . . $.q . . . . . . . . . . . . . . . . . . . . . ",
". . . . . . . . . - % . . . . a.p . . . . . . . . . . . . . . . . . . . . . . . . . . . . . . . . . . . ` 6.. . . . . . . . . . . . . . . . . . . . ",
". . . . . . . . . - % . . . . >.I . . . . . . . . . . . . . . . . . . . . . . . . . . . . . . . . . . . J q b.. . . . . . . . . . . . . . . . . . . ",
". . . . . . . . . - % . . . . i A . . . . . . . . . . . . . . . . . . . . . . . . . . . . . . . . . . . . X $ l . . . . . . . . . . . . . . . . . . ",
". . . . . . . . . - % . . . . p x . . . . . . . . . . . . . . . . . . . . . . . . . . . . . . . . . . . . . X t ) . . . . . . . . . . . . . . . . . ",
". . . . . . . . . - % . . . . v J . . . . . . . . . . . . . . . . . . . . . . . . . . . . . . . . . . . . . . + t ) . . . . . . . . . . . . . . . . ",
". . . . . . . . . - % . . . F t . . . . . . . . . . . . . . . . . . . . . . . . . . . . . . . . . . . . . . . . C t A . . . . . . . . . . . . . . . ",
". . . . . . . . . - % 0 0 0 c.d.0 0 0 0 0 0 0 0 0 0 0 0 0 0 0 0 0 0 0 0 0 0 0 0 0 0 0 0 0 0 0 0 0 0 0 0 0 0 0 0 0 e.f.g.h.0 0 0 0 0 0 0 0 0 1.. . . ",
". . . . . . . . . - % . . . Y z . . . . . . . . . . . . . . . . . . . . . . . . . . . . . . . . . . . . . . . . . . J 3.#.x . . . . . . . . . . . . ",
". . . . . . . . . - % . . . D 6.. . . . . . . . . . . . . . . . . . . . . . . . . . . . . . . . . . . . . . . . . . . . i.p D F . . . . . . . . . . ",
". . . . . . . . . - % . . . Y $.. . . . . . . . . . . . . . . . . . . . . . . . . . . . . . . . . . . . . . . . . . . . . j.L t K 6 . . . . . . . . ",
". . . . . . . . . - % . . . . . . . . . . . . . . . . . . . . . . . . . . . . . . . . . . . . . . . . . . . . . . . . . . . . a.k.t ` =.y . . . . . ",
". . . . . . . . . - % . . . . . . . . . . . . . . . . . . . . . . . . . . . . . . . . . . . . . . . . . . . . . . . . . . . . . . F i.i k.. . . . . ",
". . . . . . . . . - % . . . . . . . . . . . . . . . . . . . . . . . . . . . . . . . . . . . . . . . . . . . . . . . . . . . . . . . . . . . . . . . ",
". . . . . . . . . - % . . . . . . . . . . . . . . . . . . . . . . . . . . . . . . . . . . . . . . . . . . . . . . . . . . . . . . . . . . . . . . . ",
". . . . . . . . . - % . . . . . . . . . . . . . . . . . . . . . . . . . . . . . . . . . . . . . . . . . . . . . . . . . . . . . . . . . . . . . . . ",
". . . . . . . . . - % . . . . . . . . . . . . . . . . . . . . . . . . . . . . . . . . . . . . . . . . . . . . . . . . . . . . . . . . . . . . . . . ",
". . . . . . . . . - % . . . . . . . . . . . . . . . . . . . . . . . . . . . . . . . . . . . . . . . . . . . . . . . . . . . . . . . . . . . . . . . ",
". . . . . . . . . - % . . . . . . . . . . . . . . . . . . . . . . . . . . . . . . . . . . . . . . . . . . . . . . . . . . . . . . . . . . . . . . . ",
". . . . . . . . . - % . . . . . . . . . . . . . . . . . . . . . . . . ; l.. . . . . . . . . . . . . . . . . . . . . . . . 1 < . . . . . . . ( x . . ",
". . . . . . . . . - % e e e e e e e e e e e e e e e e e e e e e e e e m.n.e e e e e e e e e e e e e e e e e e e e e e e e ^ &.e e e e e e e &.~ o.=.",
". . . . . . . . . . K n n n n n n n n n n n n n n n n n n n n n n n n p.m.n n n n n n n n n n n n n n n n n n n n n n n n q.7 n n n n n n n r.s.( . ",
". . . . . . . . . . . . . . . . . . . . . . . . . . . . . . . . . . . : ; . . . . . . . . . . . . . . . . . . . . . . . . + t.. . . . . . . . . . . ",
". . . . %.= &.% u.v.. . . . . . . . . . . . . . . . . . . . . . . . . . w.| . . . . . . . . . . . . . . . . . . . . . =.4.{ e 7 ( . . . . . . . . . ",
". . . . 4.x.y.l z.~ f . . . . . . . . . . . . . . . . . . . . . . 6 ` l.~ A.. . . . . . . . . . . . . . . . . . . . . B.r.v.5 5./ 8.. . . . . . . . ",
". . . l % ` . . + % n . . . . . . . . . . . . . . . . . . . . . . ( ] e % t.. . . . . . . . . . . . . . . . . . . . . _ . . . ` % l . . . . . . . . ",
". . . C.d . . . - % n . . . . . . . . . . . . . . . . . . . . . . . . , &.. . . . . . . . . . . . . . . . . . . . . . . . . . D.~ 8.. . . . . . . . ",
". . . ^ * . . . =.% =.. . . . . . . . . . . . . . . . . . . . . . . . 7 E.. . . . . . . . . . . . . . . . . . . . . . . . . + &.C.. . . . . . . . . ",
". . f % ` . . . 5 F.F . . . . . . . . . . . . . . . . . . . . . . . %.n.w.. . . . . . . . . . . . . . . . . . . . . . . . f d # F . . . . . . . . . ",
". . K % w . . . E.B.. . . . . . . . . . . . . . . . . . . . . . . . l % =.. . . . . . . . . . . . . . . . . . . . . . . j x.G.: . . . . . . . . . . ",
". . n % - . . 8./ | . . . . . . . . . . . . . . . . . . . . . . . . 5 / k . . . . . . . . . . . . . . . . . . . . . . v.F.(.%.. . . . . . . . . . . ",
". . & % ( . %.q.H.F . . . . . . . . . . . . . . . . . . . . . . . . 8 I.. . . . . . . . . . . . . . . . . . . . . 2.r.u.n . . . . . . . . . . . . . ",
". . @ 7.&.] d x.l . . . . . . . . . . . . . . . . . . . . . . @ , , &.# , K . . . . . . . . . . . . . . . . . . . J.% G.4.4.4.4.K.. . . . . . . . . ",
". . . _ D., 5 : . . . . . . . . . . . . . . . . . . . . . . . 2., , , , , j . . . . . . . . . . . . . . . . . . . 9., , , , , , 8.. . . . . . . . . "};
