/* XPM */
static const char* const image2_xpm[] = {
"74 77 171 2",
"  	c None",
". 	c #FFFFFF",
"+ 	c #E0E0E0",
"@ 	c #FAFAFA",
"# 	c #363636",
"$ 	c #ABABAB",
"% 	c #000000",
"& 	c #BDBDBD",
"* 	c #737373",
"= 	c #858585",
"- 	c #FFE8E8",
"; 	c #FFF7F7",
"> 	c #FFD1D1",
", 	c #FFF0F0",
"' 	c #E6E6E6",
") 	c #FFB2B2",
"! 	c #FFE6E6",
"~ 	c #FF6666",
"{ 	c #FFCCCC",
"] 	c #C9C9C9",
"^ 	c #939493",
"/ 	c #808080",
"( 	c #878787",
"_ 	c #D6D6D6",
": 	c #969696",
"< 	c #030303",
"[ 	c #383838",
"} 	c #4C4C4C",
"| 	c #1A1A1A",
"1 	c #080808",
"2 	c #C2C2C2",
"3 	c #EBEBEB",
"4 	c #F0F0F0",
"5 	c #8C8C8C",
"6 	c #7A7A7A",
"7 	c #A3A3A3",
"8 	c #999999",
"9 	c #A1A1A1",
"0 	c #828282",
"a 	c #949494",
"b 	c #F2F2F2",
"c 	c #474747",
"d 	c #545454",
"e 	c #0F0F0F",
"f 	c #B5B5B5",
"g 	c #CFCFCF",
"h 	c #262626",
"i 	c #333333",
"j 	c #DEDEDE",
"k 	c #FDFDFD",
"l 	c #D7D7D7",
"m 	c #B7B7B7",
"n 	c #C4C4C4",
"o 	c #F7F7F7",
"p 	c #CCCCCC",
"q 	c #2E2E2E",
"r 	c #B2B2B2",
"s 	c #DFDFDF",
"t 	c #ACACAC",
"u 	c #ADADAD",
"v 	c #D3D3D3",
"w 	c #CDCDCD",
"x 	c #AAAAAA",
"y 	c #D4C3C3",
"z 	c #A9A9A9",
"A 	c #AAA8A8",
"B 	c #DB7F7F",
"C 	c #E3E3E3",
"D 	c #E5E5E5",
"E 	c #F2DADA",
"F 	c #B19999",
"G 	c #FFC4C4",
"H 	c #D2D2D2",
"I 	c #FFD4D4",
"J 	c #EA6565",
"K 	c #E2E2E2",
"L 	c #FFA1A1",
"M 	c #C8C8C8",
"N 	c #AFAFAF",
"O 	c #FF9999",
"P 	c #F5C6C6",
"Q 	c #E9E9E9",
"R 	c #B6B6B6",
"S 	c #CFB4B4",
"T 	c #B9B9B9",
"U 	c #F5F5F5",
"V 	c #ACA7A7",
"W 	c #EAEAEA",
"X 	c #F9F9F9",
"Y 	c #B8B8B8",
"Z 	c #C0A6A6",
"` 	c #B4B4B4",
" .	c #EFEFEF",
"..	c #F2C3C3",
"+.	c #EEEEEE",
"@.	c #BCBCBC",
"#.	c #C5C5C5",
"$.	c #DADADA",
"%.	c #BEBEBE",
"&.	c #B0B0B0",
"*.	c #FBFBFB",
"=.	c #C6C6C6",
"-.	c #B1B1B1",
";.	c #BABABA",
">.	c #AEAEAE",
",.	c #D0D0D0",
"'.	c #FCFCFC",
").	c #141414",
"!.	c #D8D8D8",
"~.	c #C7C7C7",
"{.	c #575757",
"].	c #3D3D3D",
"^.	c #C3C3C3",
"/.	c #5E5E5E",
"(.	c #7D7D7D",
"_.	c #B3B3B3",
":.	c #F6C8C8",
"<.	c #757575",
"[.	c #919191",
"}.	c #CAB3B3",
"|.	c #EDEDED",
"1.	c #ADA8A8",
"2.	c #666666",
"3.	c #2B2B2B",
"4.	c #BBBBBB",
"5.	c #C9AAAA",
"6.	c #292929",
"7.	c #D4D4D4",
"8.	c #FBC9C9",
"9.	c #E8E8E8",
"0.	c #9C9C9C",
"a.	c #E4E4E4",
"b.	c #E7E7E7",
"c.	c #CACACA",
"d.	c #C1C1C1",
"e.	c #E39090",
"f.	c #CBCBCB",
"g.	c #ADA3A3",
"h.	c #C8B0B0",
"i.	c #F59A9A",
"j.	c #C0A9A9",
"k.	c #C9BFBF",
"l.	c #7A4747",
"m.	c #A18C8C",
"n.	c #8C8282",
"o.	c #332929",
"p.	c #242424",
"q.	c #0A0A0A",
"r.	c #454545",
"s.	c #595959",
"t.	c #525252",
"u.	c #5C5C5C",
"v.	c #D9D9D9",
"w.	c #121212",
"x.	c #8A8A8A",
"y.	c #171717",
"z.	c #A8A8A8",
"A.	c #696969",
"B.	c #707070",
"C.	c #9E9E9E",
"D.	c #404040",
"E.	c #616161",
"F.	c #8F8F8F",
"G.	c #4F4F4F",
"H.	c #050505",
"I.	c #DBDBDB",
"J.	c #4A4A4A",
"K.	c #212121",
"L.	c #3B3B3B",
"M.	c #636363",
"N.	c #D1D1D1",
". . . . . . . . . . + . . . . . . . . . . . . . . . . . . . . . . . . . . . . . . . . . . . . . . . . . . . . . . . . . . . . . . . . . . . . . . . ",
". . . . . . . . . @ # . . . . . . . . . . . . . . . . . . . . . . . . . . . . . . . . . . . . . . . . . . . . . . . . . . . . . . . . . . . . . . . ",
". . . . . . . . . $ % & . . . . . . . . . . . . . . . . . . . . . . . . . . . . . . . . . . . . . . . . . . . . . . . . . . . . . . . . . . . . . . ",
". . . . . . . . . * % = . . . . . . . . . . . - . . . . . . . . . . . ; > . . . . . . . . . . . . , . . . . . . . . . . . - - . . . . . . . . . . . ",
". . . . . . . . . ' % . . . . . . . . . . . . ) . . . . . . . . . . . ! ~ . . . . . . . . . . . . { . . . . . . . . . . . ) ) . . . . . . . . . . . ",
". . . . . . . . . ' % . . . . . . . . . . . . ) . . . . . . . . . . . ! ~ . . . . . . . . . . . . { . . . . . . . . . . . ) ) . . . . . . . . . . . ",
". . . ] ^ / ( _ . ' % . . . . . . . . . . . . ) . . . . . . . . . . . ! ~ . . . . . . . . . . . . { . . . . . . . . . . . ) ) . . . . . . . . . . . ",
". . : < [ } | 1 ] ' % . . . . . . . . . . . . ) . . . . . . . . . . . ! ~ . . . . . . . . . . . . { . . . . . . . . . . . ) ) . . . . . . . . . . . ",
". . 2 ' . . 3 % / ' % . . . . . . . . . . . . ) . . . . . . . . . . . ! ~ . . . . . . . . . . . . { . . . . . . . . . . . ) ) . . . . . . . . . . . ",
". . . . . . 4 % 5 ' % . . . . . . . . . . . . ) . . . . . . . . . . . ! ~ . . . . . . . . . . . . { . . . . . . . . . . . ) ) . . . . . . . . . . . ",
". . . . . . 6 1 + ' % . . . . . . . . . . . . ) . . . . . . . . . . . ! ~ . . . . . . . . . . . . { . . . . . . . . . . . ) ) . . . . . . . . . . . ",
". . . . . 7 < 8 @ 5 % 9 . . . . . . . . . . . ) . . . . . . . . . . . ! ~ . . . . . . . . . . . . { . . . . . . . . . . . ) ) . . . . . . . . . . . ",
". . . . 0 < a . b c % d . . . . . . . . . . . ) . . . . . . . . . . . ! ~ . . . . . . . . . . . . { . . . . . . . . . . . ) ) . . . . . . . . . . . ",
". . b d e f . . . ' % . . . . . . . . . . . . ) . . . . . . . . . . . ! ~ . . . . . . . . . . . . { . . . . . . . . . . . ) ) . . . . . . . . . . . ",
". g h i j . . . . ' % . . . . . . . . . . . . ) . . . . k l m m m n o ! ~ . . . . . . . . . . . . { . . . . . . . . . . . ) ) . . . . . . . . . . . ",
"p 1 q $ r r r g . ' % . . . . . . . . . . . . ) . . . s t u ] v w r x y ~ . . . . . . . . . . . . { . . . . . . . . . . . ) ) . . . . . . . . . . . ",
"7 i i i i i i : . ' % . . . . . . . . . . . . ) . . p z _ . . . . . l A B . . . . . . . . . . . . { . . . . . . . . . . . ) ) . . . . . . . . . . . ",
". . . . . . . . . ' % . . . . . . . . . . . . ) . C x D . . . . . . . E F ] . . . . . . . . . . . { . . . . . . . . . . . ) ) . . . . . . . . . . . ",
". . . . . . . . . ' % . . . . . . . . . . . . G . u H . . . . . . . . I J x K . . . . . . . . . . { . . . . . . . . . . . L G . . . . . . . . . . . ",
". . . . . . . . . ' % . . . . . . . . . . . . { M N . . . . . . . . . { ~ _ $ o . . . . . . . . . { . . . . . . . . . . . O { . . . . . . . . . . . ",
". . . . . . . . . ' % . . . . . . . . . . . . P x Q . . . . . . . . . { ~ . & R . . . . . . . . . { . . . . . . . . . . . O { . . . . . . . . . . . ",
". . . . . . . . . ' % . . . . . . . . . . . . S T . . . . . . . . . . { ~ . U $ _ . . . . . . . . { . . . . . . . . . . . O { . . . . . . . . . . . ",
". . . . . . . . . ' % . . . . . . . . . . . 4 V W . . . . . . . . . . { ~ . . K x X . . . . . . . { . . . . . . . . . . . O { . . . . . . . . . . . ",
". . . . . . . . . ' % . . . . . . . . . . . Y Z . . . . . . . . . . . { ~ . . . ` n . . . . . . . { . . . . . . . . . . . O { . . . . . . . . . . . ",
". . . . . . . . . ' % . . . . . . . . . .  .x ... . . . . . . . . . . { ~ . . . +.$ +.. . . . . . { . . . . . . . . . . . O { . . . . . . . . . . . ",
". . . . . . . . . ' % . . . . . . . . . . @.n { . . . . . . . . . . . { ~ . . . . #.R . . . . . . { . . . . . . . . . . . O { . . . . . . . . . . . ",
". . . . . . . . . ' % . . . . . . . . . . x +.{ . . . . . . . . . . . { ~ . . . . X z o . . . . . { . . . . . . . . . . . O { . . . . . . . . . . . ",
". . . . . . . . . ' % . . . . . . . . . $.u . { . . . . . . . . . . . { ~ . . . . . %.&.*.. . . . { . . . . . . . . . . . O { . . . . . . . . . . . ",
". . . . . . . . . ' % . . . . . . . . . ` =.. { . . . . . . . . . . . { ~ . . . . . . -.=.. . . . { . . . . . . . . . . . O { . . . . . . . . . . . ",
". . . . . . . . . ' % . . . . . . . . 4 z X . { . . . . . . . . . . . { ~ . . . . . . + t . . . . { . . . . . . . . . . . O { . . . . . . . . . . . ",
". . . . . . . . . ' % . . . . . . . . #.;.. . { . . . . . . . . . . . { ~ . . . . . . . >.v . . . { . . . . . . . . . . . O { . . . . . . . . . . . ",
". . . . . . . . . ' % . . . . . . . . u $.. . { . . . . . . . . . . . { ~ . . . . . . . _ t . . . { . . . . . . . . . . . O { . . . . . . . . . . . ",
". . . . . . n 2 . ' % . . . . . . . + t k . . { . . . . . . . . . . . { ~ . . . . . . . . t ,.. . { . . . . . . . . . . . O { . . . . . . . . . . . ",
". . . . '.& ).5 . ' % . . . . . . . m #.. . . { . . . . . . . . . . . { ~ . . . . . . . . !.t . . { . . . . . . . . . . . O { . . . . . . . . . . . ",
". . . f % % % ~.. ' % . . . . . . . x W . . . { . . . . . . . . . . . { ~ . . . . . . . . . N ] . { . . . . . . . . . . . O { . . . . . . . . . . . ",
". . . . . a 1 @ . ' % . . . . . . s u . . . . { . . . . . . . . . . . { ~ . . . . . . . . . l u k { . . . . . . . . . . . O { . . . . . . . . . . . ",
". . . . . {.].. . ' % . . . . . . %.%.. . . . { . . . . . . . . . . . { ~ . . . . . . . . . . r ^.{ . . . . . . . . . . . O { . . . . . . . . . . . ",
". . . . . | 6 . U /.% (.. . . . . _.' . . . . { . . . . . . . . . . . { ~ . . . . . . . . . . 4 u :.. . . . . . . . . . . O { . . . . . . . . . . . ",
". . . . + % r . o <.% [.. . . . o $ '.. . . . { . . . . . . . . . . . { ~ . . . . . . . . . . . ^.}.. . . . . . . . . . . O { . . . . . . . . . . . ",
". . . . 7 % |.. . ' % . . . . . ,._.. . . . . { . . . . . . . . . . . { ~ . . . . . . . . . . . o 1.D . . . . . . . . . . O { . . . . . . . . . . . ",
". . . . 2.3.. . . ' % . . . . . 4.=.. . . . . { . . . . . . . . . . . { ~ . . . . . . . . . . . . 5.-.. . . . . . . . . . O { . . . . . . . . . . . ",
". . p p 6.} p + . ' % . . . . . _.7.. . . . . { . . . . . . . . . . . { ~ . . . . . . . . . . . . 8.t ,.. . . . . . . . . O { . . . . . . . . . . . ",
". 9.i i i i i 0.. ' % . . . . . x +.. . . . . { . . . . . . . . . . . { ~ . . . . . . . . . . . . { C x a.. . . . . . . . O { . . . . . . . . . . . ",
". . . . . . . . . ' % . . . . . x . . . . . . { . . . . . . . . . . . { ~ . . . . . . . . . . . . { . ,.u . . . . . . . . O { . . . . . . . . . . . ",
". . . . . . . . . ' % . . . . b.t . . . . . . { . . . . . . . . . . . { ~ . . . . . . . . . . . . { . . &.4.. . . . . . . O { . . . . . . . . . . . ",
". . . . . . . . . ' % . . . . ^.T . . . . . . { . . . . . . . . . . . { ~ . . . . . . . . . . . . { . . X u c.. . . . . . O { . . . . . . . . . . . ",
". . . . . . . . . ' % . . . . m H . . . . . . { . . . . . . . . . . . { ~ . . . . . . . . . . . . { . . . +.$ p . . . . . O { . . . . . . . . . . . ",
". . . . . . . . . ' % . . . . t C . . . . . . { . . . . . . . . . . . { ~ . . . . . . . . . . . . { . . . . +.x _ . . . . O { . . . . . . . . . . . ",
". . . . . . . . . ' % . . . . z X . . . . . . { . . . . . . . . . . . { ~ . . . . . . . . . . . . { . . . . . + x _ . . . O { . . . . . . . . . . . ",
". . . . . . . . . ' % . . . U x . . . . . . . { . . . . . . . . . . . { ~ . . . . . . . . . . . . { . . . . . . K x H . . O { . . . . . . . . . . . ",
". . . . . . . . . ' % . . . a.f . . . . . . . { . . . . . . . . . . . { ~ . . . . . . . . . . . . { . . . . . . . ' &.d.X O { . . . . . . . . . . . ",
". . . . . . . . . ' % . . . $.-.. . . . . . . { . . . . . . . . . . . { ~ . . . . . . . . . . . . { . . . . . . . . X _.>.e.{ . . . . . . . . . . . ",
". . . . . . . . . ' % . . . M 4.. . . . . . . { . . . . . . . . . . . { ~ . . . . . . . . . . . . { . . . . . . . . . . f.g.h.U . . . . . . . . . . ",
". . . . . . . . . ' % . . . $.,.. . . . . . . { . . . . . . . . . . . { ~ . . . . . . . . . . . . { . . . . . . . . . . . i.j.x Y b . . . . . . . . ",
". . . . . . . . . ' % . . . . . . . . . . . . { . . . . . . . . . . . { ~ . . . . . . . . . . . . { . . . . . . . . . . . O { b.@.x &.~.D . . . . . ",
". . . . . . . . . ' % . . . . . . . . . . . . { . . . . . . . . . . . { ~ . . . . . . . . . . . . { . . . . . . . . . . . O { . . U f.m @.. . . . . ",
". . . . . . . . . ' % . . . . . . . . . . . . { . . . . . . . . . . . { ~ . . . . . . . . . . . . { . . . . . . . . . . . O { . . . . . . . . . . . ",
". . . . . . . . . ' % . . . . . . . . . . . . { . . . . . . . . . . . { ~ . . . . . . . . . . . . { . . . . . . . . . . . O { . . . . . . . . . . . ",
". . . . . . . . . ' % . . . . . . . . . . . . { . . . . . . . . . . . { ~ . . . . . . . . . . . . { . . . . . . . . . . . O { . . . . . . . . . . . ",
". . . . . . . . . ' % . . . . . . . . . . . . { . . . . . . . . . . . { ~ . . . . . . . . . . . . { . . . . . . . . . . . O { . . . . . . . . . . . ",
". . . . . . . . . ' % . . . . . . . . . . . . { . . . . . . . . . . . { ~ . . . . . . . . . . . . { . . . . . . . . . . . O { . . . . . . . . . . . ",
". . . . . . . . . ' % . . . . . . . . . . . . { . . . . . . . . . . . { ~ . . . . . . . . . . . . { . . . . . . . . . . . O { . . . . . . . . . . . ",
". . . . . . . . . ' % . . . . . . . . . . . . { . . . . . . . . . . . k.l.. . . . . . . . . . . . { . . . . . . . . . . . m.n.. . . . . . . 2 C . . ",
". . . . . . . . . ' % i i i i i i i i i i i i o.i i i i i i i i i i i p.q.i i i i i i i i i i i i o.i i i i i i i i i i i | ).i i i i i i i ).< r.~.",
". . . . . . . . . . Y r r r r r r r r r r r r r r r r r r r r r r r r (.p.r r r r r r r r r r r r r r r r r r r r r r r r s.c r r r r r r r t.u.2 . ",
". . . . . . . . . . . . . . . . . . . . . . . . . . . . . . . . . . . 4 ] . . . . . . . . . . . . . . . . . . . . . . . . + v.. . . . . . . . . . . ",
". . . . '.= ).% w.[.. . . . . . . . . . . . . . . . . . . . . . . . . . x.8 . . . . . . . . . . . . . . . . . . . . . ~.2.[ i c 2 . . . . . . . . . ",
". . . . 2.y.z.p A.< j . . . . . . . . . . . . . . . . . . . . . . b &.B.< C.. . . . . . . . . . . . . . . . . . . . . D.t.[.a 3.1 9.. . . . . . . . ",
". . . p % &.. . + % r . . . . . . . . . . . . . . . . . . . . . . 2 } i % v.. . . . . . . . . . . . . . . . . . . . . 3 . . . &.% p . . . . . . . . ",
". . . E.h . . . ' % r . . . . . . . . . . . . . . . . . . . . . . . . / ).. . . . . . . . . . . . . . . . . . . . . . . . . . F.< 9.. . . . . . . . ",
". . . | * . . . ~.% ~.. . . . . . . . . . . . . . . . . . . . . . . . c G.. . . . . . . . . . . . . . . . . . . . . . . . . + ).E.. . . . . . . . . ",
". . j % &.. . . a H.U . . . . . . . . . . . . . . . . . . . . . . . '.q.x.. . . . . . . . . . . . . . . . . . . . . . . . j h # U . . . . . . . . . ",
". . Y % I.. . . G.D.. . . . . . . . . . . . . . . . . . . . . . . . p % ~.. . . . . . . . . . . . . . . . . . . . . . . n y.J.4 . . . . . . . . . . ",
". . r % ' . . 9.1 8 . . . . . . . . . . . . . . . . . . . . . . . . a 1 o . . . . . . . . . . . . . . . . . . . . . . [.H.<.'.. . . . . . . . . . . ",
". . & % 2 . '.s.K.U . . . . . . . . . . . . . . . . . . . . . . . . d L.. . . . . . . . . . . . . . . . . . . . . |.t.w.r . . . . . . . . . . . . . ",
". . @ 6.).} h y.p . . . . . . . . . . . . . . . . . . . . . . @ / / ).# / Y . . . . . . . . . . . . . . . . . . . M.% J.2.2.2.2.N.. . . . . . . . . ",
". . . 3 F./ a 4 . . . . . . . . . . . . . . . . . . . . . . . |./ / / / / n . . . . . . . . . . . . . . . . . . . 0./ / / / / / 9.. . . . . . . . . "};
