/* XPM */
static const char* const image5_xpm[] = {
"33 32 4 1",
"# c #000000",
"b c #bfbfbf",
"a c #ff0000",
". c #ffffff",
".................................",
".........#.....#.....#.....#.....",
".....#.#.#.#.#.#.#.#.#.#.#.#.....",
".....#.#.#.#.#.#.#.#.#.#.#.#.....",
"....aa########################...",
"....aabbbbbbbbbbbbbbbbbbbbbbb#...",
"..aaaabbbbbbbbbbbbbbbbbbbbbbb###.",
"....aabbbbbbbbbbbbbbbbbbbbbbb#...",
"..aaaabbbbbbbbbbbbbbbbbbbbbbb###.",
"....aabbbbbbbbbbbbbbbbbbbbbbb#...",
".aaaaabbbbbbbbbbbbbbb#bbbbbbb####",
"....aabbbbbbbbbbbbbb#b#bbbbbb#...",
"..aaaabbbbbbbbbbbbbb#b#bbbbbb###.",
"....aabbbbbbbbbbbbb#bbb#bbbbb#...",
"..aaaabbbbbb#bbbbbb#bbb#bbbbb###.",
"....aabbbbb#b#bbbb#bbbbb#bbbb#...",
".aaaaabbbbb#b#bbbb#bbbbb#bbbb####",
"....aabbbb#bbb#bb#bbbbbbb#bbb#...",
"..aaaabbbb#bbb###bbbbbbbbb######.",
"....aabbb#bbbbb#bbbbbbbbbbbbb#...",
"..aaaabbb#bbbbb#bbbbbbbbbbbbb###.",
"....aabb#bbbbbbb#bbbbbbbbbbbb#...",
".aaaaa##bbbbbbbbb#####bbbbbbb####",
"....aabbbbbbbbbbbbbbbbbbbbbbb#...",
"..aaaabbbbbbbbbbbbbbbbbbbbbbb###.",
"....aabbbbbbbbbbbbbbbbbbbbbbb#...",
"....aabbbbbbbbbbbbbbbbbbbbbbb#...",
"....aa########################...",
".....#.#.#.#.#.#.#.#.#.#.#.#.....",
".....#.#.#.#.#.#.#.#.#.#.#.#.....",
".........#.....#.....#.....#.....",
"................................."};
