/* XPM */
static const char* const image6_xpm[] = {
"34 34 4 1",
"a c #000000",
"b c #bfbfbf",
"# c #ff0000",
". c #ffffff",
"..................................",
"..................................",
".........#.....#.....#.....#......",
".....#.#.#.#.#.#.#.#.#.#.#.#......",
".....#.#.#.#.#.#.#.#.#.#.#.#......",
"....##########################....",
"....##########################....",
"..aaabbbbbbbbbbbbbbbbbbbbbbbbaaa..",
"....abbbbbbbbbbbbbbbbbbbbbbbba....",
"..aaabbbbbbbbbbbbbbbbbbbbbbbbaaa..",
"....abbbbbbbbbbbbbbbbbbbbbbbba....",
".aaaabbbbbbbbbbbbbbbbabbbbbbbaaaa.",
"....abbbbbbbbbbbbbbbababbbbbba....",
"..aaabbbbbbbbbbbbbbbababbbbbbaaa..",
"....abbbbbbbbbbbbbbabbbabbbbba....",
"..aaabbbbbbbabbbbbbabbbabbbbbaaa..",
"....abbbbbbababbbbabbbbbabbbba....",
".aaaabbbbbbababbbbabbbbbabbbbaaaa.",
"....abbbbbabbbabbabbbbbbbabbba....",
"..aaabbbbbabbbaaabbbbbbbbbaaaaaa..",
"....abbbbabbbbbabbbbbbbbbbbbba....",
"..aaabbbbabbbbbabbbbbbbbbbbbbaaa..",
"....abbbabbbbbbbabbbbbbbbbbbba....",
".aaaaaaabbbbbbbbbaaaaabbbbbbbaaaa.",
"....abbbbbbbbbbbbbbbbbbbbbbbba....",
"..aaabbbbbbbbbbbbbbbbbbbbbbbbaaa..",
"....abbbbbbbbbbbbbbbbbbbbbbbba....",
"....abbbbbbbbbbbbbbbbbbbbbbbba....",
"....aaaaaaaaaaaaaaaaaaaaaaaaaa....",
".....a.a.a.a.a.a.a.a.a.a.a.a......",
".....a.a.a.a.a.a.a.a.a.a.a.a......",
".........a.....a.....a.....a......",
"..................................",
".................................."};
