/* XPM */
static const char* const image7_xpm[] = {
"32 32 4 1",
"# c #000000",
"b c #bfbfbf",
"a c #ff0000",
". c #ffffff",
"................................",
"........#.....#.....#.....#.....",
"....#.#.#.#.#.#.#.#.#.#.#.#.....",
"....#.#.#.#.#.#.#.#.#.#.#.#.....",
"...########################aa...",
"...#bbbbbbbbbbbbbbbbbbbbbbbaa...",
".###bbbbbbbbbbbbbbbbbbbbbbbaaaa.",
"...#bbbbbbbbbbbbbbbbbbbbbbbaa...",
".###bbbbbbbbbbbbbbbbbbbbbbbaaaa.",
"...#bbbbbbbbbbbbbbbbbbbbbbbaa...",
"####bbbbbbbbbbbbbbbb#bbbbbbaaaaa",
"...#bbbbbbbbbbbbbbb#b#bbbbbaa...",
".###bbbbbbbbbbbbbbb#b#bbbbbaaaa.",
"...#bbbbbbbbbbbbbb#bbb#bbbbaa...",
".###bbbbbbb#bbbbbb#bbb#bbbbaaaa.",
"...#bbbbbb#b#bbbb#bbbbb#bbbaa...",
"####bbbbbb#b#bbbb#bbbbb#bbbaaaaa",
"...#bbbbb#bbb#bb#bbbbbbb#bbaa...",
".###bbbbb#bbb###bbbbbbbbb##aaaa.",
"...#bbbb#bbbbb#bbbbbbbbbbbbaa...",
".###bbbb#bbbbb#bbbbbbbbbbbbaaaa.",
"...#bbb#bbbbbbb#bbbbbbbbbbbaa...",
"#######bbbbbbbbb#####bbbbbbaaaaa",
"...#bbbbbbbbbbbbbbbbbbbbbbbaa...",
".###bbbbbbbbbbbbbbbbbbbbbbbaaaa.",
"...#bbbbbbbbbbbbbbbbbbbbbbbaa...",
"...#bbbbbbbbbbbbbbbbbbbbbbbaa...",
"...########################aa...",
"....#.#.#.#.#.#.#.#.#.#.#.#.....",
"....#.#.#.#.#.#.#.#.#.#.#.#.....",
"........#.....#.....#.....#.....",
"................................"};
