/* XPM */
static const char* const image4_xpm[] = {
"35 32 4 1",
"# c #000000",
"a c #bfbfbf",
"b c #ff0000",
". c #ffffff",
"...................................",
".........#.....#.....#.....#.......",
".....#.#.#.#.#.#.#.#.#.#.#.#.......",
".....#.#.#.#.#.#.#.#.#.#.#.#.......",
"....##########################.....",
"....#aaaaaaaaaaaaaaaaaaaaaaaa#.....",
"..###aaaaaaaaaaaaaaaaaaaaaaaa###...",
"....#aaaaaaaaaaaaaaaaaaaaaaaa#.....",
"..###aaaaaaaaaaaaaaaaaaaaaaaa###...",
"....#aaaaaaaaaaaaaaaaaaaaaaaa#.....",
".####aaaaaaaaaaaaaaaa#aaaaaaa####..",
"....#aaaaaaaaaaaaaaa#a#aaaaaa#.....",
"..###aaaaaaaaaaaaaaa#a#aaaaaa###...",
"....#aaaaaaaaaaaaaa#aaa#aaaaa#.....",
"..###aaaaaaa#aaaaaa#aaa#aaaaa###...",
"....#aaaaaa#a#aaaa#aaaaa#aaaa#.....",
".####aaaaaa#a#aaaa#aaaaa#aaaa####..",
"....#aaaaa#aaa#aa#aaaaaaa#aaa#.....",
"..###aaaaa#aaa###aaaaaaaaa######...",
"....#aaaa#aaaaa#aaaaaaaaaaaaa#.....",
"..###aaaa#aaaaa#aaaaaaaaaaaaa###...",
"....#aaa#aaaaaaa#aaaaaaaaaaaa#.....",
".#######aaaaaaaaa#####aaaaaaa####..",
"....#aaaaaaaaaaaaaaaaaaaaaaaa#.....",
"..###aaaaaaaaaaaaaaaaaaaaaaaa###...",
"....#aaaaaaaaaaaaaaaaaaaaaaaa#.....",
"....bbbbbbbbbbbbbbbbbbbbbbbbbb.....",
"....bbbbbbbbbbbbbbbbbbbbbbbbbb.....",
".....b.b.b.b.b.b.b.b.b.b.b.b.......",
".....b.b.b.b.b.b.b.b.b.b.b.b.......",
".........b.....b.....b.....b.......",
"..................................."};
