/* XPM */
static const char *import_xpm[]={
"16 15 5 1",
" 	c None",
".	c #000000",
"+	c #FF0000",
"@	c #2F2FF0",
"#	c #FFFFFF",
" .  .. ..       ",
"..   .  .       ",
" .  .  .. ++++  ",
" .  .   .    +  ",
"... .. ..  +++++",
"            +++ ",
"             +  ",
"                ",
"    ............",
"    .@.@@.@@.@@.",
"    ............",
"    .#.##.##.##.",
"    ............",
"    .#.##.##.##.",
"    ............"};
