/* XPM */
static const char *index_xpm[]={
"16 16 3 1",
". c None",
"# c #000000",
"a c #ff0710",
"................",
"................",
"................",
"................",
"..##.....##.....",
"...##...##......",
"....##.##.......",
".....###........",
"....##.##.......",
"...##...##.aaa..",
"..##.....##..a..",
"...........aaa..",
"...........a....",
"...........aaa..",
"................",
"................"};
