/* XPM */
static const char * isolines_xpm[] = {
"20 10 9 1",
" 	c None",
".	c #000000",
"+	c #DE0810",
"@	c #DE0808",
"#	c #DE0C10",
"$	c #E70C10",
"%	c #0010DE",
"&	c #0010E7",
"*	c #0014E7",
"    ................",
"    .    +    @    .",
"   .  #+$     #    .",
"   .@+    %&   +@ . ",
"  .     *%  *    +. ",
"  .    &    %    .  ",
" . +$  %  *% +#+$.  ",
" .   +  %&  @   .   ",
".    +     +    .   ",
"................    "};
