/* XPM */
static const char * layer_disabled_xpm[] = {
"14 14 3 1",
" 	c None",
".	c #666666",
"+	c #FFFFFF",
"..............",
".++++++++++++.",
".+..+++++++++.",
".+..+++++++++.",
".+..+++++++++.",
".+..+++++++++.",
".+..+++++++++.",
".+..+++++++++.",
".+..+++++++++.",
".+..+++++++++.",
".+..........+.",
".+..........+.",
".++++++++++++.",
".............."};
