/* XPM */
static const char * layer_enabled_xpm[] = {
"14 14 4 1",
" 	c None",
".	c #1A1A1A",
"+	c #FFFFFF",
"@	c #CB1D08",
"..............",
".++++++++++++.",
".+@@+++++++++.",
".+@@+++++++++.",
".+@@+++++++++.",
".+@@+++++++++.",
".+@@+++++++++.",
".+@@+++++++++.",
".+@@+++++++++.",
".+@@+++++++++.",
".+@@@@@@@@@@+.",
".+@@@@@@@@@@+.",
".++++++++++++.",
".............."};
