/* XPM */
static const char* const left_scl_xpm[] = {
"36 36 72 1",
" 	c None",
".	c #FFFFFF",
"+	c #818181",
"@	c #070707",
"#	c #101010",
"$	c #FAFAFA",
"%	c #1D1D1D",
"&	c #ACACAC",
"*	c #151515",
"=	c #121212",
"-	c #929292",
";	c #242424",
">	c #D5D5D5",
",	c #C9C9C9",
"'	c #2A2A2A",
")	c #5E5E5E",
"!	c #000000",
"~	c #C8C8C8",
"{	c #D2D2D2",
"]	c #090909",
"^	c #060606",
"/	c #FEFEFE",
"(	c #FCFCFC",
"_	c #CECECE",
":	c #444444",
"<	c #E0E0E0",
"[	c #464646",
"}	c #E8E8E8",
"|	c #282828",
"1	c #D3D3D3",
"2	c #D1D1D1",
"3	c #A4A4A4",
"4	c #484848",
"5	c #F1F1F1",
"6	c #7D7D7D",
"7	c #050505",
"8	c #7F7F7F",
"9	c #F38C82",
"0	c #E71E09",
"a	c #E82612",
"b	c #EA3826",
"c	c #FBD8D5",
"d	c #F9CEC9",
"e	c #EA3E2C",
"f	c #E71D08",
"g	c #FEFCFC",
"h	c #7D6F6F",
"i	c #EA3C2A",
"j	c #FAD7D3",
"k	c #FAD5D1",
"l	c #F2897E",
"m	c #E71C07",
"n	c #F28B80",
"o	c #FEFAFA",
"p	c #E9321F",
"q	c #EF6D5F",
"r	c #E71803",
"s	c #F7B3AC",
"t	c #E82B17",
"u	c #E82814",
"v	c #F49C93",
"w	c #F9CDC8",
"x	c #FAD6D2",
"y	c #E7200B",
"z	c #FAD2CE",
"A	c #ED5546",
"B	c #FCE2E0",
"C	c #ED5748",
"D	c #FCEAE8",
"E	c #F6ACA5",
"F	c #ED594A",
"G	c #FDF2F1",
".......+@#+......$%......&*=-.......",
".......;>,'......)!......%~{].......",
".......^/(^.......!........_:.......",
".......^((^.......!.......<[}.......",
".......|12;.......!......345........",
".......67^8.......!......*!!!.......",
"....................................",
".90a9...!........!.......!.....+@#+.",
".bcde..!!!!!!!!!!!!!!!!!!!!!!..;>,'.",
".f/gf..!hhhhhhhhhhhhhhhhhhhh!..^/(^.",
".fggf.!!hhhhhhhhhhhhhhhhhhhh!!.^((^.",
".ijkb..!hhhhhhhhhhhhhhhhhhhh!..|12;.",
".lmfn..!hhhhhhhhhhhhhhhhhhhh!..67^8.",
".......!hhhhhhhhhhhhhhhhhhhh!.......",
".......!hhhhhhhhhhhhhhhhhhhh!.......",
"..op...!hhhhhhhhhhhhhhhhhhhh!...%...",
"..qr...!hhhhhhhhhhhhhhhhhhhh!..)!...",
"...r..!!hhhhhhhhhhhhhhhhhhhh!!..!...",
"...r...!hhhhhhhhhhhhhhhhhhhh!...!...",
"...r...!hhhhhhhhhhhhhhhhhhhh!...!...",
"...r...!hhhhhhhhhhhhhhhhhhhh!...!...",
".......!hhhhhhhhhhhhhhhhhhhh!.......",
".stuv..!hhhhhhhhhhhhhhhhhhhh!..&*=-.",
".pwxy..!hhhhhhhhhhhhhhhhhhhh!..%~{].",
"...zA.!!hhhhhhhhhhhhhhhhhhhh!!..._:.",
"..BCD..!hhhhhhhhhhhhhhhhhhhh!...<[}.",
".EFG...!hhhhhhhhhhhhhhhhhhhh!..34...",
".trrr..!!!!!!!!!!!!!!!!!!!!!!..*!!!.",
".........!........!.......!.........",
"....................................",
".......+@#+......$%......&*=-.......",
".......;>,'......)!......%~{].......",
".......^/(^.......!........_:.......",
".......^((^.......!.......<[}.......",
".......|12;.......!......345........",
".......67^8.......!......*!!!......."};
