/* XPM */
static const char *legend_xpm[]={
"18 18 3 1",
". c None",
"# c #000000",
"a c #0000ff",
"..................",
".################.",
".#..............#.",
".#........###...#.",
".#........#..#..#.",
".#.######.###...#.",
".#........#..#..#.",
".#........####..#.",
".#..............#.",
".#..............#.",
".#.........###..#.",
".#...aa...#.....#.",
".#.aaaaaa.#.....#.",
".#...aa...#.....#.",
".#.........###..#.",
".#..............#.",
".################.",
".................."};
