/* XPM */
static const char *lens_xpm[]={
"32 32 4 1",
". c None",
"# c None",
"a c #000000",
"b c #ffffff",
"..................##############",
".###############..##############",
".###############..##############",
".###############..##############",
".###############..##############",
".###############..##############",
".###############..##############",
".###############..##############",
".########...............########",
".########...aaaa........########",
".########..a....a.......########",
".########.a......a......########",
".########a........a.....########",
".########a.a......a.....########",
".########a.aa.....a.....########",
".########a.baa....a.....########",
".########.abbaa..a......########",
"...........a....aaa.....########",
"............aaaa.aaa....########",
"#########.........aaa...########",
"#########..........aaa..########",
"#########...........aaa.########",
"#########............aaa########",
"#########.............aaa#######",
"#######################aaa######",
"########################a#######",
"################################",
"################################",
"################################",
"################################",
"################################",
"################################"};
