/* XPM */
static const char * lineMesh_xpm[] = {
"20 18 130 2",
"  	c None",
". 	c #4245E7",
"+ 	c #29286B",
"@ 	c #212021",
"# 	c #181C29",
"$ 	c #4241E7",
"% 	c #4A499C",
"& 	c #181418",
"* 	c #181818",
"= 	c #5A595A",
"- 	c #B5AEB5",
"; 	c #4241C6",
"> 	c #8482FF",
", 	c #9C9E9C",
"' 	c #6B696B",
") 	c #FFFBFF",
"! 	c #9C969C",
"~ 	c #5251AD",
"{ 	c #6B69FF",
"] 	c #EFEFFF",
"^ 	c #393C39",
"/ 	c #211C21",
"( 	c #101410",
"_ 	c #D6CFD6",
": 	c #F7F7F7",
"< 	c #4A454A",
"[ 	c #7375B5",
"} 	c #5A59FF",
"| 	c #E7E7FF",
"1 	c #A59EA5",
"2 	c #080C08",
"3 	c #42417B",
"4 	c #4A4994",
"5 	c #6B6973",
"6 	c #ADA6CE",
"7 	c #5251FF",
"8 	c #C6BEE7",
"9 	c #312C31",
"0 	c #181C18",
"a 	c #181821",
"b 	c #6B69EF",
"c 	c #6B65DE",
"d 	c #313031",
"e 	c #212429",
"f 	c #393CAD",
"g 	c #31306B",
"h 	c #292C29",
"i 	c #212421",
"j 	c #6B697B",
"k 	c #635DFF",
"l 	c #BDBAFF",
"m 	c #5A5D5A",
"n 	c #52515A",
"o 	c #292C63",
"p 	c #A5A2EF",
"q 	c #EFE7EF",
"r 	c #A5A2A5",
"s 	c #101010",
"t 	c #ADAAE7",
"u 	c #5255FF",
"v 	c #D6D3EF",
"w 	c #636163",
"x 	c #393863",
"y 	c #9C9AFF",
"z 	c #FFFFFF",
"A 	c #D6D7D6",
"B 	c #525152",
"C 	c #8C8AFF",
"D 	c #B5B2B5",
"E 	c #636563",
"F 	c #5A598C",
"G 	c #847DFF",
"H 	c #292429",
"I 	c #525163",
"J 	c #524DF7",
"K 	c #8482D6",
"L 	c #737173",
"M 	c #313431",
"N 	c #EFEFEF",
"O 	c #7B79A5",
"P 	c #5A5DFF",
"Q 	c #F7EFFF",
"R 	c #EFEBEF",
"S 	c #393839",
"T 	c #393439",
"U 	c #C6BEEF",
"V 	c #424142",
"W 	c #423C42",
"X 	c #4A4D63",
"Y 	c #5A55F7",
"Z 	c #5A5D73",
"` 	c #949294",
" .	c #7B79FF",
"..	c #ADAAB5",
"+.	c #737573",
"@.	c #4A494A",
"#.	c #5A59F7",
"$.	c #9C96CE",
"%.	c #847D84",
"&.	c #DEDFEF",
"*.	c #C6BEFF",
"=.	c #6B656B",
"-.	c #FFF7FF",
";.	c #F7F3F7",
">.	c #BDBEBD",
",.	c #8C86FF",
"'.	c #DEDBDE",
").	c #848684",
"!.	c #C6C3FF",
"~.	c #7375FF",
"{.	c #E7DFEF",
"].	c #8C8E8C",
"^.	c #E7E3E7",
"/.	c #D6D3D6",
"(.	c #B5B6FF",
"_.	c #4A4552",
":.	c #5A59EF",
"<.	c #A5A6EF",
"[.	c #E7E3FF",
"}.	c #E7DFFF",
"|.	c #949694",
"1.	c #5A5D9C",
"2.	c #292C31",
"3.	c #9C9A9C",
"4.	c #292829",
"5.	c #73717B",
"6.	c #5251E7",
"7.	c #5A59AD",
"8.	c #312C52",
"9.	c #292C4A",
"                      . +               ",
"                  @ # $ % & *           ",
"                * = - ; > , &           ",
"              & ' ) ! ~ { ] ^ /         ",
"              ( _ : < [ } | 1 2         ",
"            ( 3 4 5 * 6 7 8 - 9 0       ",
"            a b c d & e f g h i i       ",
"          & j k l = m n o p q r s       ",
"          ( t u v i 1 w x y z A (       ",
"        ( B C > D * _ E F G z : H       ",
"        s I J K L M N w O P Q R S @     ",
"      * T U 7 x 0 @ V W X Y Z d @ &     ",
"      2 ` l  ...s +.1 @.5 #.$., %.2     ",
"      H &. .*.=.^ -.;.W >.,.y z '.*     ",
"    s ).!.~.{.i ].z ^.i /.(.~.) : d @   ",
"  s @ _.:.<.r * _ z _ @ '.[.P }.z |.2   ",
"& ( ` ..1.2.@ i ' 3.L 4.! 5.6.7.@.4.@ d ",
"^           w S h 9 4.H @ @ 8.9.@     s "};
