/* XPM */
static const char * log_xpm[] = {
"16 14 4 1",
" 	c None",
".	c #000000",
"+	c #882F2A",
"@	c #FFFFFF",
"................",
".++++++++++++++.",
"................",
".@@@@@@@@@@@@@@.",
".@...@@...@@..@.",
".@@@@@@@@@@@@@@.",
".@............@.",
".@@@@@@@@@@@@@@.",
".@...@@...@@..@.",
".@@@@@@@@@@@@@@.",
".@...@@...@@..@.",
".@@@@@@@@@@@@@@.",
".@@@@@@@@@@@@@@.",
"................"};
