/* XPM */
static const char *lPlot_xpm[]={
"14 14 2 1",
". c None",
"# c #000000",
".............#",
"............#.",
"...........#..",
"..........#...",
".........#....",
"........#.....",
".......#......",
"......#.......",
".....#........",
"....#.........",
"...#..........",
"..#...........",
".#............",
"#............."};
