/* XPM */
static const char * matrix_xpm[] = {
"13 12 20 1",
" 	c None",
".	c #000821",
"+	c #000720",
"@	c #000927",
"#	c #000C39",
"$	c #000C37",
"%	c #000929",
"&	c #00041B",
"*	c #000519",
"=	c #597384",
"-	c #5A7387",
";	c #00061E",
">	c #4C7799",
",	c #517595",
"'	c #000212",
")	c #000209",
"!	c #000207",
"~	c #00030C",
"{	c #010101",
"]	c #FFFF80",
".++@#$%++%#$&",
"*=-;>>;==;>,'",
")!))~~~!))~){",
"{]]{]]{]]{]]{",
"{]]{]]{]]{]]{",
"{{{{{{{{{{{{{",
"{]]{]]{]]{]]{",
"{]]{]]{]]{]]{",
"{{{{{{{{{{{{{",
"{]]{]]{]]{]]{",
"{]]{]]{]]{]]{",
"{{{{{{{{{{{{{"};
