/* XPM */
static const char * monalisa_xpm[] = {
"19 19 219 2",
"  	c None",
". 	c #B5AEA5",
"+ 	c #8C8A84",
"@ 	c #636163",
"# 	c #525552",
"$ 	c #424542",
"% 	c #424139",
"& 	c #847973",
"* 	c #7B9AB5",
"= 	c #6B96C6",
"- 	c #6B92C6",
"; 	c #84AEE7",
"> 	c #6B86A5",
", 	c #523831",
"' 	c #CEA673",
") 	c #F7F3CE",
"! 	c #FFF7D6",
"~ 	c #FFF7CE",
"{ 	c #FFFBCE",
"] 	c #F7EBAD",
"^ 	c #E7BE84",
"/ 	c #A56552",
"( 	c #5A4542",
"_ 	c #393439",
": 	c #080408",
"< 	c #292821",
"[ 	c #7BA6D6",
"} 	c #427DBD",
"| 	c #528AC6",
"1 	c #73A2D6",
"2 	c #313439",
"3 	c #311000",
"4 	c #C6965A",
"5 	c #EFDFA5",
"6 	c #EFE3A5",
"7 	c #EFE7AD",
"8 	c #E7E39C",
"9 	c #DECF84",
"0 	c #CE9652",
"a 	c #AD5939",
"b 	c #6B2C21",
"c 	c #311410",
"d 	c #080808",
"e 	c #000000",
"f 	c #4A86C6",
"g 	c #6BA2DE",
"h 	c #6B758C",
"i 	c #100400",
"j 	c #5A2C18",
"k 	c #D6AE6B",
"l 	c #EFDB94",
"m 	c #EFE39C",
"n 	c #EFEBAD",
"o 	c #EFD78C",
"p 	c #DEBA6B",
"q 	c #D6A263",
"r 	c #BD754A",
"s 	c #6B3029",
"t 	c #100808",
"u 	c #8CB2E7",
"v 	c #7BAADE",
"w 	c #84B2DE",
"x 	c #524D52",
"y 	c #734121",
"z 	c #E7BA7B",
"A 	c #E7CB8C",
"B 	c #F7EBA5",
"C 	c #E7C78C",
"D 	c #CE9E63",
"E 	c #DEAE73",
"F 	c #B5714A",
"G 	c #5A2C21",
"H 	c #84AEDE",
"I 	c #73A2DE",
"J 	c #392C29",
"K 	c #080000",
"L 	c #4A2818",
"M 	c #9C5D42",
"N 	c #8C4931",
"O 	c #C69E52",
"P 	c #DEB26B",
"Q 	c #632418",
"R 	c #7B3421",
"S 	c #844531",
"T 	c #4A1C18",
"U 	c #391010",
"V 	c #6396CE",
"W 	c #4271A5",
"X 	c #212021",
"Y 	c #7B4129",
"Z 	c #AD6939",
"` 	c #BD8E5A",
" .	c #631C10",
"..	c #C6925A",
"+.	c #734129",
"@.	c #632818",
"#.	c #A5794A",
"$.	c #8C5139",
"%.	c #180808",
"&.	c #52718C",
"*.	c #183042",
"=.	c #395984",
"-.	c #211C21",
";.	c #946542",
">.	c #DEAA6B",
",.	c #BD824A",
"'.	c #D6B263",
").	c #C69663",
"!.	c #A55931",
"~.	c #CEA263",
"{.	c #D6B673",
"].	c #EFC784",
"^.	c #945139",
"/.	c #100408",
"(.	c #394952",
"_.	c #081821",
":.	c #212429",
"<.	c #211410",
"[.	c #946139",
"}.	c #F7DB8C",
"|.	c #F7E7A5",
"1.	c #EFDF94",
"2.	c #D6AA73",
"3.	c #CE9252",
"4.	c #EFE79C",
"5.	c #F7F3C6",
"6.	c #EFDF9C",
"7.	c #CE8A52",
"8.	c #6B2821",
"9.	c #393C42",
"0.	c #081018",
"a.	c #100C08",
"b.	c #180C08",
"c.	c #6B3821",
"d.	c #EFCF84",
"e.	c #E7D394",
"f.	c #EFDB9C",
"g.	c #DEB684",
"h.	c #C68A5A",
"i.	c #E7CF8C",
"j.	c #A55139",
"k.	c #421C18",
"l.	c #080C10",
"m.	c #080400",
"n.	c #390C08",
"o.	c #C68E5A",
"p.	c #DEB66B",
"q.	c #946952",
"r.	c #7B4529",
"s.	c #DEC384",
"t.	c #B57552",
"u.	c #733029",
"v.	c #39414A",
"w.	c #180400",
"x.	c #943C31",
"y.	c #DE9E63",
"z.	c #D6B27B",
"A.	c #521810",
"B.	c #7B4131",
"C.	c #C68E63",
"D.	c #C68A52",
"E.	c #AD5D42",
"F.	c #394142",
"G.	c #080C08",
"H.	c #8C4131",
"I.	c #CE9663",
"J.	c #732C29",
"K.	c #AD654A",
"L.	c #081418",
"M.	c #101010",
"N.	c #391410",
"O.	c #C68652",
"P.	c #DEB673",
"Q.	c #AD6542",
"R.	c #9C4D39",
"S.	c #B56D4A",
"T.	c #BD7552",
"U.	c #843C31",
"V.	c #211010",
"W.	c #100810",
"X.	c #39454A",
"Y.	c #102029",
"Z.	c #181C29",
"`.	c #4A2010",
" +	c #DEBA7B",
".+	c #F7E79C",
"++	c #D69A6B",
"@+	c #AD5542",
"#+	c #733429",
"$+	c #421818",
"%+	c #311818",
"&+	c #180C10",
"*+	c #394552",
"=+	c #102839",
"-+	c #182839",
";+	c #5A3821",
">+	c #A57552",
",+	c #844D39",
"'+	c #311010",
")+	c #291010",
"!+	c #181010",
"~+	c #425163",
"{+	c #214163",
"]+	c #213C5A",
"^+	c #100C10",
"/+	c #000400",
"(+	c #180000",
"_+	c #291410",
":+	c #211008",
"<+	c #182C42",
"[+	c #101418",
"}+	c #291810",
"|+	c #523021",
"1+	c #210C08",
"2+	c #422018",
"3+	c #4A2418",
"4+	c #181008",
"5+	c #212018",
"6+	c #635D52",
". + @ # # # # # # # # # # # # # $ % & ",
"+ * = - ; > , ' ) ! ~ { ] ^ / ( _ : < ",
"@ [ } | 1 2 3 4 5 6 7 8 9 0 a b c d e ",
"# 1 f g h i j k l m m n o p q r s t e ",
"# u v w x e y z A m B C D E q F G : e ",
"# H I = J K L M N O P Q R S T U T t e ",
"# H V W X i c Y b Z `  ...+.@.#.$.%.e ",
"# &.*.=.-.e ;.>.,.'.).!.p ~.{.].^./.e ",
"# (._.:.<.e [.}.|.1.2.3.4.5.6.7.8.d e ",
"# 9.0.a.b.e c.d.e.f.g.h.i.5 z j.k.d e ",
"# 9.l.m.i K n.o.p.2.q.r.e.s.t.u.c t e ",
"# v.l.d m.m.w.x.y.z.A.B.C.D.E.u.c t e ",
"# F.l.G.: /.K H.F I.E.J.^.I.K.b c t e ",
"# v.L.M.t /.e N.O.P.Q.R.S.T.U.T V.W.e ",
"# X.Y.Z.t m./.e `. +.+++@+#+$+%+&+t e ",
"# *+=+-+t i i m.e ;+>+,+T '+)+V.!+t e ",
"$ ~+{+]+^+i : m./+e K (+t b.b._+%+:+e ",
"% <+*.<+[+K i m.e e }+|+_+1+_+2+3+4+5+",
"& < e e e e e e e e e e e e e e e 5+6+"};
