/* XPM */
static const char * movie_xpm[] = {
"32 32 257 2",
"  	c None",
". 	c #000000",
"+ 	c #969600",
"@ 	c #928E00",
"# 	c #8E8600",
"$ 	c #8A7E00",
"% 	c #908A00",
"& 	c #847200",
"* 	c #847000",
"= 	c #836F00",
"- 	c #826E00",
"; 	c #826D00",
"> 	c #7F6600",
", 	c #7C5F00",
"' 	c #966200",
") 	c #836E00",
"! 	c #775300",
"~ 	c #734A00",
"{ 	c #755000",
"] 	c #785600",
"^ 	c #7B5D00",
"/ 	c #D0B545",
"( 	c #B69931",
"_ 	c #AA8C27",
": 	c #744D00",
"< 	c #808080",
"[ 	c #775500",
"} 	c #765100",
"| 	c #765300",
"1 	c #785700",
"2 	c #9D7E1D",
"3 	c #84630A",
"4 	c #795900",
"5 	c #8C8100",
"6 	c #85640B",
"7 	c #857400",
"8 	c #C4A83C",
"9 	c #86650C",
"0 	c #7F6700",
"a 	c #B2952E",
"b 	c #877700",
"c 	c #7A5B00",
"d 	c #A08120",
"e 	c #7F6500",
"f 	c #8F6F13",
"g 	c #795B00",
"h 	c #775400",
"i 	c #8F7013",
"j 	c #7A5C00",
"k 	c #907114",
"l 	c #000080",
"m 	c #FFFCF6",
"n 	c #FFFDF7",
"o 	c #FFFBF4",
"p 	c #FFFBF3",
"q 	c #FFFBF2",
"r 	c #FFFBF5",
"s 	c #FFFFFF",
"t 	c #000000",
"u 	c #000000",
"v 	c #000000",
"w 	c #000000",
"x 	c #000000",
"y 	c #000000",
"z 	c #000000",
"A 	c #000000",
"B 	c #000000",
"C 	c #000000",
"D 	c #000000",
"E 	c #000000",
"F 	c #000000",
"G 	c #000000",
"H 	c #000000",
"I 	c #000000",
"J 	c #000000",
"K 	c #000000",
"L 	c #000000",
"M 	c #000000",
"N 	c #000000",
"O 	c #000000",
"P 	c #000000",
"Q 	c #000000",
"R 	c #000000",
"S 	c #000000",
"T 	c #000000",
"U 	c #000000",
"V 	c #000000",
"W 	c #000000",
"X 	c #000000",
"Y 	c #000000",
"Z 	c #000000",
"` 	c #000000",
" .	c #000000",
"..	c #000000",
"+.	c #000000",
"@.	c #000000",
"#.	c #000000",
"$.	c #000000",
"%.	c #000000",
"&.	c #000000",
"*.	c #000000",
"=.	c #000000",
"-.	c #000000",
";.	c #000000",
">.	c #000000",
",.	c #000000",
"'.	c #000000",
").	c #000000",
"!.	c #000000",
"~.	c #000000",
"{.	c #000000",
"].	c #000000",
"^.	c #000000",
"/.	c #000000",
"(.	c #000000",
"_.	c #000000",
":.	c #000000",
"<.	c #000000",
"[.	c #000000",
"}.	c #000000",
"|.	c #000000",
"1.	c #000000",
"2.	c #000000",
"3.	c #000000",
"4.	c #000000",
"5.	c #000000",
"6.	c #000000",
"7.	c #000000",
"8.	c #000000",
"9.	c #000000",
"0.	c #000000",
"a.	c #000000",
"b.	c #000000",
"c.	c #000000",
"d.	c #000000",
"e.	c #000000",
"f.	c #000000",
"g.	c #000000",
"h.	c #000000",
"i.	c #000000",
"j.	c #000000",
"k.	c #000000",
"l.	c #000000",
"m.	c #000000",
"n.	c #000000",
"o.	c #000000",
"p.	c #000000",
"q.	c #000000",
"r.	c #000000",
"s.	c #000000",
"t.	c #000000",
"u.	c #000000",
"v.	c #000000",
"w.	c #000000",
"x.	c #000000",
"y.	c #000000",
"z.	c #000000",
"A.	c #000000",
"B.	c #000000",
"C.	c #000000",
"D.	c #000000",
"E.	c #000000",
"F.	c #000000",
"G.	c #000000",
"H.	c #000000",
"I.	c #000000",
"J.	c #000000",
"K.	c #000000",
"L.	c #000000",
"M.	c #000000",
"N.	c #000000",
"O.	c #000000",
"P.	c #000000",
"Q.	c #000000",
"R.	c #000000",
"S.	c #000000",
"T.	c #000000",
"U.	c #000000",
"V.	c #000000",
"W.	c #000000",
"X.	c #000000",
"Y.	c #000000",
"Z.	c #000000",
"`.	c #000000",
" +	c #000000",
".+	c #000000",
"++	c #000000",
"@+	c #000000",
"#+	c #000000",
"$+	c #000000",
"%+	c #000000",
"&+	c #000000",
"*+	c #000000",
"=+	c #000000",
"-+	c #000000",
";+	c #000000",
">+	c #000000",
",+	c #000000",
"'+	c #000000",
")+	c #000000",
"!+	c #000000",
"~+	c #000000",
"{+	c #000000",
"]+	c #000000",
"^+	c #000000",
"/+	c #000000",
"(+	c #000000",
"_+	c #000000",
":+	c #000000",
"<+	c #000000",
"[+	c #000000",
"}+	c #000000",
"|+	c #000000",
"1+	c #000000",
"2+	c #000000",
"3+	c #000000",
"4+	c #000000",
"5+	c #000000",
"6+	c #000000",
"7+	c #000000",
"8+	c #000000",
"9+	c #000000",
"0+	c #000000",
"a+	c #000000",
"b+	c #000000",
"c+	c #000000",
"d+	c #000000",
"e+	c #000000",
"f+	c #000000",
"g+	c #000000",
"h+	c #000000",
"i+	c #000000",
"j+	c #000000",
"k+	c #000000",
"l+	c #000000",
"m+	c #000000",
"n+	c #000000",
"o+	c #000000",
"p+	c #000000",
"q+	c #000000",
"r+	c #000000",
"s+	c #000000",
"t+	c #000000",
"u+	c #000000",
"v+	c #000000",
"w+	c #000000",
"x+	c #000000",
"y+	c #000000",
"z+	c #000000",
"A+	c #000000",
"B+	c #000000",
"C+	c #000000",
"D+	c #000000",
"E+	c #000000",
"F+	c #000000",
"G+	c #000000",
"H+	c #000000",
"                                                                ",
"                                                                ",
"                                                                ",
"                                                                ",
"                                                                ",
"      . . . . . .                               . . . . . .     ",
"    .   .   .   . . .                       . . .   .   .   .   ",
"  .   . . . . . .   . . .               . .   . . . . . . .   . ",
"  . . . . + @ # $ . .   .           . .   . . . + % $ $ & . . . ",
"  . . % . * = - ; > , . .       . .   . . . ' ) . . . . ! ~ . . ",
"  . . ! . ~ { ] ^ ] { ~ .   . .   . . . / / . . . . . . ! ~ . . ",
"  . . ! . ~ { ] ^ ] { ~ . .   . . . / / ( _ . . . . . . : . < . ",
"  . . [ . } | [ 1 . . . < . . . . / ( ( 2 3 . . < . . . . < . . ",
"  . < . . 4 ] . . . < . . . / / . ( 2 2 3 3 . 5 . < . < . . . . ",
"  . . . . . . . < . . . / / ( ( . 2 3 3 3 6 . 7 8 . . . . / % . ",
"  . . < . < . < . . / / ( ( 2 2 . 3 3 3 6 9 . 0 a / / / / ( b . ",
"  . % . . . . . % . ( ( 2 2 3 3 . 3 6 6 9 [ . c d ( ( ( ( 2 e . ",
"  . b / / / / / b . 2 2 3 3 3 3 . 6 9 9 . . . c f 2 2 2 2 3 ! . ",
"  . e ( / / / ( e . 3 3 3 3 6 6 . 9 . .   . . g f 3 3 3 3 3 h . ",
"  . ! 2 _ _ _ 2 ! . 3 3 6 6 9 9 . .   . . . . g i 3 3 3 3 6 h . ",
"  . h 3 3 3 3 3 ! . 6 6 9 9 . .   . . .     . j k 6 6 6 6 9 [ . ",
"  . h 3 3 3 3 3 h . 9 9 . .   . . .         . . . 9 9 9 9 . . . ",
"  . [ 6 6 6 6 6 h . . .   . . .               .   . . . . .   . ",
"  . . 9 9 9 9 9 [ .   . . .                     . .       . .   ",
"  .   . . . . . . . . .                           . . . . .     ",
"    . .   .   .   .                                             ",
"      . . . . . . .                                             ",
"                                                    p           ",
"                                                                ",
"                                                                ",
"                                                                ",
"                                                                "};
