/* XPM */
static const char *multiload_xpm[]={
"16 15 5 1",
". c None",
"# c #000000",
"b c #2007f0",
"a c #ff0000",
"c c #ffffff",
".#..##.##.......",
"##...#..#.......",
".#..#..##.aaaa..",
".#..#...#....a..",
"###.##.##..aaaaa",
"............aaa.",
"############.a..",
"#b#bb#bb#bb#....",
"################",
"#c#.#b#bb#bb#bb#",
"################",
"#c#.#c#..#..#..#",
"################",
"....#c#..#..#..#",
"....############"};
