/* XPM */
static const char * new_note_xpm[] = {
"15 16 6 1",
" 	c None",
".	c #000000",
"+	c #FFFFFF",
"@	c #C2BFA5",
"#	c #00FFFF",
"$	c #030003",
"..........     ",
".++++++++..    ",
".++++++++.@.   ",
".++++++++.@@.  ",
".++++++++.@@@. ",
".++++++++..... ",
".++++......... ",
".+++.#@#@#@#@#.",
".+++.@#....@#..",
".++.@#@#@#@#.+.",
".++.#@....#@.+.",
".+.@@#@#@#@.++.",
".+.@#@#@#@#.++.",
".++........+++.",
".++++.++++++++.",
"..............$"};
