/* XPM */
static const char * new_matrix_xpm[] = {
"15 16 6 1",
" 	c None",
".	c #000000",
"+	c #FFFFFF",
"@	c #8F888F",
"#	c #2007F0",
"$	c #FFFF80",
"..........     ",
".++++++++..    ",
".++++++++.@.   ",
".++++++++.@@.  ",
".++++++++.@@@. ",
".++++++++..... ",
".++++++++++++. ",
".+.............",
".+.##.##.##.##.",
".+.............",
".+.$$.$$.$$.$$.",
".+.$$.$$.$$.$$.",
".+.............",
".+.$$.$$.$$.$$.",
".+.$$.$$.$$.$$.",
"..............."};
