/* XPM */
static const char * new_graph_xpm[] = {
"15 17 5 1",
" 	c None",
".	c #000000",
"+	c #FFFFFF",
"@	c #A0A7AF",
"#	c #030003",
"..........     ",
".++++++++..    ",
".++++++++.@.   ",
".++++++++.@@.  ",
".++++++++.@@@. ",
".++++++++..... ",
".++++++++++++. ",
".++++++++++++. ",
".++++++++++++. ",
".++............",
".++.+.++++++++.",
".++.+..+++++++.",
".++.+#++++++++.",
".++.+#+#++#+++.",
".++.+########+.",
"....++++++++++.",
"   ............"};
