/* XPM */
static const char* newfolder_xpm[] = {
    "15 14 4 1",
    " 	c None",
    ".	c #000000",
    "+	c #FFFF00",
    "@	c #FFFFFF",
    "          .    ",
    "               ",
    "          .    ",
    "       .     . ",
    "  ....  . . .  ",
    " .+@+@.  . .   ",
    "..........  . .",
    ".@+@+@+@+@..   ",
    ".+@+@+@+@+. .  ",
    ".@+@+@+@+@.  . ",
    ".+@+@+@+@+.    ",
    ".@+@+@+@+@.    ",
    ".+@+@+@+@+.    ",
    "...........    "};
