/* XPM */
static const char * next_xpm[] = {
"16 17 26 1",
" 	c None",
".	c #000000",
"+	c #8CA684",
"@	c #BAD4B8",
"#	c #73A26B",
"$	c #BAD4BA",
"%	c #ADCBAD",
"&	c #739A63",
"*	c #BDD7BD",
"=	c #BAD3B8",
"-	c #BAD3BA",
";	c #ADC7AD",
">	c #081008",
",	c #ADC7A5",
"'	c #A5C7A5",
")	c #7B9E73",
"!	c #A5BEA5",
"~	c #A5C3A5",
"{	c #6B9263",
"]	c #738E6B",
"^	c #6B8E63",
"/	c #425929",
"(	c #6B8663",
"_	c #5A7952",
":	c #63825A",
"<	c #526942",
"       .        ",
"       ..       ",
"       .+.      ",
"       .@#.     ",
"........$%&.    ",
".*******=-;&>   ",
".;%;;;,,;%;').  ",
".!;,',,;%;;%~{. ",
".]^{{{{{{{{{{^/.",
".(___________/. ",
".(__________/.  ",
".:<<<<<<___/.   ",
"........<_/.    ",
"       .</.     ",
"       ./.      ",
"       ..       ",
"       .        "};
