/* XPM */
static const char * no_axes_xpm[] = {
"20 19 6 1",
" 	c None",
".	c #0810B5",
"+	c #0814B5",
"@	c #0010B5",
"#	c #1018BD",
"$	c #101CBD",
"      . . . . . . + ",
"    @              #",
"                 @  ",
"  @                .",
"               @    ",
" $ . . . . . .     .",
".             .     ",
"                   .",
".             .     ",
"                   .",
".             .     ",
"                   .",
".             .     ",
"                   .",
".             .     ",
"                 .  ",
".             .     ",
"               .    ",
". . . . . . . .     "};
