/* XPM */
static const char * no_floor_xpm[] = {
"20 10 2 1",
" 	c None",
".	c #000000",
"    ................",
"    .              .",
"   .               .",
"   .              . ",
"  .               . ",
"  .              .  ",
" .               .  ",
" .              .   ",
".               .   ",
"................    "};
