/* XPM */
static const char * no_grid_xpm[] = {
"20 18 54 1",
" 	c None",
".	c #181818",
"+	c #212021",
"@	c #181C18",
"#	c #4A494A",
"$	c #525152",
"%	c #181418",
"&	c #5A595A",
"*	c #FFCF21",
"=	c #6B696B",
"-	c #FFC329",
";	c #FFBE29",
">	c #FFC331",
",	c #393C39",
"'	c #211C21",
")	c #FFAE31",
"!	c #080C08",
"~	c #101410",
"{	c #737173",
"]	c #FF9E39",
"^	c #FF8A39",
"/	c #FF8E42",
"(	c #636163",
"_	c #736D73",
":	c #FF7D42",
"<	c #FF7939",
"[	c #101010",
"}	c #FF6931",
"|	c #FF6531",
"1	c #FF5529",
"2	c #FF5531",
"3	c #292429",
"4	c #FF4121",
"5	c #FF4521",
"6	c #393839",
"7	c #292829",
"8	c #393439",
"9	c #FF3018",
"0	c #FF1C10",
"a	c #FF1808",
"b	c #FF0400",
"c	c #FF0808",
"d	c #F70000",
"e	c #313031",
"f	c #E70000",
"g	c #949294",
"h	c #ADAEAD",
"i	c #CE0000",
"j	c #D60000",
"k	c #737573",
"l	c #5A5D5A",
"m	c #8C8A8C",
"n	c #292C29",
"o	c #312C31",
"           ..       ",
"         +@#$%.     ",
"        .&****%     ",
"       %=-;>;-,'    ",
"       %)))))))!    ",
"      ~{]]]]]]]+    ",
"      .^/^/^/^/(%   ",
"     %_:<:<:<:<:[   ",
"     ~}|}|}|}|}|~   ",
"    ~&11121112113   ",
"    [4545454545467  ",
"   .899999999999=+  ",
"   !0a0a0a0a0a0a0!  ",
"   3bcbcbcbcbcbcb.  ",
"  [dddddddddddddde+ ",
" [+fffffffffffffff! ",
"%~gh&7#(_iiijk(l#7+e",
",     m#nonn+++++  ["};
