/* XPM */
static const char * note_xpm[] = {
"16 16 28 1",
" 	c None",
".	c #3F3F3F",
"+	c #000000",
"@	c #303030",
"#	c #609F9F",
"$	c #60DFDF",
"%	c #30AFAF",
"&	c #00AFAF",
"*	c #305F5F",
"=	c #202020",
"-	c #308F8F",
";	c #909090",
">	c #404040",
",	c #306F6F",
"'	c #30DFDF",
")	c #C0C0C0",
"!	c #A0A0A0",
"~	c #BFBFBF",
"{	c #707070",
"]	c #DFDFDF",
"^	c #808080",
"/	c #30CFCF",
"(	c #204F4F",
"_	c #606060",
":	c #FFFFFF",
"<	c #505050",
"[	c #6F6F6F",
"}	c #CFCFCF",
"     .+..+..+.+ ",
"    @#$%#$%#$&*=",
"   +%$$$$$$$$-;>",
"   @$$,,,,,$'*)>",
"  +%$#,,,,%$-;)>",
"  @$$$$$$$$'*!~>",
" +%$$$$$$$$-{!~>",
" @$$$$$$$$'*)]]>",
"+%$$$$$$$$-^!~~>",
"+////////-(!!~~>",
" ++++@___;))]:]>",
"     <!!!!!!~~~>",
"     <!!!!!!~~~>",
"     []]]]]:::}>",
"     +^!!!!!!!;=",
"      +++++++++ "};
