/* XPM */
static const char * open_template_xpm[] = {
"15 16 7 1",
" 	c None",
".	c #000000",
"+	c #E1E0D2",
"@	c #FFFF00",
"#	c #808000",
"$	c #FFFFFF",
"%	c #030003",
"         ...   ",
"        .   . .",
" ...         ..",
".+@+....... ...",
".@+@+@+@+@.    ",
".+@+@+@+@+.    ",
".@+@+..........",
".+@+.#########.",
".@+............",
".+..$$$$$$$$$$.",
"..#.$%$$$$$$$$.",
"....$%$$$$$$$$.",
"   .$%$%$$%$$$.",
"   .$%%%%%%%%$.",
"   .$$$$$$$$$$.",
"   ............"};
