/* XPM */
static const char *panel_h2_xpm[] = {
/* width height num_colors chars_per_pixel */
"    16    16      256            2",
/* colors */
"`` c #ffffff",
"`. c #ffffcc",
"`# c #ffff99",
"`a c #ffff66",
"`b c #ffff33",
"`c c #ffff00",
"`d c #ffccff",
"`e c #ffcccc",
"`f c #ffcc99",
"`g c #ffcc66",
"`h c #ffcc33",
"`i c #ffcc00",
"`j c #ff99ff",
"`k c #ff99cc",
"`l c #ff9999",
"`m c #ff9966",
"`n c #ff9933",
"`o c #ff9900",
"`p c #ff66ff",
"`q c #ff66cc",
"`r c #ff6699",
"`s c #ff6666",
"`t c #ff6633",
"`u c #ff6600",
"`v c #ff33ff",
"`w c #ff33cc",
"`x c #ff3399",
"`y c #ff3366",
"`z c #ff3333",
"`A c #ff3300",
"`B c #ff00ff",
"`C c #ff00cc",
"`D c #ff0099",
"`E c #ff0066",
"`F c #ff0033",
"`G c #ff0000",
"`H c #ccffff",
"`I c #ccffcc",
"`J c #ccff99",
"`K c #ccff66",
"`L c #ccff33",
"`M c #ccff00",
"`N c #ccccff",
"`O c #cccccc",
"`P c #cccc99",
"`Q c #cccc66",
"`R c #cccc33",
"`S c #cccc00",
"`T c #cc99ff",
"`U c #cc99cc",
"`V c #cc9999",
"`W c #cc9966",
"`X c #cc9933",
"`Y c #cc9900",
"`Z c #cc66ff",
"`0 c #cc66cc",
"`1 c #cc6699",
"`2 c #cc6666",
"`3 c #cc6633",
"`4 c #cc6600",
"`5 c #cc33ff",
"`6 c #cc33cc",
"`7 c #cc3399",
"`8 c #cc3366",
".` c #cc3333",
".. c #cc3300",
".# c #cc00ff",
".a c #cc00cc",
".b c #cc0099",
".c c #cc0066",
".d c #cc0033",
".e c #cc0000",
".f c #99ffff",
".g c #99ffcc",
".h c #99ff99",
".i c #99ff66",
".j c #99ff33",
".k c #99ff00",
".l c #99ccff",
".m c #99cccc",
".n c #99cc99",
".o c #99cc66",
".p c #99cc33",
".q c #99cc00",
".r c #9999ff",
".s c #9999cc",
".t c #999999",
".u c #999966",
".v c #999933",
".w c #999900",
".x c #9966ff",
".y c #9966cc",
".z c #996699",
".A c #996666",
".B c #996633",
".C c #996600",
".D c #9933ff",
".E c #9933cc",
".F c #993399",
".G c #993366",
".H c #993333",
".I c #993300",
".J c #9900ff",
".K c #9900cc",
".L c #990099",
".M c #990066",
".N c #990033",
".O c #990000",
".P c #66ffff",
".Q c #66ffcc",
".R c #66ff99",
".S c #66ff66",
".T c #66ff33",
".U c #66ff00",
".V c #66ccff",
".W c #66cccc",
".X c #66cc99",
".Y c #66cc66",
".Z c #66cc33",
".0 c #66cc00",
".1 c #6699ff",
".2 c #6699cc",
".3 c #669999",
".4 c #669966",
".5 c #669933",
".6 c #669900",
".7 c #6666ff",
".8 c #6666cc",
"#` c #666699",
"#. c #666666",
"## c #666633",
"#a c #666600",
"#b c #6633ff",
"#c c #6633cc",
"#d c #663399",
"#e c #663366",
"#f c #663333",
"#g c #663300",
"#h c #6600ff",
"#i c #6600cc",
"#j c #660099",
"#k c #660066",
"#l c #660033",
"#m c #660000",
"#n c #33ffff",
"#o c #33ffcc",
"#p c #33ff99",
"#q c #33ff66",
"#r c #33ff33",
"#s c #33ff00",
"#t c #33ccff",
"#u c #33cccc",
"#v c #33cc99",
"#w c #33cc66",
"#x c #33cc33",
"#y c #33cc00",
"#z c #3399ff",
"#A c #3399cc",
"#B c #339999",
"#C c #339966",
"#D c #339933",
"#E c #339900",
"#F c #3366ff",
"#G c #3366cc",
"#H c #336699",
"#I c #336666",
"#J c #336633",
"#K c #336600",
"#L c #3333ff",
"#M c #3333cc",
"#N c #333399",
"#O c #333366",
"#P c #333333",
"#Q c #333300",
"#R c #3300ff",
"#S c #3300cc",
"#T c #330099",
"#U c #330066",
"#V c #330033",
"#W c #330000",
"#X c #00ffff",
"#Y c #00ffcc",
"#Z c #00ff99",
"#0 c #00ff66",
"#1 c #00ff33",
"#2 c #00ff00",
"#3 c #00ccff",
"#4 c #00cccc",
"#5 c #00cc99",
"#6 c #00cc66",
"#7 c #00cc33",
"#8 c #00cc00",
"a` c #0099ff",
"a. c #0099cc",
"a# c #009999",
"aa c #009966",
"ab c #009933",
"ac c #009900",
"ad c #0066ff",
"ae c #0066cc",
"af c #006699",
"ag c #006666",
"ah c #006633",
"ai c #006600",
"aj c #0033ff",
"ak c #0033cc",
"al c #003399",
"am c #003366",
"an c #003333",
"ao c #003300",
"ap c #0000ff",
"aq c #0000cc",
"ar c #000099",
"as c #000066",
"at c #000033",
"au c #000000",
"av c None",
"aw c #000000",
"ax c #000000",
"ay c #000000",
"az c #000000",
"aA c #000000",
"aB c #000000",
"aC c #000000",
"aD c #000000",
"aE c #000000",
"aF c #000000",
"aG c #000000",
"aH c #000000",
"aI c #000000",
"aJ c #000000",
"aK c #000000",
"aL c #000000",
"aM c #000000",
"aN c #000000",
"aO c #000000",
"aP c #000000",
"aQ c #000000",
"aR c #000000",
"aS c #000000",
"aT c #000000",
"aU c #000000",
"aV c #000000",
"aW c #000000",
"aX c #000000",
"aY c #000000",
"aZ c #000000",
"a0 c #000000",
"a1 c #000000",
"a2 c #000000",
"a3 c #000000",
"a4 c #000000",
"a5 c #000000",
"a6 c #000000",
"a7 c #000000",
"a8 c #000000",
/* pixels */
"avavavavavavavavavavavavavavavav",
"auavavavavavavavauavavavavavavav",
"auavavavavav.Oavauavavavav.Oavav",
"auavavavavav.Oavauavavavav.Oavav",
"auavavavavav.Oavauavavavav.Oavav",
"auavavavavav.Oavauavavavav.Oavav",
"auavavavavav.Oavauavavavav.Oavav",
"auavavavav.Oavavauavavav.Oavavav",
"auavavavav.Oavavauavavav.Oavavav",
"auavavavav.Oavavauavavav.Oavavav",
"auavavav.Oavavavauavav.Oavavavav",
"auavav.Oavavavavauavav.Oavavavav",
"auav.Oavavavavavauav.Oavavavavav",
"au.Oavavavavavavau.Oavavavavavav",
"auauauauauauauavauauauauauauauau",
"avavavavavavavavavavavavavavavav"
};
