/* XPM */
static const char * pdf_xpm[] = {
"16 16 149 2",
"  	c None",
". 	c #A5A38D",
"+ 	c #949285",
"@ 	c #918F82",
"# 	c #908E81",
"$ 	c #929083",
"% 	c #94927E",
"& 	c #C3C3CB",
"* 	c #BEBEC6",
"= 	c #BCBCC2",
"- 	c #BABAC0",
"; 	c #B2B2B8",
"> 	c #A8A8AC",
", 	c #88888D",
"' 	c #DFDFDF",
") 	c #A09F99",
"! 	c #ABA891",
"~ 	c #FE7C7F",
"{ 	c #FF6A6C",
"] 	c #FF5356",
"^ 	c #FF484C",
"/ 	c #FF4144",
"( 	c #FF3D3F",
"_ 	c #FF373A",
": 	c #FF3134",
"< 	c #FB2E32",
"[ 	c #DB191D",
"} 	c #808085",
"| 	c #FBFBFB",
"1 	c #9B9B94",
"2 	c #AAA791",
"3 	c #FF7476",
"4 	c #FF3639",
"5 	c #FF2124",
"6 	c #FF1519",
"7 	c #FF0C11",
"8 	c #FF060A",
"9 	c #FF0004",
"0 	c #F50003",
"a 	c #E90004",
"b 	c #AB0104",
"c 	c #717173",
"d 	c #9A9991",
"e 	c #FF6163",
"f 	c #FF272A",
"g 	c #FF1A1E",
"h 	c #FF1217",
"i 	c #FF0B0F",
"j 	c #FF0408",
"k 	c #FA0003",
"l 	c #EE0003",
"m 	c #DB0003",
"n 	c #8B0002",
"o 	c #8A8A8D",
"p 	c #747477",
"q 	c #727274",
"r 	c #7E7E81",
"s 	c #8C8C8E",
"t 	c #A4A18B",
"u 	c #D7191C",
"v 	c #810406",
"w 	c #E6E6E6",
"x 	c #CBCBCB",
"y 	c #C5C5C5",
"z 	c #BBBBBB",
"A 	c #C8C8C8",
"B 	c #93907D",
"C 	c #969480",
"D 	c #D4D4D4",
"E 	c #CCCCCC",
"F 	c #D0D0D0",
"G 	c #DEDEDE",
"H 	c #D35152",
"I 	c #DCDBDB",
"J 	c #E0E0E0",
"K 	c #D8D8D8",
"L 	c #D2D2D2",
"M 	c #C7C7C7",
"N 	c #D9D9D9",
"O 	c #8E8C79",
"P 	c #D5D5D5",
"Q 	c #DDDDDD",
"R 	c #F4F4F4",
"S 	c #DF4E4D",
"T 	c #E3E2E3",
"U 	c #ECECEC",
"V 	c #E5E5E5",
"W 	c #DBDBDB",
"X 	c #CECECE",
"Y 	c #E1E1E1",
"Z 	c #8A8875",
"` 	c #E4E4E4",
" .	c #DADADA",
"..	c #E8DBDB",
"+.	c #DD3B3A",
"@.	c #E89A9D",
"#.	c #EEEEEE",
"$.	c #E7E7E7",
"%.	c #868472",
"&.	c #F5F5F5",
"*.	c #EA7C7B",
"=.	c #E9EDF1",
"-.	c #E68F90",
";.	c #EAAAAB",
">.	c #F6F6F6",
",.	c #E8E8E8",
"'.	c #E9E9E9",
").	c #EAEAEA",
"!.	c #EBD3D6",
"~.	c #E94B4C",
"{.	c #E9AAAA",
"].	c #E74849",
"^.	c #E74747",
"/.	c #ED5252",
"(.	c #DB8486",
"_.	c #F1F1F1",
":.	c #F2F2F2",
"<.	c #F3F3F3",
"[.	c #E35A5A",
"}.	c #EABCBE",
"|.	c #EFDADC",
"1.	c #EFF0F2",
"2.	c #F0FFFF",
"3.	c #E4EDF0",
"4.	c #D8B6B9",
"5.	c #D36468",
"6.	c #EFE2E5",
"7.	c #E25D5F",
"8.	c #E58D8F",
"9.	c #EBEBEB",
"0.	c #CDCDCD",
"a.	c #E16F70",
"b.	c #E57070",
"c.	c #DCDCDC",
"d.	c #D1D1D1",
"e.	c #C0C0C0",
"f.	c #D3D3D3",
"g.	c #95927E",
"h.	c #FFFFFF",
"i.	c #F7F7F7",
"j.	c #EDEDED",
"k.	c #E2E2E2",
"l.	c #C6C6C6",
"m.	c #858371",
"n.	c #93917D",
"o.	c #302F29",
"p.	c #1C1B17",
"q.	c #161613",
"r.	c #8F8D79",
"      . + @ # @ # # # $         ",
"      % & * = - ; > , ' ) !     ",
"~ { ] ^ / ( _ : < [ } | ' 1 2   ",
"3 4 5 6 7 8 9 0 a b c | | ' d   ",
"e f g h i j k l m n o p q r s t ",
"u n n n n n n n n v w x y z A B ",
"      C D E F G H I J K L M N O ",
"      C J P Q R S T U V W X Y Z ",
"      C `  .U ..+.@.R #.V D $.%.",
"      C $.Y &.*.=.-.;.>.,. .'.%.",
"      C U ).!.~.{.{.].^./.(._.%.",
"      C :.<.[.}.|.1.2.3.4.5.).%.",
"      C 6.7.8.<.9.$.V J  .0.Q %.",
"      C a.b._.` Y c.K d.F e.f.%.",
"      g.h.i.j.).w k.c.K L l.f.m.",
"      n.o.p.p.p.p.p.p.p.p.q.o.r."};
