/* XPM */
static const char * pie_xpm[] = {
"16 16 7 1",
" 	c None",
".	c #000000",
"+	c #00FFFF",
"@	c #0000FF",
"#	c #FFFF00",
"$	c #00FF00",
"%	c #FF0000",
"     ......     ",
"   . ++++++ .   ",
"  .++++++++++.  ",
" .@.++++++++.#. ",
" .@@.++++++.##. ",
".@@@@.++++.####.",
".@@@@@.++.#####.",
".@@@@@@..######.",
".@@@@@@@........",
".@@@@@@.........",
".@@@@@.$.%......",
" .@@@.$$.%%.... ",
" .@@.$$$.%%%... ",
"  ..$$$$.%%%%.  ",
"   ..$$$.%%..   ",
"     ......     "};
