/* XPM */
static const char * pixelProfile_xpm[] = {
"20 20 56 1",
" 	c None",
".	c #6B696B",
"+	c #6B6D6B",
"@	c #D6D3D6",
"#	c #737173",
"$	c #A5A29C",
"%	c #BDBABD",
"&	c #212021",
"*	c #E7E3E7",
"=	c #B5B2B5",
"-	c #FFFFFF",
";	c #7B797B",
">	c #D6D7D6",
",	c #949694",
"'	c #FFFBFF",
")	c #8C8E8C",
"!	c #848284",
"~	c #A5A2A5",
"{	c #313031",
"]	c #8C8A8C",
"^	c #737573",
"/	c #EFEBEF",
"(	c #ADAEAD",
"_	c #636563",
":	c #9C9A9C",
"<	c #F7F3F7",
"[	c #A5A6A5",
"}	c #BDBEBD",
"|	c #424542",
"1	c #ADAAAD",
"2	c #393839",
"3	c #5A595A",
"4	c #424142",
"5	c #EFEFEF",
"6	c #F7F7F7",
"7	c #525552",
"8	c #181818",
"9	c #636163",
"0	c #B5B6B5",
"a	c #4A4D4A",
"b	c #7B7D7B",
"c	c #DEDFDE",
"d	c #DEDBDE",
"e	c #5A5D5A",
"f	c #949294",
"g	c #E7E7E7",
"h	c #9C9E9C",
"i	c #525152",
"j	c #313431",
"k	c #181C18",
"l	c #101010",
"m	c #212421",
"n	c #292C29",
"o	c #848684",
"p	c #101410",
"q	c #292829",
" . +@# $@#@#@#@#@#@.",
".%&*=-=-=-;>,'=-=-=@",
" &)!-=-='.~{=]-=-=-^",
"+ {/=-=-(,_/+(:<['(@",
"@;~,-=-=}|<1<2 :'(-^",
"3]{/=-~ 4*15:/{ 16=@",
" 7~,'=-3()5:/)/85:<^",
"#>{/[6](9/,*) ;0a0b ",
"@;~]'1@{cb>]d_ #(41e",
"3f{g=g{ ,g. . _ _>_ ",
" |~,<]hb>. 9 e 3}3hi",
"#>{*#h!d; _(&fj!&,a ",
"@;~e1b/] _ &bk~j}a _",
"ehl[^/)>4:m(4}{}n%_ ",
" j:o']fp1i=n {!812 _",
"#@qhpf_ 9 3:j1k%& _ ",
" i]ed!5]@. _[4 e[_ _",
"e,{g(6:5:c_ a~3 _ _ ",
" ; ~-:<:/b _ a _ ^c+",
". +@^ ^ # _ _ _ _ # "};
