/* XPM */
static const char * pointer_xpm[] = {
"16 17 3 1",
" 	c None",
".	c #000000",
"+	c #FFFFFF",
"                ",
"   ..           ",
"   .+.          ",
"   .++.         ",
"   .+++.        ",
"   .++++.       ",
"   .+++++.      ",
"   .++++++.     ",
"   .+++++++.    ",
"   .++++.....   ",
"   .++.+.       ",
"   .+. .+.      ",
"   ..  .+.      ",
"   .    .+.     ",
"         .+.    ",
"         ...    ",
"                "};
