/* XPM */
static const char * pointsMesh_xpm[] = {
"19 20 14 1",
" 	c None",
".	c #1800FF",
"+	c #1804FF",
"@	c #FFFFFF",
"#	c #EFEBEF",
"$	c #FFF7FF",
"%	c #F7F3F7",
"&	c #2104FF",
"*	c #FFFBFF",
"=	c #EFEFEF",
"-	c #EFE7EF",
";	c #E7E3E7",
">	c #E7E7E7",
",	c #F7EFF7",
"            .+     ",
"          @@..     ",
"          @@@#     ",
"         @$..$@    ",
"        @@%&.#@@   ",
"       @*@@@@=@@   ",
"      .+#-@@@;@@@  ",
"      ..@>..@@..@  ",
"      @@@@.&@@.&   ",
"     @@@@@@@@@@@@  ",
"    @@*@@&.@@*@@@  ",
"     @#@@..@@@$@@  ",
"   &.$@,@@@*@@@@.+ ",
"   ..@@..#@*..@@.. ",
"   @,@@+.@@@.&@@@@ ",
"   *@@@@@@@@@@@@@@ ",
"  @,@@@@@@@@@@@@@+.",
"..$@..@@@=@@@@@@@..",
".&  .&@@.&@@ &.@   ",
"        ..   ..    "};
