/* XPM */
static const char * prev_xpm[] = {
"16 17 27 1",
" 	c None",
".	c #000000",
"+	c #BDD3BD",
"@	c #B5CBB5",
"#	c #B5C7B5",
"$	c #B5CFB5",
"%	c #BDCFB5",
"&	c #BDCFBD",
"*	c #7BAA7B",
"=	c #ADC7AD",
"-	c #B5CBAD",
";	c #ADC7A5",
">	c #6B8263",
",	c #292C29",
"'	c #ADCBAD",
")	c #B5C7AD",
"!	c #638E63",
"~	c #9CAE9C",
"{	c #84AE84",
"]	c #84B284",
"^	c #8CAE84",
"/	c #8CB284",
"(	c #527152",
"_	c #395131",
":	c #5A7952",
"<	c #4A6142",
"[	c #425539",
"        .       ",
"       ..       ",
"      .+.       ",
"     .@#.       ",
"    .@@#........",
"   .@@$$%+%&+@*.",
"  .@=@@-=====;>.",
" ,@')=='===)='!.",
".~{{{{{{]^{]/{(.",
" ._:::::::::::<.",
"  ._::::::::::<.",
"   ._::<______[.",
"    ._:<........",
"     ._<.       ",
"      .<.       ",
"       ..       ",
"        .       "};
