/* XPM */
static const char * python_xpm[] = {
"16 16 36 1",
" 	c None",
".	c #000000",
"+	c #909090",
"@	c #3F3FFF",
"#	c #7F7FFF",
"$	c #0000FF",
"%	c #5050CF",
"&	c #4040BF",
"*	c #00007F",
"=	c #DFDFDF",
"-	c #404040",
";	c #404000",
">	c #202000",
",	c #606000",
"'	c #7F7F7F",
")	c #A0A0A0",
"!	c #7F7F00",
"~	c #3F3F3F",
"{	c #BFBF3F",
"]	c #808000",
"^	c #609F00",
"/	c #00BF00",
"(	c #40BF00",
"_	c #209F00",
":	c #00FF00",
"<	c #20DF00",
"[	c #007F00",
"}	c #003F00",
"|	c #205F00",
"1	c #9F5F00",
"2	c #BF0000",
"3	c #5F5F00",
"4	c #3F3F00",
"5	c #8F8F8F",
"6	c #AFAFAF",
"7	c #707070",
"................",
".+@@#@#$@$$$%&+.",
".**************.",
".=-  .;>,>   ').",
".=-  !~{~;   ').",
".=-  !~{~;.  ').",
".=-.>;,;,]>;.').",
".=-,]]]]^^/,]').",
".=-,],^(_/:;]').",
".=-:<<<[><[<]').",
".=-}|1>><}|<]').",
".=-.23_/}._^]').",
".=-24[}.}(^],').",
".=5''''''''''6).",
".5))))))))))))7.",
" .............. "};
