/* XPM */
static const char *quit_xpm[]={
"32 32 170 2",
"Qt c None",
".c c #000000",
"#3 c #573700",
"a# c #5c3a00",
"#n c #5e3c00",
"ar c #623e00",
"#x c #633f00",
"#d c #664100",
".W c #694300",
"#m c #6b4400",
"an c #6c4500",
".P c #6d4600",
"#w c #704800",
"aG c #714800",
".G c #734a00",
"aK c #744a00",
".Y c #744b00",
".F c #774c00",
"#l c #774d00",
"am c #794e00",
".7 c #7a4f00",
".x c #7c5000",
"#c c #7f5200",
".d c #808080",
".X c #815400",
"#W c #845500",
".6 c #865700",
"af c #8f5d00",
"aN c #925f00",
"aL c #946000",
"aJ c #966200",
"aI c #996300",
"aM c #996400",
"aH c #9b6500",
"aF c #9d6700",
"aE c #a06800",
".b c #a0a0a4",
"aD c #a26a00",
"az c #a46c00",
"ay c #a76d00",
"aq c #a96f00",
"al c #ab7100",
"ae c #ae7200",
"#9 c #b07400",
"ax c #b1aeac",
"ak c #b27600",
"#1 c #b37600",
".q c #b47700",
"ap c #b4b0ad",
"aw c #b4b1ad",
"#V c #b57700",
".w c #b77900",
"ao c #b7b3ae",
"aj c #b7b3af",
"av c #b7b4af",
"#K c #ba7a00",
".p c #ba7b00",
"ai c #bab6b0",
"ad c #bbb6b1",
"au c #bbb7b1",
".E c #bc7b00",
"#I c #bc7c00",
"ah c #bdb9b2",
".v c #be7d00",
"#Q c #be7e00",
"ac c #beb9b2",
"#8 c #beb9b3",
"at c #bebab3",
"#v c #bf7e00",
".K c #c07f00",
".a c #c0c0c0",
"#k c #c17f00",
"#0 c #c1bcb4",
"as c #c2bdb5",
".D c #c38000",
"#H c #c38100",
".O c #c48100",
"#Z c #c4beb5",
"#7 c #c4bfb6",
"#U c #c5bfb6",
".J c #c68300",
"#Y c #c7c1b7",
".V c #c88400",
"#T c #c8c1b7",
"#6 c #c8c2b7",
"#P c #c8c2b8",
".N c #cb8600",
"#O c #cbc4b9",
"#5 c #cbc5b9",
"#J c #cbc5ba",
"ab c #ccc5ba",
".5 c #cd8800",
".U c #cf8900",
"#u c #cfc8bc",
"#j c #d2cabd",
"#i c #d5ccbe",
"#b c #d5cdbf",
"#a c #d8cfc0",
".4 c #d9d0c1",
".u c #dad2c1",
".C c #dbd2c1",
".o c #dbd2c2",
"aA c #dc9200",
".3 c #dcd2c2",
".T c #dcd3c2",
".n c #ded5c3",
".S c #dfd5c3",
".I c #dfd5c4",
".t c #e1d8c5",
".m c #e2d8c5",
".2 c #e3d8c5",
".H c #e3d8c6",
".l c #e5dbc7",
".B c #e6dbc7",
".A c #e9dec8",
".k c #e9dec9",
".s c #ece1ca",
".z c #ede1ca",
".j c #ede1cb",
".i c #f0e4cc",
".M c #f1e4cc",
".r c #f3e7ce",
".h c #f4e7ce",
".g c #f7ead0",
".y c #f8ead0",
".f c #fbedd2",
"ag c #ff2700",
"aa c #ff2d00",
"#4 c #ff3400",
"#X c #ff3b00",
"#S c #ff4200",
"#N c #ff4800",
"#R c #ff4900",
"#M c #ff4f00",
"#G c #ff5000",
"#F c #ff5600",
"#L c #ff5c00",
"#E c #ff5d00",
"#t c #ff6300",
"#D c #ff6400",
"#s c #ff6a00",
"#r c #ff7100",
"#h c #ff7700",
"#C c #ff7800",
"#g c #ff7e00",
"#B c #ff7f00",
"#f c #ff8400",
"#q c #ff8500",
"#e c #ff8b00",
"## c #ff8c00",
"#. c #ff9200",
"#A c #ff9300",
".9 c #ff9900",
".1 c #ff9f00",
".8 c #ffa000",
".0 c #ffa600",
"#z c #ffa700",
".Z c #ffad00",
"#y c #ffae00",
".R c #ffb300",
"#p c #ffb400",
"aB c #ffb848",
".Q c #ffba00",
"#o c #ffbb00",
".L c #ffc800",
"aC c #ffe2b1",
".e c #fff0d4",
".# c #fffbf0",
"a. c #ffff8e",
"#2 c #ffffb1",
"QtQtQtQtQtQtQtQtQtQtQt.#.#.#.#.#.#.#.#.#.#.#.#.#.#.#.#.#.aQtQtQt",
"QtQtQtQtQtQtQtQtQtQt.b.#.c.c.c.c.c.c.c.c.c.c.c.c.c.c.c.c.a.dQtQt",
"QtQtQtQtQtQtQtQtQtQt.b.#.c.e.f.g.h.i.j.k.l.m.n.o.c.p.q.c.a.dQtQt",
"QtQtQtQtQtQtQtQtQtQt.b.#.c.f.g.r.i.s.k.l.t.n.u.c.v.w.x.c.a.dQtQt",
"QtQtQtQtQtQtQtQtQtQt.b.#.c.y.h.i.z.A.B.m.n.C.c.D.E.F.G.c.a.dQtQt",
"QtQtQtQtQtQtQtQtQt.c.c.#.c.h.i.z.k.B.H.I.o.c.J.K.G.G.G.c.a.dQtQt",
"QtQtQtQtQtQtQtQtQt.c.L.c.c.M.z.A.B.m.I.o.c.N.O.P.G.x.G.c.a.dQtQt",
"QtQtQtQtQtQtQtQtQt.c.Q.R.c.j.k.B.m.S.T.c.U.V.W.G.X.Y.G.c.a.dQtQt",
"QtQtQtQtQtQtQtQtQt.c.Z.0.1.c.B.2.I.3.4.c.5.J.G.6.7.P.G.c.a.dQtQt",
"QtQtQtQtQtQtQtQtQt.c.8.9#.##.c.S.o#a#b.c.N.O.G#c.G#d.G.c.a.dQtQt",
"QtQt.c.c.c.c.c.c.c.c#.#e#f#g#h.c#a#i#j.c.V#k.G#l#m#n.G.c.a.dQtQt",
"Qt.c#o#p.Z.0.8.9#.###q#g#h#r#s#t.c#j#u.c.J#v.G#w#x.G.x.c.a.dQtQt",
"Qt.c#y#z.8.9#A###q#B#C#r#s#D#E#F#G.c#u.c#H#I.G.W.G.X.Y.c.a.dQtQt",
"Qt.c#y#z.8.9#A###q#B#C#r#s#D#E#F#G.c#J.c#k#K.G.G.7.7.P.c.a.dQtQt",
"Qt.c.8.9#.#e#q#g#h#r#s#t#L#F#M#N.c#O#P.c#Q.w.G#c.G.G#d.c.a.dQtQt",
"QtQt.c.c.c.c.c.c.c.c#E#F#M#R#S.c#O#T#U.c#I#V#W.c.c#m#n.c.a.dQtQt",
"QtQtQt.b.b.b.b.b.b.c#M#N#S#X.c#O#Y#Z#0.c.p#1.c#2.c#x#3.c.a.dQtQt",
"QtQtQtQt.b.b.b.b.b.c#S#X#4.c#5#6#7#0#8.c.w#9.ca..ca#.G.c.a.dQtQt",
"QtQtQtQtQtQtQtQtQt.c#4aa.cab#P#U#0acad.c#Vaeaf.c.c.G.G.c.a.dQtQt",
"QtQtQtQtQtQtQtQtQt.cag.c.c#P#7#0ahaiaj.cakalaman.G.x.G.c.a.dQtQt",
"QtQtQtQtQtQtQtQtQt.c.c.a.c#U#0acaiaoap.c#9aqar.G.X.Y.G.c.a.dQtQt",
"QtQtQtQtQtQtQtQtQtQt.b.a.casatauavawax.caeay.G.6.7.P.G.c.a.dQtQt",
"QtQtQtQtQtQtQtQtQtQt.b.#.c.c.c.c.c.c.c.calaz.G#c.G#d.G.c.a.dQtQt",
"QtQtQtQtQtQtQtQtQtQt.b.#.caAaAaBaBaCaC.caqaD.G#l#m#n.G.c.a.dQtQt",
"QtQtQtQtQtQtQtQtQtQt.b.#.caBaBaCaCaCaB.cayaE.G#w#x.G.x.c.a.dQtQt",
".c.c.c.c.c.c.c.c.c.c.c.c.caCaCaCaBaBaC.cazaF.G.W.G.FaG.c.c.c.c.c",
"aBaCaCaCaBaBaCaCaCaBaBaCaCaCaBaBaCaCaC.caDaH.G.G.Gan.caAaAaBaBaC",
"aCaCaBaBaCaCaCaBaBaCaCaCaBaBaCaCaCaBaB.caEaI.Gam.G.caAaBaBaCaCaC",
"aBaBaCaCaCaBaBaCaCaCaBaBaCaCaCaBaBaCaC.caFaJaK.P.caBaBaCaCaCaBaB",
"aCaCaCaBaBaCaCaCaBaBaCaCaCaBaBaCaCaCaB.caHaL.W.caBaCaCaCaBaBaCaC",
"aCaCaBaCaCaCaBaBaCaCaCaBaBaCaCaCaBaBaC.caMaN.caCaCaCaBaBaCaCQtQt",
"QtQtQtaCaBaBaCaCaCaBaBaCaCaCaBaBaCaCaC.c.c.caCaCaBaBaCaCQtQtQtQt"};
