/* XPM */
static const char * randomNumbers_xpm[] = {
"15 14 3 1",
" 	c None",
".	c #000000",
"+	c #FFFFFF",
"      ...      ",
"      .+....   ",
"      .+..+.   ",
"...   .+..+.   ",
".+.   .+..+.   ",
".+.   .+..+.   ",
".+.....+..+.   ",
".+..+..+..+.   ",
".+..+..+..+.   ",
".+..+..+..+....",
".+..+..+..+..+.",
".+..+..+..+..+.",
".+..+..+..+..+.",
"..............."};
