/* XPM */
static const char * redo_xpm[] = {
"14 18 36 1",
" 	c None",
".	c #000000",
"+	c #949A8C",
"@	c #BDD39C",
"#	c #848E73",
"$	c #ADBEA5",
"%	c #C6D7AD",
"&	c #D6DFBD",
"*	c #BDD3A5",
"=	c #9CA28C",
"-	c #D6E3C6",
";	c #CEDFBD",
">	c #D6E3BD",
",	c #8C9A7B",
"'	c #9CAA84",
")	c #B5C3AD",
"!	c #94AE63",
"~	c #7B9A42",
"{	c #5A7129",
"]	c #7B8E6B",
"^	c #CEDBB5",
"/	c #84A24A",
"(	c #526929",
"_	c #A5B694",
":	c #9CB673",
"<	c #6B8A39",
"[	c #94A67B",
"}	c #8CAA5A",
"|	c #637152",
"1	c #9CAE73",
"2	c #ADC394",
"3	c #6B795A",
"4	c #9CAE84",
"5	c #738263",
"6	c #849673",
"7	c #5A554A",
"       .      ",
"       ..     ",
"       .+.    ",
"    ....@+.   ",
"   .#$%&*@=.  ",
"  .$-;>%@@@+. ",
" .,--&*@@@@@'.",
" .)-!~~~~~~{. ",
".]^/~~~~~~(.  ",
"._:~{...~(.   ",
".@~<.  .{.    ",
".@~.   ..     ",
".[}.   .      ",
".|1.          ",
" .2.          ",
" .34.         ",
"  .56.        ",
"   ..7        "};
