/* XPM */
static const char * resize_xpm[] = {
"16 15 28 1",
" 	c None",
".	c #010000",
"+	c #0000FC",
"@	c #B7C5D5",
"#	c #859DB7",
"$	c #8AA0BA",
"%	c #8EA4BD",
"&	c #93A8C0",
"*	c #98ACC2",
"=	c #BBC8D7",
"-	c #8AA1BA",
";	c #8FA5BD",
">	c #94A9C0",
",	c #99ADC3",
"'	c #9EB1C6",
")	c #000000",
"!	c #B2C1D2",
"~	c #90A6BE",
"{	c #95AAC1",
"]	c #9AAEC3",
"^	c #9FB1C6",
"/	c #A5A38C",
"(	c #A19F89",
"_	c #9E9C87",
":	c #AAA790",
"<	c #B0AD95",
"[	c #92907C",
"}	c #878573",
"........        ",
".++++++.        ",
"........        ",
".@#$%&*.        ",
".=-;>,'. ) ) ) )",
".!~{]^..        ",
"......../      )",
"       ()/      ",
"   )    _):    )",
"         _)<    ",
"   )      ()[) )",
"           }))  ",
"   )       ))) )",
"                ",
"   ) ) ) ) ) ) )"};
