/* XPM */
static const char * ribbon_xpm[] = {
"16 16 6 1",
" 	c None",
".	c #000000",
"+	c #FFFFFF",
"@	c #AF032E",
"#	c #0000FF",
"$	c #100493",
"                ",
"      ..........",
"     .+.+++++++.",
"    .++.+++++++.",
"   .+++.++++.++.",
"  .++++.+++.@.+.",
" .+#++..++.@@@..",
" .#$#.@.+.@@@.+.",
" #$$$#@@.@@@.++.",
" .#$$$#@@@@.....",
" .+#$$$#@##+++. ",
" .++#$$$#$$#+.  ",
" .++.#$$$$#+.   ",
" .+.++#$$#+.    ",
" ..++++##+.     ",
" .........      "};
