/* XPM */
static const char * rightGrid_xpm[] = {
"20 19 25 1",
" 	c None",
".	c #C60000",
"+	c #21109C",
"@	c #0810B5",
"#	c #0814B5",
"$	c #B50010",
"%	c #C60818",
"&	c #1018BD",
"*	c #0010B5",
"=	c #A50018",
"-	c #BD0C18",
";	c #BD0000",
">	c #A50829",
",	c #940839",
"'	c #BD0410",
")	c #9C0429",
"!	c #9C0021",
"~	c #BD0008",
"{	c #AD0421",
"]	c #BD0C21",
"^	c #A5245A",
"/	c #636DFF",
"(	c #BD1021",
"_	c #B50008",
":	c #8C0439",
"    ..+ @ @ @ @ @ # ",
"    $%             &",
"   ...           *  ",
"  =. -             @",
" .. $;         *    ",
".>.,.' @ @ @ @     @",
")!.; .        @     ",
".'.  -             @",
"~;. ..        @     ",
".{...%             @",
"$ .. .        @     ",
".'.  ]             @",
"~;.  .        @     ",
".{. .^ / / / / / / @",
"$ ...         @     ",
". .(             @  ",
"$_.           @     ",
".(             @    ",
": @ @ @ @ @ @ @     "};
