/* XPM */
static const char * save_template_xpm[] = {
"17 16 83 1",
" 	c None",
".	c #030003",
"+	c #AEC9E4",
"@	c #84808A",
"#	c #ECA898",
"$	c #EEA493",
"%	c #E69D91",
"&	c #E69E94",
"*	c #E29E91",
"=	c #DF9689",
"-	c #DE9488",
";	c #DB9287",
">	c #C28985",
",	c #83909E",
"'	c #728A9D",
")	c #A3BEDA",
"!	c #7E7784",
"~	c #D89187",
"{	c #D88B83",
"]	c #D78B83",
"^	c #D78C83",
"/	c #CD837C",
"(	c #D0827B",
"_	c #D2867C",
":	c #CD796F",
"<	c #B67977",
"[	c #778293",
"}	c #516B7D",
"|	c #9EBDD4",
"1	c #878D93",
"2	c #FFFFFF",
"3	c #E4E4E4",
"4	c #7B8998",
"5	c #4E687B",
"6	c #A0BBD2",
"7	c #82878D",
"8	c #DDDEDD",
"9	c #C0C1C0",
"0	c #7E8B98",
"a	c #4C6374",
"b	c #9AB9D2",
"c	c #80858B",
"d	c #7E8A98",
"e	c #475F70",
"f	c #95B7CF",
"g	c #81888D",
"h	c #C5C5C5",
"i	c #4E606D",
"j	c #99B8CE",
"k	c #838088",
"l	c #D4D3D4",
"m	c #D3D2D3",
"n	c #D0D1D2",
"o	c #D1D1D1",
"p	c #BEBEBF",
"q	c #7A8A99",
"r	c #4B5B65",
"s	c #91B1CB",
"t	c #7E97AB",
"u	c #7E90A2",
"v	c #7C8D9D",
"w	c #000000",
"x	c #90AECA",
"y	c #6D90A9",
"z	c #637380",
"A	c #697075",
"B	c #8DADC7",
"C	c #67859B",
"D	c #797B7D",
"E	c #D5D4D2",
"F	c #8BABC5",
"G	c #6A8399",
"H	c #888889",
"I	c #E6E1E0",
"J	c #7B99AE",
"K	c #647E93",
"L	c #7F8081",
"M	c #D7D6D6",
"N	c #838072",
"O	c #4C5E6B",
"P	c #646A6D",
"Q	c #A8A39D",
"R	c #838071",
"...............  ",
".+@#$%&*=-;>,'.  ",
".)!~{]^/(_:<[}.  ",
".|122222222345.  ",
".678888888890a.  ",
".bc222222223de.  ",
".fg88888888h4i.  ",
".jklmmmnommpqr.  ",
".stuvwwwwwwwwwwww",
".xyzAw2222222222w",
".BCDEw2.22222222w",
".FGHIw2.22222222w",
".JKLMw2.2.22.222w",
"N.OPQw2........2w",
" R....2222222222w",
"     wwwwwwwwwwww"};
