<?xml version="1.0" encoding="UTF-8" standalone="no"?>
<!-- Created with Inkscape (http://www.inkscape.org/) -->
<svg
   xmlns:dc="http://purl.org/dc/elements/1.1/"
   xmlns:cc="http://web.resource.org/cc/"
   xmlns:rdf="http://www.w3.org/1999/02/22-rdf-syntax-ns#"
   xmlns:svg="http://www.w3.org/2000/svg"
   xmlns="http://www.w3.org/2000/svg"
   xmlns:xlink="http://www.w3.org/1999/xlink"
   xmlns:sodipodi="http://sodipodi.sourceforge.net/DTD/sodipodi-0.dtd"
   xmlns:inkscape="http://www.inkscape.org/namespaces/inkscape"
   width="32"
   height="32"
   id="svg4732"
   sodipodi:version="0.32"
   inkscape:version="0.45.1"
   version="1.0"
   sodipodi:docbase="/home/knut/scidavis/trunk/scidavis/icons"
   sodipodi:docname="scidavis-icon.svg"
   inkscape:output_extension="org.inkscape.output.svg.inkscape"
   inkscape:export-filename="/home/knut/scidavis/trunk/scidavis/icons/scidavis-icon.png"
   inkscape:export-xdpi="90"
   inkscape:export-ydpi="90">
  <defs
     id="defs4734">
    <linearGradient
       id="linearGradient5758">
      <stop
         style="stop-color:#ffd0d0;stop-opacity:1;"
         offset="0"
         id="stop5760" />
      <stop
         style="stop-color:#c50000;stop-opacity:1;"
         offset="1"
         id="stop5762" />
    </linearGradient>
    <linearGradient
       id="linearGradient5750">
      <stop
         style="stop-color:#a4bced;stop-opacity:1;"
         offset="0"
         id="stop5752" />
      <stop
         style="stop-color:#204ba0;stop-opacity:1;"
         offset="1"
         id="stop5754" />
    </linearGradient>
    <linearGradient
       id="linearGradient5740">
      <stop
         style="stop-color:#ffffff;stop-opacity:1;"
         offset="0"
         id="stop5742" />
      <stop
         style="stop-color:#000000;stop-opacity:1;"
         offset="1"
         id="stop5744" />
    </linearGradient>
    <radialGradient
       inkscape:collect="always"
       xlink:href="#linearGradient5758"
       id="radialGradient5764"
       cx="17.128807"
       cy="15.980353"
       fx="17.128807"
       fy="15.980353"
       r="5.2678132"
       gradientTransform="matrix(1,0,0,0.9253732,0,1.2791078)"
       gradientUnits="userSpaceOnUse" />
  </defs>
  <sodipodi:namedview
     id="base"
     pagecolor="#ffffff"
     bordercolor="#666666"
     borderopacity="1.0"
     inkscape:pageopacity="0.0"
     inkscape:pageshadow="2"
     inkscape:zoom="16.8125"
     inkscape:cx="16"
     inkscape:cy="16"
     inkscape:document-units="px"
     inkscape:current-layer="layer1"
     width="32px"
     height="32px"
     inkscape:window-width="1280"
     inkscape:window-height="754"
     inkscape:window-x="0"
     inkscape:window-y="0" />
  <metadata
     id="metadata4737">
    <rdf:RDF>
      <cc:Work
         rdf:about="">
        <dc:format>image/svg+xml</dc:format>
        <dc:type
           rdf:resource="http://purl.org/dc/dcmitype/StillImage" />
      </cc:Work>
    </rdf:RDF>
  </metadata>
  <g
     inkscape:label="Ebene 1"
     inkscape:groupmode="layer"
     id="layer1">
    <path
       style="fill:none;fill-opacity:1;fill-rule:evenodd;stroke:#ffffff;stroke-width:2;stroke-linecap:butt;stroke-linejoin:miter;stroke-miterlimit:4;stroke-dasharray:none;stroke-opacity:1"
       d="M 32,5.0000001 C 23.114583,5.0000001 18.1875,10.03125 14.1875,14.28125 C 10.1875,18.53125 7.1145831,22 -5.5511151e-17,22 L -5.5511151e-17,27 C 8.8854168,27 13.8125,21.96875 17.8125,17.71875 C 21.8125,13.46875 24.885417,10 32,10 L 32,5.0000001 z "
       id="path5766" />
    <path
       style="fill:#000000;fill-opacity:1;fill-rule:evenodd;stroke:none;stroke-width:5;stroke-linecap:butt;stroke-linejoin:miter;stroke-miterlimit:4;stroke-dasharray:none;stroke-opacity:1"
       d="M 32,5 C 23.114583,5 18.1875,10.03125 14.1875,14.28125 C 10.1875,18.53125 7.1145833,22 0,22 L 0,27 C 8.8854167,27 13.8125,21.96875 17.8125,17.71875 C 21.8125,13.46875 24.885417,10 32,10 L 32,5 z "
       id="path4763" />
    <path
       style="fill:#275ac0;fill-opacity:1;fill-rule:evenodd;stroke:#a5bdee;stroke-width:1;stroke-linecap:square;stroke-linejoin:miter;stroke-miterlimit:4;stroke-dasharray:none;stroke-opacity:1"
       d="M 8.7424241,0.5 C 8.7424241,2.114583 8.7424241,3.729167 8.7424241,5.34375 C 10.355219,5.34375 11.968013,5.34375 13.580808,5.34375 C 13.580808,12.447916 13.580808,19.552085 13.580808,26.65625 C 11.968013,26.65625 10.355219,26.65625 8.7424241,26.65625 C 8.7424241,28.270835 8.7424241,29.885416 8.7424241,31.5 C 13.580808,31.5 18.419192,31.5 23.257576,31.5 C 23.257576,29.885416 23.257576,28.270835 23.257576,26.65625 C 21.644781,26.65625 20.031987,26.65625 18.419192,26.65625 C 18.419192,19.552085 18.419192,12.447916 18.419192,5.34375 C 20.031987,5.34375 21.644781,5.34375 23.257576,5.34375 C 23.257576,3.729167 23.257576,2.114583 23.257576,0.5 C 18.419192,0.5 13.580808,0.5 8.7424241,0.5 z "
       id="path4740" />
    <path
       sodipodi:type="arc"
       style="opacity:1;fill:url(#radialGradient5764);fill-opacity:1.0;fill-rule:nonzero;stroke:none;stroke-width:5;stroke-linecap:butt;stroke-linejoin:bevel;stroke-miterlimit:4;stroke-dasharray:none;stroke-dashoffset:0;stroke-opacity:1"
       id="path4769"
       sodipodi:cx="15.80344"
       sodipodi:cy="17.140049"
       sodipodi:rx="5.2678132"
       sodipodi:ry="4.8746929"
       d="M 21.071253 17.140049 A 5.2678132 4.8746929 0 1 1  10.535627,17.140049 A 5.2678132 4.8746929 0 1 1  21.071253 17.140049 z"
       transform="matrix(0.9491605,0,0,1.0257056,0.9999991,-1.580644)" />
  </g>
</svg>
