/* XPM */
static const char *select_xpm[]={
"16 16 4 1",
" 	c None",
".	c #D51309",
"+	c #010000",
"@	c #28DAC6",
"        .       ",
"        .       ",
"        .       ",
"        .       ",
"     +++.+++    ",
"     +  .  +    ",
"     +  .  +    ",
"........@.......",
"     +  .  +    ",
"     +  .  +    ",
"     +++.+++    ",
"        .       ",
"        .       ",
"        .       ",
"        .       ",
"        .       "};
