/* XPM */
static const char * spline_xpm[] = {
"17 13 2 1",
" 	c None",
".	c #000000",
"                 ",
"           ..    ",
"            ..   ",
"          .   .  ",
"  ..      .   .  ",
"   .     .    .  ",
"  .      ..    . ",
"  .      .    .. ",
"  .     .        ",
"   .    .        ",
"   ..  ..        ",
"     ..          ",
"                 "};
