/* XPM */
static const char *table_xpm[]={
"15 16 5 1",
"# c None",
". c #000000",
"c c #2007f0",
"b c #8f888f",
"a c #ffffff",
"..........#####",
".aaaaaaaa..####",
".aaaaaaaa.b.###",
".aaaaaaaa.bb.##",
".aaaaaaaa.bbb.#",
".aaaaaaaa.....#",
".aaaaaaaaaaaa.#",
".a.............",
".a.cc.cc.cc.cc.",
".a.............",
".a.aa.aa.aa.aa.",
".a.aa.aa.aa.aa.",
".a.............",
".a.aa.aa.aa.aa.",
".a.aa.aa.aa.aa.",
"..............."};
