/* XPM */
static const char *text_xpm[]={
"18 20 42 1",
" 	c None",
".	c #FFFFFF",
"+	c #000000",
"@	c #6E6DAA",
"#	c #8786B4",
"$	c #3F3E98",
"%	c #00007F",
"&	c #060681",
"*	c #040481",
"=	c #8B8AB5",
"-	c #050581",
";	c #111186",
">	c #3D3D97",
",	c #403F98",
"'	c #5958A2",
")	c #030380",
"!	c #8A89B5",
"~	c #8685B3",
"{	c #0F0F85",
"]	c #3A3996",
"^	c #3C3B96",
"/	c #51509F",
"(	c #5655A1",
"_	c #6160A5",
":	c #817FB1",
"<	c #8382B2",
"[	c #020280",
"}	c #1C1B8A",
"|	c #070782",
"1	c #353494",
"2	c #393895",
"3	c #6161A5",
"4	c #01017F",
"5	c #8584B3",
"6	c #7B7AAF",
"7	c #8180B2",
"8	c #101085",
"9	c #2F2F92",
"0	c #2F2E91",
"a	c #191989",
"b	c #323293",
"c	c #0E0E84",
"           .......",
"           .++.++.",
"      @#   ...+...",
"     $%&     .+.  ",
"     *%%=    .+.  ",
"    #-;%$    .+.  ",
"    >,'%*    .+.  ",
"    )! %%~   .+.  ",
"   ~-  {%]   .+.  ",
"   ^,  /%)   .+.  ",
"   )(  _%%:  .+.  ",
"  <[}}}}|%1  .+.  ",
"  2^    3%4  .+.  ",
"  )5     %%6 .+.  ",
" 7)      8%9 .+.  ",
" 0a      b%% .+.  ",
"cccc    ccccc.+.  ",
"           ...+...",
"           .++.++.",
"           ......."};
