/* XPM */
static const char* const top_scl_xpm[] = {
"36 38 75 1",
" 	c None",
".	c #FFFFFF",
"+	c #F38C82",
"@	c #E71E09",
"#	c #E82612",
"$	c #FEFAFA",
"%	c #E9321F",
"&	c #F7B3AC",
"*	c #E82B17",
"=	c #E82814",
"-	c #F49C93",
";	c #EA3826",
">	c #FBD8D5",
",	c #F9CEC9",
"'	c #EA3E2C",
")	c #EF6D5F",
"!	c #E71803",
"~	c #F9CDC8",
"{	c #FAD6D2",
"]	c #E7200B",
"^	c #E71D08",
"/	c #FEFEFE",
"(	c #FEFCFC",
"_	c #FAD2CE",
":	c #ED5546",
"<	c #FCE2E0",
"[	c #ED5748",
"}	c #FCEAE8",
"|	c #EA3C2A",
"1	c #FAD7D3",
"2	c #FAD5D1",
"3	c #F6ACA5",
"4	c #ED594A",
"5	c #FDF2F1",
"6	c #F2897E",
"7	c #E71C07",
"8	c #F28B80",
"9	c #818181",
"0	c #070707",
"a	c #101010",
"b	c #242424",
"c	c #D5D5D5",
"d	c #C9C9C9",
"e	c #2A2A2A",
"f	c #000000",
"g	c #060606",
"h	c #FCFCFC",
"i	c #7D6F6F",
"j	c #282828",
"k	c #D3D3D3",
"l	c #D1D1D1",
"m	c #7D7D7D",
"n	c #050505",
"o	c #7F7F7F",
"p	c #FAFAFA",
"q	c #1D1D1D",
"r	c #5E5E5E",
"s	c #ACACAC",
"t	c #151515",
"u	c #121212",
"v	c #929292",
"w	c #C8C8C8",
"x	c #D2D2D2",
"y	c #090909",
"z	c #CECECE",
"A	c #444444",
"B	c #E0E0E0",
"C	c #464646",
"D	c #E8E8E8",
"E	c #A4A4A4",
"F	c #484848",
"G	c #F1F1F1",
"H	c #EEEEEE",
"I	c #F7F7F7",
"J	c #EBEBEB",
"....................................",
".......+@#+.....$%......&*=-........",
".......;>,'.....)!......%~{]........",
".......^/(^......!........_:........",
".......^((^......!.......<[}........",
".......|12;......!......345.........",
".......67^8......!......*!!!........",
"90a9................................",
"bcde....f........f.......f.....90a9.",
"g/hg...ffffffffffffffffffffff..bcde.",
"ghhg...fiiiiiiiiiiiiiiiiiiiif..g/hg.",
"jklb..ffiiiiiiiiiiiiiiiiiiiiff.ghhg.",
"mngo...fiiiiiiiiiiiiiiiiiiiif..jklb.",
".......fiiiiiiiiiiiiiiiiiiiif..mngo.",
".......fiiiiiiiiiiiiiiiiiiiif.......",
"pq.....fiiiiiiiiiiiiiiiiiiiif.......",
"rf.....fiiiiiiiiiiiiiiiiiiiif..pq...",
".f.....fiiiiiiiiiiiiiiiiiiiif..rf...",
".f....ffiiiiiiiiiiiiiiiiiiiiff..f...",
".f.....fiiiiiiiiiiiiiiiiiiiif...f...",
".f.....fiiiiiiiiiiiiiiiiiiiif...f...",
".......fiiiiiiiiiiiiiiiiiiiif...f...",
"stuv...fiiiiiiiiiiiiiiiiiiiif.......",
"qwxy...fiiiiiiiiiiiiiiiiiiiif..stuv.",
"..zA...fiiiiiiiiiiiiiiiiiiiif..qwxy.",
".BCD..ffiiiiiiiiiiiiiiiiiiiiff...zA.",
"EFG....fiiiiiiiiiiiiiiiiiiiif...BCD.",
"tfff...fiiiiiiiiiiiiiiiiiiiif..EFG..",
".......ffffffffffffffffffffff..tfff.",
".........f........f.......f.........",
"....................................",
".......90a9......Hq......stuv.......",
".......bcde......rf......qwxy.......",
".......g/hg......If........zA.......",
".......ghhg.......f.......BCD.......",
".......jklb.......f......EFJ........",
".......mngo.......f......tfff.......",
"...................................."};
