/* XPM */
static const char * trajectory_xpm[] = {
"15 16 4 1",
" 	c None",
".	c #000000",
"+	c #FFFFFF",
"@	c #BC0303",
"               ",
"     ..........",
"    .+.+++++++.",
"   .+@@++++@@+.",
"  .++@@@@@@@@+.",
" .++++.+++++@+.",
".+@@++.++++@++.",
".+@@++.++@@+++.",
".++@++.++@@+++.",
".++@++.........",
".+@@+.+++++++. ",
".+@@.+++++++.  ",
".++.@@@@@++.   ",
".+.++++@@+.    ",
"..+++++++.     ",
".........      "};
