/* XPM */
static const char * undo_xpm[] = {
"16 18 34 1",
" 	c None",
".	c #000000",
"+	c #EFE7BD",
"@	c #EFE7C6",
"#	c #EFD784",
"$	c #5A5952",
"%	c #EFE7B5",
"&	c #D6B65A",
"*	c #B59642",
"=	c #D6B252",
"-	c #C6AE73",
";	c #C6A24A",
">	c #9C6900",
",	c #D69608",
"'	c #E7B64A",
")	c #DEC373",
"!	c #8C6500",
"~	c #D69E18",
"{	c #B59239",
"]	c #DEB64A",
"^	c #CEB66B",
"/	c #BD8208",
"(	c #DEA629",
"_	c #D6A629",
":	c #C6B26B",
"<	c #A59252",
"[	c #52514A",
"}	c #8C867B",
"|	c #E7CB7B",
"1	c #948E84",
"2	c #8C7D4A",
"3	c #AD9E5A",
"4	c #94864A",
"5	c #8C8A7B",
"       .        ",
"      ..        ",
"     .+.        ",
"    .@#...$     ",
"   .%####&*.    ",
"  .+#######=.   ",
" .-#########;.  ",
"  .>,,,,,,'#).  ",
"   .!,,,,,,~#{. ",
"    .!,...>,]^. ",
"     .>.  ./(#. ",
"      ..   .,#. ",
"       .   ._:. ",
"           .=<[ ",
"          }.|.1 ",
"          .^2.  ",
"         .34.   ",
"         5..    "};
