/* XPM */
static char * unmask_xpm[] = {
"16 16 18 1",
" 	c None",
".	c #A3A3A3",
"+	c #191919",
"@	c #020202",
"#	c #404040",
"$	c #E94949",
"%	c #F7C1C1",
"&	c #454040",
"*	c #DFAFAF",
"=	c #D44D4D",
"-	c #443F3F",
";	c #464646",
">	c #EA5555",
",	c #433F3F",
"'	c #FFFFFF",
")	c #454141",
"!	c #3F3F3F",
"~	c #414141",
"                ",
"     .++++.     ",
"    .+.  .+.    ",
"    +.    .+    ",
"   .@      +    ",
"        .+++++. ",
"#######  .+++.  ",
"#$%%$%&   .+.   ",
"#%%$%%&    .    ",
"#%$%*=-  #;;;;;#",
"#$%%>%,  ;''''';",
"#%%>%%)  !''''';",
"#######  #''''';",
"         ;''''';",
"         ~''''';",
"         #;;;;;#"};
