/* XPM */
static const char *unzoom_xpm[]={
"18 17 2 1",
". c None",
"# c #000000",
"..................",
"...#..............",
"..###.............",
".#.#.#.......##...",
"...#.....##..##...",
"...#..##.##.......",
"...#..##....##....",
"...#........##....",
"...#...##.........",
"...#...##.##.##...",
".#.#.#....##.##...",
"..###.............",
"...#...#......#...",
"...#..#........#..",
"...##############.",
"......#........#..",
".......#......#..."};
