/* XPM */
static const char * vectXYAM_xpm[] = {
"18 20 2 1",
" 	c None",
".	c #882F2A",
"                  ",
"                  ",
"                  ",
"   ...       ..   ",
"   ..        ..   ",
"   . .      .     ",
"      .    .      ",
"       .          ",
"        .         ",
"         .        ",
"          .       ",
"             .    ",
"  ...       ...   ",
"  ..         .    ",
"  . .        .    ",
"     .       .    ",
"             .    ",
"                  ",
"                  ",
"                  "};
