/* XPM */
static const char * vectXYXY_xpm[] = {
"15 15 3 1",
" 	c None",
".	c #080000",
"+	c #7B1616",
"     .         ",
"      .        ",
"   +++ .       ",
"    ++      .  ",
"   + +       . ",
". +         + .",
" .         +   ",
"  .       +    ",
"         +     ",
"        +      ",
"     + +       ",
"     ++        ",
"   . +++       ",
"    .          ",
"     .         "};
