/* XPM */
static const char * vertBars_xpm[] = {
"16 17 16 1",
" 	c None",
".	c #000000",
"+	c #FFFFFF",
"@	c #FCFCFC",
"#	c #FDFDFD",
"$	c #FEFEFE",
"%	c #030003",
"&	c #FBFBFB",
"*	c #E83703",
"=	c #F9F9FA",
"-	c #0000FC",
";	c #F8F8F8",
">	c #F5F5F6",
",	c #F7F7F7",
"'	c #28DA18",
")	c #830000",
"................",
".++++++++++++++.",
".+@#+#$$.%%%+++.",
".+&++##$.**.+++.",
".+=++....**.+++.",
".++++%--.**.+++.",
".++;+%--.**.+++.",
".+>,+%--.**.+++.",
".+%.%%--.**.+++.",
".+%''%--.**.+++.",
".+%''%--.**..%+.",
".+%''%--.**.)%+.",
".+%''%--.**.)%+.",
".+%''%--.**.)%+.",
".+%''%--.**.)%+.",
".+%''%--.**.)%+.",
"................"};
