/* XPM */
static const char *vizor_xpm[]={
"32 32 3 1",
". c None",
"# c #000000",
"o c #ffffff",
"................................",
"................................",
".oooooooooooooooooooooooooooooo.",
".o############################o.",
".o#ooooooooooooo#oooooooooooo#o.",
".o#o...........o#o..........o#o.",
".o#o...........o#o..........o#o.",
".o#o...........o#o..........o#o.",
".o#o...........o#o..........o#o.",
".o#o...........o#o..........o#o.",
".o#o...........o#o..........o#o.",
".o#o...........o#o..........o#o.",
".o#o...........ooo..........o#o.",
".o#o........................o#o.",
".o#oooooooooooo...ooooooooooo#o.",
".o############o...o###########o.",
".o#oooooooooooo...ooooooooooo#o.",
".o#o........................o#o.",
".o#o...........ooo..........o#o.",
".o#o...........o#o..........o#o.",
".o#o...........o#o..........o#o.",
".o#o...........o#o..........o#o.",
".o#o...........o#o..........o#o.",
".o#o...........o#o..........o#o.",
".o#o...........o#o..........o#o.",
".o#o...........o#o..........o#o.",
".o#ooooooooooooo#oooooooooooo#o.",
".o############################o.",
".oooooooooooooooooooooooooooooo.",
"................................",
"................................",
"................................"};
