/* XPM */
static const char * wizard_xpm[] = {
"32 32 91 1",
" 	c None",
".	c #FF6500",
"+	c #FF8E00",
"@	c #FFFF00",
"#	c #FFA600",
"$	c #FFC300",
"%	c #FF9A00",
"&	c #FFB200",
"*	c #FFB600",
"=	c #FFA200",
"-	c #FF9E00",
";	c #FFBA00",
">	c #FFE700",
",	c #FFE310",
"'	c #FFFF31",
")	c #FFD739",
"!	c #FFFFE7",
"~	c #FF8600",
"{	c #FFCB00",
"]	c #FFD700",
"^	c #FFE752",
"/	c #FFF7B5",
"(	c #FFFFDE",
"_	c #FFEF00",
":	c #FFF7A5",
"<	c #FFFFD6",
"[	c #FFDB00",
"}	c #FFE300",
"|	c #FFF700",
"1	c #FFF77B",
"2	c #FFFBB5",
"3	c #FFF784",
"4	c #FF8200",
"5	c #FFDF00",
"6	c #FFCF00",
"7	c #FFE773",
"8	c #B52800",
"9	c #BD3C00",
"0	c #FFAA00",
"a	c #FFE718",
"b	c #FFE363",
"c	c #B52400",
"d	c #D65900",
"e	c #FFD300",
"f	c #FFDF18",
"g	c #FFFF73",
"h	c #A51800",
"i	c #D65100",
"j	c #FF9600",
"k	c #FFAE00",
"l	c #840000",
"m	c #E74D00",
"n	c #FF1800",
"o	c #FF3400",
"p	c #940000",
"q	c #B50000",
"r	c #F71400",
"s	c #FF5100",
"t	c #FF7100",
"u	c #E70800",
"v	c #E73000",
"w	c #FF8A00",
"x	c #9C0000",
"y	c #E70000",
"z	c #FF0000",
"A	c #FF1C00",
"B	c #FF2400",
"C	c #C62400",
"D	c #F70000",
"E	c #312CB5",
"F	c #6B3063",
"G	c #0020FF",
"H	c #0855FF",
"I	c #5269C6",
"J	c #0000FF",
"K	c #0061FF",
"L	c #3196FF",
"M	c #847DC6",
"N	c #3192FF",
"O	c #4AA2FF",
"P	c #63A2F7",
"Q	c #C62031",
"R	c #002CFF",
"S	c #4AA6FF",
"T	c #5AAAFF",
"U	c #52A6FF",
"V	c #5224A5",
"W	c #73005A",
"X	c #2996FF",
"Y	c #0041FF",
"Z	c #108AFF",
"                                ",
"                                ",
"                 ..  .+@+.  ..  ",
"                .#$. .+@+. .$#. ",
"                 %&*=-;@;-=*&%  ",
"                  +>$$,',$$>+   ",
"                   %>>)!)>>%    ",
"                ..~{]^/(/^]{~.. ",
"               .#*$_^:<!<:^_$*#.",
"               .$[}|12<(<23|}[$.",
"                ..4567(!(7654.. ",
"                 890}ab(ba}0    ",
"                 cd66efgfe66+   ",
"                hi=[+j6@6kk[=4  ",
"               lm*[.no+@+. .[*. ",
"              pqrstnuv+@+.  w4  ",
"             xqyzAByqC+@+       ",
"            pqyzzzyqp           ",
"           lqyzzzyql            ",
"          pqyDzzyqp             ",
"         EFyzzzyqx              ",
"        GHIzzzyqp               ",
"       JKLMzzyql                ",
"      GKNOPMQqp                 ",
"     RHLSTULVW                  ",
"    GHXTTONKG                   ",
"   JKLTTTLKJ                    ",
" JGKNOTTXHG                     ",
" YHLSTULHR                      ",
" ZXTTONKG                       ",
" TTTTLKJ                        ",
" TTTXHG                         "};
