/* XPM */
static const char *yerror_xpm[]={
"32 32 2 1",
". c None",
"# c #000000",
"................................",
"................................",
"................................",
"...........###########..........",
"...........###########..........",
"................#...............",
"................#...............",
"................#...............",
"................#...............",
"................#...............",
"................#...............",
"................#...............",
"................#...............",
".............#######............",
".............#######............",
".............#######............",
".............#######............",
".............#######............",
".............#######............",
".............#######............",
"................#...............",
"................#...............",
"................#...............",
"................#...............",
"................#...............",
"................#...............",
"................#...............",
"...........###########..........",
"...........###########..........",
"................................",
"................................",
"................................"};
