/* XPM */
static const char * zoomOut_xpm[] = {
"20 20 101 2",
"  	c None",
". 	c #8D8C89",
"+ 	c #50504F",
"@ 	c #202121",
"# 	c #010101",
"$ 	c #1F2020",
"% 	c #4F4F4E",
"& 	c #3B3A3A",
"* 	c #222224",
"= 	c #6E777E",
"- 	c #95A0AA",
"; 	c #ABBAC9",
"> 	c #8998A6",
", 	c #606C77",
"' 	c #1D2022",
") 	c #393939",
"! 	c #111211",
"~ 	c #5F6368",
"{ 	c #D1DBE6",
"] 	c #D8E3ED",
"^ 	c #D5E0EB",
"/ 	c #CDDBE8",
"( 	c #C3D3E3",
"_ 	c #B7CBDE",
": 	c #A6BCD2",
"< 	c #48545E",
"[ 	c #101110",
"} 	c #DDE6EF",
"| 	c #E5ECF3",
"1 	c #E6EDF3",
"2 	c #BED0E1",
"3 	c #B1C6DB",
"4 	c #A3BCD5",
"5 	c #47535E",
"6 	c #F1F5F8",
"7 	c #F4F7FA",
"8 	c #C1D2E2",
"9 	c #B4C8DC",
"0 	c #A6BED6",
"a 	c #98B2CC",
"b 	c #1C1F22",
"c 	c #F9FAFC",
"d 	c #C2D3E3",
"e 	c #B4C9DC",
"f 	c #A6BFD6",
"g 	c #9DB8D2",
"h 	c #566573",
"i 	c #000000",
"j 	c #74899C",
"k 	c #1E2020",
"l 	c #E5C479",
"m 	c #EED9A8",
"n 	c #F2E1BC",
"o 	c #EDD5A0",
"p 	c #E3BF6F",
"q 	c #D9A636",
"r 	c #D1940C",
"s 	c #8CA4BB",
"t 	c #030303",
"u 	c #232425",
"v 	c #A9C1D7",
"w 	c #9FB9D3",
"x 	c #525252",
"y 	c #191D20",
"z 	c #434E5A",
"A 	c #080809",
"B 	c #ADACA8",
"C 	c #040405",
"D 	c #191919",
"E 	c #262625",
"F 	c #8BA3BA",
"G 	c #13161A",
"H 	c #050607",
"I 	c #1C1C1C",
"J 	c #737373",
"K 	c #252525",
"L 	c #72716E",
"M 	c #131312",
"N 	c #050505",
"O 	c #262626",
"P 	c #727272",
"Q 	c #272626",
"R 	c #2F2F2E",
"S 	c #090908",
"T 	c #2F2F2F",
"U 	c #6F6F6F",
"V 	c #2A2A29",
"W 	c #5C5B59",
"X 	c #080808",
"Y 	c #3A3A3A",
"Z 	c #6A6A6A",
"` 	c #323231",
" .	c #8D8B88",
"..	c #444444",
"+.	c #656565",
"@.	c #3D3D3C",
"#.	c #B3B1AD",
"$.	c #4E4E4E",
"%.	c #585858",
"&.	c #30302F",
"*.	c #323232",
"        . + @ # $ % .                   ",
"      & * = - ; > , ' )                 ",
"    ! ~ { ] ^ / ( _ : < [               ",
"  & ~ } | 1 } / 2 2 3 4 5 )             ",
". * { | 6 7 | / 2 8 9 0 a b .           ",
"+ = ] 1 7 c 1 / 2 d e f g h %           ",
"@ - ^ i i i i i i i i i g j k           ",
"# ; / i l m n o p q r i g s t           ",
"$ > ( i i i # i i i i i g j u           ",
"% , _ 2 8 d v w g v w g g h x           ",
". ' : 3 9 e w g g w g g a y .           ",
"  ) < 4 0 f g g g g g g z A B           ",
"    [ 5 a g g g g g a z C D E           ",
"      ) b h j F j h G H i I J K         ",
"        . % k # k % L M N i O P Q       ",
"                        R S i T U V     ",
"                          W X i Y Z `   ",
"                             .X # ..+.@.",
"                              #.M N $.%.",
"                                  &.# *."};
