/* XPM */
static const char *zoom_xpm[]={
"20 20 106 2",
"  	c None",
". 	c #8D8C89",
"+ 	c #50504F",
"@ 	c #202121",
"# 	c #010101",
"$ 	c #1F2020",
"% 	c #4F4F4E",
"& 	c #3B3A3A",
"* 	c #222224",
"= 	c #6E777E",
"- 	c #95A0AA",
"; 	c #ABBAC9",
"> 	c #8998A6",
", 	c #606C77",
"' 	c #1D2022",
") 	c #393939",
"! 	c #111211",
"~ 	c #5F6368",
"{ 	c #D1DBE6",
"] 	c #D8E3ED",
"^ 	c #D5E0EB",
"/ 	c #CDDBE8",
"( 	c #C3D3E3",
"_ 	c #B7CBDE",
": 	c #A6BCD2",
"< 	c #48545E",
"[ 	c #101110",
"} 	c #DDE6EF",
"| 	c #E5ECF3",
"1 	c #E6EDF3",
"2 	c #000000",
"3 	c #BED0E1",
"4 	c #B1C6DB",
"5 	c #A3BCD5",
"6 	c #47535E",
"7 	c #F1F5F8",
"8 	c #F4F7FA",
"9 	c #070606",
"0 	c #E3C278",
"a 	c #C1D2E2",
"b 	c #B4C8DC",
"c 	c #A6BED6",
"d 	c #98B2CC",
"e 	c #1C1F22",
"f 	c #F9FAFC",
"g 	c #0C0B0B",
"h 	c #E6D2A2",
"i 	c #C2D3E3",
"j 	c #B4C9DC",
"k 	c #A6BFD6",
"l 	c #9DB8D2",
"m 	c #566573",
"n 	c #E5D5B2",
"o 	c #74899C",
"p 	c #1E2020",
"q 	c #E5C479",
"r 	c #EED9A8",
"s 	c #F2E1BC",
"t 	c #EDD5A0",
"u 	c #E3BF6F",
"v 	c #D9A636",
"w 	c #D1940C",
"x 	c #8CA4BB",
"y 	c #030303",
"z 	c #232425",
"A 	c #A9C1D7",
"B 	c #9FB9D3",
"C 	c #525252",
"D 	c #191D20",
"E 	c #434E5A",
"F 	c #080809",
"G 	c #ADACA8",
"H 	c #040405",
"I 	c #191919",
"J 	c #262625",
"K 	c #8BA3BA",
"L 	c #13161A",
"M 	c #050607",
"N 	c #1C1C1C",
"O 	c #737373",
"P 	c #252525",
"Q 	c #72716E",
"R 	c #131312",
"S 	c #050505",
"T 	c #262626",
"U 	c #727272",
"V 	c #272626",
"W 	c #2F2F2E",
"X 	c #090908",
"Y 	c #2F2F2F",
"Z 	c #6F6F6F",
"` 	c #2A2A29",
" .	c #5C5B59",
"..	c #080808",
"+.	c #3A3A3A",
"@.	c #6A6A6A",
"#.	c #323231",
"$.	c #8D8B88",
"%.	c #444444",
"&.	c #656565",
"*.	c #3D3D3C",
"=.	c #B3B1AD",
"-.	c #4E4E4E",
";.	c #585858",
">.	c #30302F",
",.	c #323232",
"        . + @ # $ % .                   ",
"      & * = - ; > , ' )                 ",
"    ! ~ { ] ^ / ( _ : < [               ",
"  & ~ } | 1 # 2 2 3 4 5 6 )             ",
". * { | 7 8 9 0 2 a b c d e .           ",
"+ = ] 1 8 f g h 2 i j k l m %           ",
"@ - ^ 2 2 2 2 n 2 2 2 2 l o p           ",
"# ; / 2 q r s t u v w 2 l x y           ",
"$ > ( 2 2 2 2 u 2 2 2 2 l o z           ",
"% , _ 3 a i 2 v 2 A B l l m C           ",
". ' : 4 b j 2 w 2 B l l d D .           ",
"  ) < 5 c k 2 2 2 l l l E F G           ",
"    [ 6 d l l l l l d E H I J           ",
"      ) e m o K o m L M 2 N O P         ",
"        . % p # p % Q R S 2 T U V       ",
"                        W X 2 Y Z `     ",
"                           ...2 +.@.#.  ",
"                            $...# %.&.*.",
"                              =.R S -.;.",
"                                  >.# ,."};
