/* XPM */
static const char *set_xpm[] = {
"14 14 28 1",
" 	c #CFCFC7C7CFCF",
".	c #C7C7BABAC7C7",
"X	c #8E8E8A8A8E8E",
"o	c #868679798686",
"O	c #494949495151",
"+	c #A7A7A4A4A7A7",
"@	c #9A9A98989A9A",
"#	c #96969696AEAE",
"$	c #28282C2C3030",
"%	c #E7E7E7E7EFEF",
"&	c #BEBEC3C3CFCF",
"*	c #FFFFFFFFFFFF",
"=	c #717175757171",
"-	c #717179798686",
";	c #AEAE61616161",
":	c #303034343030",
">	c #79799292B6B6",
",	c #AEAEB2B2CFCF",
"<	c #51515555FFFF",
"1	c #414138384141",
"2	c #000000001414",
"3	c #BEBEC3C3BEBE",
"4	c #010101010101",
"5	c #616161616161",
"6	c #28285D5D4949",
"7	c #EFEFF3F3F7F7",
"8	c #202028285151",
"9	c #515155554949",
" ............X",
"XXXoXXoXXoXXXO",
"XooO+X@#X+XoXO",
"@oo$%&*& %+=XO",
"X-;$%. &#&#-oO",
"o-=:%>,<<<#o=1",
"=;-2,<<3>34-=1",
"-O52%67@4$OO-$",
"-5-22454+4o5o$",
"oO54X%O.%%@O-$",
"=5O4+X@X-+=5O8",
"5OO4444444$O5$",
"55O555955O55O1",
"1$8$$$$$8$$8$4"};
