/* XPM */
static const char *spreadsheet_xpm[]={
"25 25 199 2",
".c c #000000",
".R c #0095ff",
".D c #00bfff",
".Q c #0197ff",
".P c #0198ff",
".O c #019aff",
".N c #019fff",
".M c #01a2ff",
".L c #01a6ff",
".K c #01a9ff",
".J c #01acff",
".I c #01aeff",
".H c #01b1ff",
".G c #01b6ff",
".F c #01baff",
".E c #01bdff",
"be c #131313",
".C c #14c9ff",
"bc c #151515",
".S c #1aa2ff",
"bb c #252525",
"b. c #2f2f2f",
"a5 c #383838",
"a1 c #414141",
"b# c #4b4b4b",
".v c #4b96cb",
".u c #4b97cb",
".t c #4b98cb",
".s c #4b9bcb",
".r c #4b9ccb",
".q c #4b9ecb",
".p c #4ba0cb",
".o c #4ba1cb",
".n c #4ba2cb",
".m c #4ba4cb",
".l c #4ba6cb",
".k c #4ba8cb",
".j c #4baacb",
".i c #4babcb",
".w c #579ccb",
".h c #57b1cb",
".T c #5ab2e5",
"Qt c #656767",
".d c #677274",
".y c #6a7d81",
".B c #70e2ff",
"#c c #74c2fa",
".U c #757e80",
"#b c #75c5fc",
"bd c #767676",
".x c #76a4be",
"#a c #77c7fd",
"a6 c #787878",
"## c #78c8fe",
"#. c #78c9ff",
"aW c #797979",
"aU c #7a7a7a",
".9 c #7acdff",
".8 c #7aceff",
".7 c #7ad1ff",
"aO c #7b7b7b",
".6 c #7bd3ff",
".5 c #7bd5ff",
"aK c #7c7c7c",
".4 c #7cd7ff",
".Z c #7cdfff",
"aI c #7d7d7d",
".3 c #7dd8ff",
".2 c #7ddaff",
".0 c #7ddeff",
"ag c #7e7e7e",
".1 c #7edcff",
"#f c #808080",
"#d c #83cafb",
".b c #848484",
".Y c #84e3ff",
".# c #8a8b8b",
"a9 c #8b8b8b",
".e c #8b8d8e",
".z c #8b9091",
".g c #8cc0cb",
".V c #8e9091",
"aV c #8f8f8f",
"ah c #909090",
"#g c #919191",
".a c #979797",
"a4 c #9b9b9b",
"#e c #9dcae5",
".X c #a7edff",
"ba c #ababab",
".f c #adb7b7",
".A c #b0d2d8",
".W c #b4d2d8",
"a0 c #b7b7b7",
"#1 c #bababa",
"#Y c #bbbbbb",
"aY c #bcbcbc",
"a3 c #bdbdbd",
"aa c #bebebe",
"aX c #bfbfbf",
"#5 c #c0c0c0",
"#0 c #c1c1c1",
"a7 c #c2c2c2",
"aF c #c3c3c3",
"#2 c #c4c4c4",
"av c #c5c5c5",
"aC c #c6c6c6",
"ab c #c7c7c7",
"aP c #c8c8c8",
"ac c #c9c9c9",
"aG c #cacaca",
"ad c #cbcbcb",
"#h c #cbd8d8",
"#W c #cccccc",
"#4 c #cdcdcd",
"#3 c #cecece",
"#X c #cfcfcf",
"#Z c #d0d0d0",
"a# c #d1d1d1",
"aJ c #d2d2d2",
"ai c #d3d3d3",
"a. c #d4d4d4",
"aT c #d5d5d5",
"a2 c #d6d6d6",
"#U c #d7d7d7",
"#y c #d8d8d8",
"#T c #d9d9d9",
"#V c #dadada",
"aZ c #dcdcdc",
"aR c #dddddd",
"#x c #dde2e5",
"a8 c #dedede",
"#K c #dfdcda",
"#N c #dfddda",
"#8 c #dfdfdf",
"#M c #e0ddda",
"au c #e0e0e0",
"#L c #e1dedd",
"aA c #e1e1e1",
"#H c #e2dfde",
"#J c #e2e0de",
"az c #e2e2e2",
"#D c #e3e0df",
"#I c #e3e1df",
"at c #e3e3e3",
"#G c #e4e1e0",
"#R c #e4e2e2",
"aH c #e4e4e4",
"#B c #e5e1e0",
"as c #e5e5e5",
"#E c #e6e2e0",
"#F c #e6e2e1",
"ae c #e6e6e6",
"#C c #e7e3e2",
"aB c #e7e7e7",
"#v c #e7eff6",
"aE c #e8e8e8",
"#O c #e9e7e4",
"#6 c #e9e9e9",
"#u c #e9f2f9",
"#A c #eae8e7",
"aQ c #eaeaea",
"ap c #ebebeb",
"#w c #ebf3f8",
"#9 c #ececec",
"#t c #ecf6fc",
"#S c #ededed",
"al c #eeeeee",
"#s c #eef7fd",
"aN c #efefef",
"#r c #eff8ff",
"#i c #efffff",
"af c #f0f0f0",
"aD c #f1f1f1",
"ax c #f2f2f2",
"#q c #f2fbff",
"ay c #f3f3f3",
"#p c #f3fcff",
"#P c #f4f2f0",
"am c #f4f4f4",
"#o c #f4feff",
"#7 c #f5f5f5",
"#j c #f5ffff",
"aw c #f6f6f6",
"#n c #f6ffff",
"#z c #f7f6f5",
"ar c #f7f7f7",
"#m c #f7ffff",
"aS c #f8f8f8",
"#k c #f8ffff",
"ak c #f9f9f9",
"#l c #f9ffff",
"#Q c #faf8f7",
"aM c #fafafa",
"aL c #fbfbfb",
"ao c #fcfcfc",
"aj c #fdfdfd",
"aq c #fefefe",
"an c #ffffff",
"Qt.#.a.a.a.a.a.a.a.a.a.a.a.a.a.a.a.a.a.a.a.a.a.b.c",
".d.e.f.g.h.i.j.k.l.m.n.o.p.q.r.s.t.u.u.u.v.w.x.b.c",
".y.z.A.B.C.D.E.F.G.H.I.J.K.L.M.N.O.P.Q.Q.R.S.T.b.c",
".U.V.W.X.Y.Z.0.1.2.3.4.5.6.7.8.9#.###a#b#c#d#e.b.c",
"#f#g#h#i#j#k#k#l#k#m#n#j#o#p#q#q#r#s#t#u#v#w#x.b.c",
"#f#g#y#z#A#B#C#D#E#F#G#H#H#I#J#K#L#M#N#O#P#Q#R.b.c",
"#f#g#y#S#T#U#V#W#X#Y#X#Z#0#1#2#3#4#5#3#V#6#7#8.b.c",
"#f#g#y#9a.#3a##5#2aa#2abac#W#3ad#Z#4#X#Taeaf#8.b.c",
"agah#yaf#V#Zaiac#7ajakalamanaoapajaqarasatafau.b.c",
"agah#yap#Zavac#0alawaxae#9awayatayawalauazafaA.b.c",
"agah#yaBabaaavaCaDaraxaB#9awayataxawal#8azaDaz.b.c",
"agah#yaEadaFaG#XaxawaDae#9awayataxawalauaHamat.b.c",
"aIah#y#9aJaC#W#XaxawaDae#9awayataxawalaAae#7aH.b.c",
"aKah#yaf#Uac#3a.aLaqaMaNamanaoapaLaqawasaBawas.b.c",
"aOaha.aE#XaFaPaGaQafap#8asaf#9aRaQafaBau#6aSas.b.c",
"aOah#ZaeaiaG#XaTaLaqaMaNamanaoapaLaqawaBapaMas.b.c",
"aUaVaiae#XaCaGacaQaD#9aAaBaDalaR#9axaBaA#9aMas.b.c",
"aWaVaiaEa#aC#W#XayaramaE#SaS#7aH#0#2aXaY#0aPaa.b.c",
"aWaVa.aE#3#5abaGapalapauasaN#9aZ.a#0acaGada0.ba1.c",
"aWaVa2#6#Wa3#2aCaB#SaEaRatalap#T.aapaoaqasa4a5.c.c",
"a6aVa2#9a#a7ac#Xaf#7afae#9arayaz.aaBaoa8a9b..c.c.c",
"a6aV#Ualaiavad#ZaQalapazaBaf#9a8.aasaLaab#.c.c.c.c",
"a6aV#yajaLaLaMaSaSaSaSaSaSaSarar.aaRbaa5.c.c.c.c.c",
"aKah#yananananananananananananan.a.abb.c.c.c.c.c.c",
"bcbd.a.a.a.a.a.a.a.a.a.a.a.a.a.a.abe.c.c.c.c.c.c.c"};
