/* XPM */
static const char *title_xpm[]={
"24 24 8 1",
"a c #000000",
"b c #202020",
"# c #404040",
"f c #707070",
"d c #7f7f7f",
"c c #bfbfbf",
"e c #cfcfcf",
". c #ffffff",
"........................",
"........................",
"........................",
"........................",
"........................",
"......############......",
"......ab##baab##ba......",
"......bc..daad..cb......",
"......#...daad...#......",
"..........daad..........",
"..........daad..........",
"..........daad..........",
"..........daad..........",
"..........daad..........",
"..........daad..........",
"..........daad..........",
"..........daad..........",
".........ebaabe.........",
"........f######f........",
"........................",
"........................",
"........................",
"........................",
"........................"};
