/* XPM */
static char *dummy[]={
"201 1 201 2",
"ad c #0005ff",
"ac c #000cff",
"ab c #0014ff",
"aa c #001bff",
"a# c #0023ff",
"a. c #002aff",
"#9 c #0032ff",
"#8 c #003aff",
"#7 c #0041ff",
"#6 c #0049ff",
"#5 c #0050ff",
"#4 c #0058ff",
"#3 c #005fff",
"#2 c #0067ff",
"#1 c #006fff",
"#0 c #0076ff",
"#Z c #007eff",
"#Y c #0085ff",
"#X c #008dff",
"#W c #0094ff",
"#V c #009cff",
"#U c #00a4ff",
"#T c #00abff",
"#S c #00b3ff",
"#R c #00baff",
"#Q c #00c2ff",
"#P c #00c9ff",
"#O c #00d1ff",
"#N c #00d9ff",
"#M c #00e0ff",
"#L c #00e8ff",
"#K c #00efff",
"#J c #00f7ff",
"#b c #00ff05",
"#c c #00ff0c",
"#d c #00ff14",
"#e c #00ff1b",
"#f c #00ff23",
"#g c #00ff2a",
"#h c #00ff32",
"#i c #00ff3a",
"#j c #00ff41",
"#k c #00ff49",
"#l c #00ff50",
"#m c #00ff58",
"#n c #00ff5f",
"#o c #00ff67",
"#p c #00ff6f",
"#q c #00ff76",
"#r c #00ff7e",
"#s c #00ff85",
"#t c #00ff8d",
"#u c #00ff94",
"#v c #00ff9c",
"#w c #00ffa4",
"#x c #00ffab",
"#y c #00ffb3",
"#z c #00ffba",
"#A c #00ffc2",
"#B c #00ffc9",
"#C c #00ffd1",
"#D c #00ffd9",
"#E c #00ffe0",
"#F c #00ffe8",
"#G c #00ffef",
"#H c #00fff7",
"#I c #00ffff",
"ae c #0200ff",
"#a c #02ff00",
"af c #0a00ff",
"## c #0aff00",
"ag c #1100ff",
"#. c #11ff00",
"ah c #1900ff",
".9 c #19ff00",
"ai c #2000ff",
".8 c #20ff00",
"aj c #2800ff",
".7 c #28ff00",
"ak c #2f00ff",
".6 c #2fff00",
"al c #3700ff",
".5 c #37ff00",
"am c #3f00ff",
".4 c #3fff00",
"an c #4600ff",
".3 c #46ff00",
"ao c #4e00ff",
".2 c #4eff00",
"ap c #5500ff",
".1 c #55ff00",
"aq c #5d00ff",
".0 c #5dff00",
"ar c #6400ff",
".Z c #64ff00",
"as c #6c00ff",
".Y c #6cff00",
"at c #7400ff",
".X c #74ff00",
"au c #7b00ff",
".W c #7bff00",
"av c #8300ff",
".V c #83ff00",
"aw c #8a00ff",
".U c #8aff00",
"ax c #9200ff",
".T c #92ff00",
"ay c #9a00ff",
".S c #9aff00",
"az c #a100ff",
".R c #a1ff00",
"aA c #a900ff",
".Q c #a9ff00",
"aB c #b000ff",
".P c #b0ff00",
"aC c #b800ff",
".O c #b8ff00",
"aD c #bf00ff",
".N c #bfff00",
"aE c #c700ff",
".M c #c7ff00",
"aF c #cf00ff",
".L c #cfff00",
"aG c #d600ff",
".K c #d6ff00",
"aH c #de00ff",
".J c #deff00",
"aI c #e500ff",
".I c #e5ff00",
"aJ c #ed00ff",
".H c #edff00",
"aK c #f400ff",
".G c #f4ff00",
"aL c #fc00ff",
".F c #fcff00",
"bg c #ff0007",
"bf c #ff000f",
"be c #ff0016",
"bd c #ff001e",
"bc c #ff0025",
"bb c #ff002d",
"ba c #ff0035",
"b# c #ff003c",
"b. c #ff0044",
"a9 c #ff004b",
"a8 c #ff0053",
"a7 c #ff005a",
"a6 c #ff0062",
"a5 c #ff006a",
"a4 c #ff0071",
"a3 c #ff0079",
"a2 c #ff0080",
"a1 c #ff0088",
"a0 c #ff008f",
"aZ c #ff0097",
"aY c #ff009f",
"aX c #ff00a6",
"aW c #ff00ae",
"aV c #ff00b5",
"aU c #ff00bd",
"aT c #ff00c4",
"aS c #ff00cc",
"aR c #ff00d4",
"aQ c #ff00db",
"aP c #ff00e3",
"aO c #ff00ea",
"aN c #ff00f2",
"aM c #ff00f9",
"Qt c #ff0700",
".# c #ff0f00",
".a c #ff1600",
".b c #ff1e00",
".c c #ff2500",
".d c #ff2d00",
".e c #ff3500",
".f c #ff3c00",
".g c #ff4400",
".h c #ff4b00",
".i c #ff5300",
".j c #ff5a00",
".k c #ff6200",
".l c #ff6a00",
".m c #ff7100",
".n c #ff7900",
".o c #ff8000",
".p c #ff8800",
".q c #ff8f00",
".r c #ff9700",
".s c #ff9f00",
".t c #ffa600",
".u c #ffae00",
".v c #ffb500",
".w c #ffbd00",
".x c #ffc400",
".y c #ffcc00",
".z c #ffd400",
".A c #ffdb00",
".B c #ffe300",
".C c #ffea00",
".D c #fff200",
".E c #fff900",
"Qt.#.a.b.c.d.e.f.g.h.i.j.k.l.m.n.o.p.q.r.s.t.u.v.w.x.y.z.A.B.C.D.E.F.G.H.I.J.K.L.M.N.O.P.Q.R.S.T.U.V.W.X.Y.Z.0.1.2.3.4.5.6.7.8.9#.###a#b#c#d#e#f#g#h#i#j#k#l#m#n#o#p#q#r#s#t#u#v#w#x#y#z#A#B#C#D#E#F#G#H#I#J#K#L#M#N#O#P#Q#R#S#T#U#V#W#X#Y#Z#0#1#2#3#4#5#6#7#8#9a.a#aaabacadaeafagahaiajakalamanaoapaqarasatauavawaxayazaAaBaCaDaEaFaGaHaIaJaKaLaMaNaOaPaQaRaSaTaUaVaWaXaYaZa0a1a2a3a4a5a6a7a8a9b.b#babbbcbdbebfbg"};
