/* XPM */
static char *dummy[]={
"205 1 201 2",
"bg c #ff0202",
"bf c #ff0303",
"be c #ff0505",
"bd c #ff0606",
"bc c #ff0707",
"bb c #ff0909",
"ba c #ff0a0a",
"b# c #ff0b0b",
"b. c #ff0d0d",
"a9 c #ff0e0e",
"a8 c #ff0f0f",
"a7 c #ff1111",
"a6 c #ff1212",
"a5 c #ff1313",
"a4 c #ff1515",
"a3 c #ff1616",
"a2 c #ff1717",
"a1 c #ff1919",
"a0 c #ff1a1a",
"aZ c #ff1b1b",
"aY c #ff1c1c",
"aX c #ff1e1e",
"aW c #ff1f1f",
"aV c #ff2020",
"aU c #ff2222",
"aT c #ff2323",
"aS c #ff2424",
"aR c #ff2626",
"aQ c #ff2727",
"aP c #ff2828",
"aO c #ff2a2a",
"aN c #ff2b2b",
"aM c #ff2c2c",
"aL c #ff2e2e",
"aK c #ff2f2f",
"aJ c #ff3030",
"aI c #ff3232",
"aH c #ff3333",
"aG c #ff3434",
"aF c #ff3636",
"aE c #ff3737",
"aD c #ff3838",
"aC c #ff3939",
"aB c #ff3b3b",
"aA c #ff3c3c",
"az c #ff3d3d",
"ay c #ff3f3f",
"ax c #ff4040",
"aw c #ff4141",
"av c #ff4343",
"au c #ff4444",
"at c #ff4545",
"as c #ff4747",
"ar c #ff4848",
"aq c #ff4949",
"ap c #ff4b4b",
"ao c #ff4c4c",
"an c #ff4d4d",
"am c #ff4f4f",
"al c #ff5050",
"ak c #ff5151",
"aj c #ff5252",
"ai c #ff5454",
"ah c #ff5555",
"ag c #ff5656",
"af c #ff5858",
"ae c #ff5959",
"ad c #ff5a5a",
"ac c #ff5c5c",
"ab c #ff5d5d",
"aa c #ff5e5e",
"a# c #ff6060",
"a. c #ff6161",
"#9 c #ff6262",
"#8 c #ff6464",
"#7 c #ff6565",
"#6 c #ff6666",
"#5 c #ff6868",
"#4 c #ff6969",
"#3 c #ff6a6a",
"#2 c #ff6c6c",
"#1 c #ff6d6d",
"#0 c #ff6e6e",
"#Z c #ff6f6f",
"#Y c #ff7171",
"#X c #ff7272",
"#W c #ff7373",
"#V c #ff7575",
"#U c #ff7676",
"#T c #ff7777",
"#S c #ff7979",
"#R c #ff7a7a",
"#Q c #ff7b7b",
"#P c #ff7d7d",
"#O c #ff7e7e",
"#N c #ff7f7f",
"#M c #ff8080",
"#L c #ff8282",
"#K c #ff8383",
"#J c #ff8484",
"#I c #ff8585",
"#H c #ff8787",
"#G c #ff8888",
"#F c #ff8989",
"#E c #ff8a8a",
"#D c #ff8b8b",
"#C c #ff8d8d",
"#B c #ff8e8e",
"#A c #ff8f8f",
"#z c #ff9090",
"#y c #ff9191",
"#x c #ff9393",
"#w c #ff9494",
"#v c #ff9595",
"#u c #ff9696",
"#t c #ff9797",
"#s c #ff9999",
"#r c #ff9a9a",
"#q c #ff9b9b",
"#p c #ff9c9c",
"#o c #ff9e9e",
"#n c #ff9f9f",
"#m c #ffa0a0",
"#l c #ffa1a1",
"#k c #ffa2a2",
"#j c #ffa4a4",
"#i c #ffa5a5",
"#h c #ffa6a6",
"#g c #ffa7a7",
"#f c #ffa8a8",
"#e c #ffaaaa",
"#d c #ffabab",
"#c c #ffacac",
"#b c #ffadad",
"#a c #ffafaf",
"## c #ffb0b0",
"#. c #ffb1b1",
".9 c #ffb2b2",
".8 c #ffb3b3",
".7 c #ffb5b5",
".6 c #ffb6b6",
".5 c #ffb7b7",
".4 c #ffb8b8",
".3 c #ffb9b9",
".2 c #ffbbbb",
".1 c #ffbcbc",
".0 c #ffbdbd",
".Z c #ffbebe",
".Y c #ffbfbf",
".X c #ffc1c1",
".W c #ffc2c2",
".V c #ffc3c3",
".U c #ffc4c4",
".T c #ffc6c6",
".S c #ffc7c7",
".R c #ffc8c8",
".Q c #ffc9c9",
".P c #ffcaca",
".O c #ffcccc",
".N c #ffcdcd",
".M c #ffcece",
".L c #ffcfcf",
".K c #ffd0d0",
".J c #ffd2d2",
".I c #ffd3d3",
".H c #ffd4d4",
".G c #ffd5d5",
".F c #ffd7d7",
".E c #ffd8d8",
".D c #ffd9d9",
".C c #ffdada",
".B c #ffdbdb",
".A c #ffdddd",
".z c #ffdede",
".y c #ffdfdf",
".x c #ffe0e0",
".w c #ffe1e1",
".v c #ffe3e3",
".u c #ffe4e4",
".t c #ffe5e5",
".s c #ffe6e6",
".r c #ffe7e7",
".q c #ffe9e9",
".p c #ffeaea",
".o c #ffebeb",
".n c #ffecec",
".m c #ffeeee",
".l c #ffefef",
".k c #fff0f0",
".j c #fff1f1",
".i c #fff2f2",
".h c #fff4f4",
".g c #fff5f5",
".f c #fff6f6",
".e c #fff7f7",
".d c #fff8f8",
".c c #fffafa",
".b c #fffbfb",
".a c #fffcfc",
".# c #fffdfd",
"Qt c #ffffff",
"QtQtQtQtQt.#.a.b.c.d.e.f.g.h.i.j.k.l.m.n.o.p.q.r.s.t.u.v.w.x.y.z.A.B.C.D.E.F.G.H.I.J.K.L.M.N.O.P.Q.R.S.T.U.V.W.X.Y.Z.0.1.2.3.4.5.6.7.8.9#.###a#b#c#d#e#f#g#h#i#j#k#l#m#n#o#p#q#r#s#t#u#v#w#x#y#z#A#B#C#D#E#F#G#H#I#J#K#L#M#N#O#P#Q#R#S#T#U#V#W#X#Y#Z#0#1#2#3#4#5#6#7#8#9a.a#aaabacadaeafagahaiajakalamanaoapaqarasatauavawaxayazaAaBaCaDaEaFaGaHaIaJaKaLaMaNaOaPaQaRaSaTaUaVaWaXaYaZa0a1a2a3a4a5a6a7a8a9b.b#babbbcbdbebfbg"};
