/* XPM */
static char *dummy[]={
"202 1 202 2",
"Qt c #000000",
".# c #010000",
".a c #020000",
".b c #030000",
".c c #040000",
".d c #060000",
".e c #070000",
".f c #080000",
".g c #090000",
".h c #0a0000",
".i c #0c0000",
".j c #0d0000",
".k c #0e0000",
".l c #0f0000",
".m c #100000",
".n c #120000",
".o c #130000",
".p c #140000",
".q c #150000",
".r c #170000",
".s c #180000",
".t c #190000",
".u c #1a0000",
".v c #1b0000",
".w c #1d0000",
".x c #1e0000",
".y c #1f0000",
".z c #200000",
".A c #210000",
".B c #230000",
".C c #240000",
".D c #250000",
".E c #260000",
".F c #270000",
".G c #290000",
".H c #2a0000",
".I c #2b0000",
".J c #2c0000",
".K c #2e0000",
".L c #2f0000",
".M c #300000",
".N c #310000",
".O c #320000",
".P c #340000",
".Q c #350000",
".R c #360000",
".S c #370000",
".T c #380000",
".U c #3a0000",
".V c #3b0000",
".W c #3c0000",
".X c #3d0000",
".Y c #3f0000",
".Z c #400000",
".0 c #410000",
".1 c #420000",
".2 c #430000",
".3 c #450000",
".4 c #460000",
".5 c #470000",
".6 c #480000",
".7 c #490000",
".8 c #4b0000",
".9 c #4c0000",
"#. c #4d0000",
"## c #4e0000",
"#a c #4f0000",
"#b c #510000",
"#c c #520000",
"#d c #530000",
"#e c #540000",
"#f c #560000",
"#g c #570000",
"#h c #580000",
"#i c #590000",
"#j c #5a0000",
"#k c #5c0000",
"#l c #5d0000",
"#m c #5e0000",
"#n c #5f0000",
"#o c #600000",
"#p c #620000",
"#q c #630000",
"#r c #640000",
"#s c #650000",
"#t c #670000",
"#u c #680000",
"#v c #690000",
"#w c #6a0000",
"#x c #6b0000",
"#y c #6d0000",
"#z c #6e0000",
"#A c #6f0000",
"#B c #700000",
"#C c #710000",
"#D c #730000",
"#E c #740000",
"#F c #750000",
"#G c #760000",
"#H c #770000",
"#I c #790000",
"#J c #7a0000",
"#K c #7b0000",
"#L c #7c0000",
"#M c #7e0000",
"#N c #7f0000",
"#O c #800000",
"#P c #810000",
"#Q c #830000",
"#R c #840000",
"#S c #850000",
"#T c #870000",
"#U c #880000",
"#V c #890000",
"#W c #8b0000",
"#X c #8c0000",
"#Y c #8d0000",
"#Z c #8f0000",
"#0 c #900000",
"#1 c #910000",
"#2 c #930000",
"#3 c #940000",
"#4 c #960000",
"#5 c #970000",
"#6 c #980000",
"#7 c #9a0000",
"#8 c #9b0000",
"#9 c #9c0000",
"a. c #9e0000",
"a# c #9f0000",
"aa c #a00000",
"ab c #a20000",
"ac c #a30000",
"ad c #a40000",
"ae c #a60000",
"af c #a70000",
"ag c #a80000",
"ah c #aa0000",
"ai c #ab0000",
"aj c #ac0000",
"ak c #ae0000",
"al c #af0000",
"am c #b00000",
"an c #b20000",
"ao c #b30000",
"ap c #b40000",
"aq c #b60000",
"ar c #b70000",
"as c #b80000",
"at c #ba0000",
"au c #bb0000",
"av c #bc0000",
"aw c #be0000",
"ax c #bf0000",
"ay c #c00000",
"az c #c20000",
"aA c #c30000",
"aB c #c40000",
"aC c #c60000",
"aD c #c70000",
"aE c #c80000",
"aF c #c90000",
"aG c #cb0000",
"aH c #cc0000",
"aI c #cd0000",
"aJ c #cf0000",
"aK c #d00000",
"aL c #d10000",
"aM c #d20000",
"aN c #d40000",
"aO c #d50000",
"aP c #d60000",
"aQ c #d80000",
"aR c #d90000",
"aS c #da0000",
"aT c #dc0000",
"aU c #dd0000",
"aV c #de0000",
"aW c #df0000",
"aX c #e10000",
"aY c #e20000",
"aZ c #e30000",
"a0 c #e50000",
"a1 c #e60000",
"a2 c #e70000",
"a3 c #e80000",
"a4 c #ea0000",
"a5 c #eb0000",
"a6 c #ec0000",
"a7 c #ee0000",
"a8 c #ef0000",
"a9 c #f00000",
"b. c #f20000",
"b# c #f30000",
"ba c #f40000",
"bb c #f50000",
"bc c #f70000",
"bd c #f80000",
"be c #f90000",
"bf c #fb0000",
"bg c #fc0000",
"bh c #fd0000",
"Qt.#.a.b.c.d.e.f.g.h.i.j.k.l.m.n.o.p.q.r.s.t.u.v.w.x.y.z.A.B.C.D.E.F.G.H.I.J.K.L.M.N.O.P.Q.R.S.T.U.V.W.X.Y.Z.0.1.2.3.4.5.6.7.8.9#.###a#b#c#d#e#f#g#h#i#j#k#l#m#n#o#p#q#r#s#t#u#v#w#x#y#z#A#B#C#D#E#F#G#H#I#J#K#L#M#N#O#P#Q#R#S#T#U#V#W#X#Y#Z#0#1#2#3#4#5#6#7#8#9a.a#aaabacadaeafagahaiajakalamanaoapaqarasatauavawaxayazaAaBaCaDaEaFaGaHaIaJaKaLaMaNaOaPaQaRaSaTaUaVaWaXaYaZa0a1a2a3a4a5a6a7a8a9b.b#babbbcbdbebfbgbh"};
